<?xml version="1.0" encoding="utf-8"?>
<!-- Generator: Adobe Illustrator 19.1.0, SVG Export Plug-In . SVG Version: 6.00 Build 0)  -->
<svg version="1.1" id="Layer_1" xmlns="http://www.w3.org/2000/svg" xmlns:xlink="http://www.w3.org/1999/xlink" x="0px" y="0px"
	 viewBox="-267 336.7 521 119.9" style="enable-background:new -267 336.7 521 119.9;" xml:space="preserve">
<style type="text/css">
	.st0{fill:#0686F3;}
	.st1{fill:#FFFFFF;}
</style>
<rect x="-267" y="336.7" class="st0" width="521" height="119.9"/>
<g>
	<path class="st1" d="M-179.2,378.8h10.1c6.4,0,9.6,3.5,9.6,10.1v20.6c0,6.4-3.1,10.1-9.6,10.1h-10.1V378.8z M-172.9,384.6v29.1h3.7
		c2.1,0,3.3-1,3.3-4v-21.1c0-3-1.2-4-3.3-4H-172.9z"/>
	<path class="st1" d="M-131.1,419.4h-6.4l-1-7.3h-7.8l-1,7.3h-5.9l6.4-40.6h9.4L-131.1,419.4z M-145.7,406.5h6.1l-3.1-20.6
		L-145.7,406.5z"/>
	<path class="st1" d="M-110.5,397.8l-2.3,21.6h-8.7l-4.5-40.6h6.3l3.5,32.1l3.1-32.1h6.1l3.1,32.2l3.3-32.2h5.6l-4.7,40.6h-8.5
		L-110.5,397.8z"/>
	<path class="st1" d="M-79.9,378.3c6.3,0,9.4,3.7,9.4,10.3v1.2h-6.1v-1.7c0-3-1.2-4-3.1-4c-2.1,0-3.1,1-3.1,4
		c0,8.4,12.5,9.9,12.5,21.6c0,6.4-3.3,10.3-9.6,10.3c-6.3,0-9.6-3.7-9.6-10.3v-2.4h6.1v3c0,3,1.2,4,3.3,4c2.1,0,3.3-1,3.3-4
		c0-8.4-12.5-9.9-12.5-21.6C-89.3,382.1-86.1,378.3-79.9,378.3z"/>
	<path class="st1" d="M-63.5,388.6c0-6.4,3.5-10.3,9.8-10.3s9.8,3.7,9.8,10.3v21.1c0,6.4-3.5,10.3-9.8,10.3s-9.8-3.7-9.8-10.3V388.6
		z M-57,410c0,3,1.2,4,3.3,4c2.1,0,3.3-1,3.3-4v-21.8c0-3-1.2-4-3.3-4c-2.1,0-3.3,1-3.3,4V410z"/>
	<path class="st1" d="M-30.2,390v29.4h-5.8v-40.6h8l6.6,24.4v-24.4h5.8v40.6h-6.6L-30.2,390z"/>
	<path class="st1" d="M10.4,398c-3-1.2-4.4-4-4.4-8.4v-0.7c0-6.4,3.1-10.1,9.6-10.1h7.3v5.8h-7.1c-2.1,0-3.3,1-3.3,4v2.4
		c0,3.3,1.4,4.4,3.8,4.4h2.8v-4.5h6.4v4.5h1.7v5.8h-1.7v13.4c0,1.9,0,3.5,0.7,4.9h-6.4c-0.3-0.9-0.5-1.4-0.5-3.1
		c-1,2.4-3.1,3.7-5.9,3.7c-4.7,0-7.1-3.3-7.1-9.2v-4.2C6,402.4,7.3,399.4,10.4,398z M15.8,414c1.9,0,3.1-1,3.3-3.5v-9.4h-2.4
		c-3,0-4.2,1.4-4.2,5.2v3.8C12.5,413,13.7,414,15.8,414z"/>
	<path class="st1" d="M47.5,378.8h10.1c6.4,0,9.6,3.5,9.6,10.1v20.6c0,6.4-3.1,10.1-9.6,10.1H47.5V378.8z M53.8,384.6v29.1h3.7
		c2.1,0,3.3-1,3.3-4v-21.1c0-3-1.2-4-3.3-4H53.8z"/>
	<path class="st1" d="M74.9,378.8h6.4v40.6h-6.4V378.8z"/>
	<path class="st1" d="M99.6,396.8h8.9v12.9c0,6.4-3.3,10.3-9.6,10.3s-9.6-3.7-9.6-10.3v-21.1c0-6.4,3.3-10.3,9.6-10.3
		s9.6,3.7,9.6,10.3v3.8h-6.1v-4.4c0-3-1.2-4-3.3-4c-2.1,0-3.3,1-3.3,4v22c0,3,1.2,4,3.3,4c2.1,0,3.3-1,3.3-4v-7.5h-3v-5.8H99.6z"/>
	<path class="st1" d="M126.3,396.8h8.9v12.9c0,6.4-3.3,10.3-9.6,10.3s-9.6-3.7-9.6-10.3v-21.1c0-6.4,3.3-10.3,9.6-10.3
		s9.6,3.7,9.6,10.3v3.8h-6.1v-4.4c0-3-1.2-4-3.3-4s-3.3,1-3.3,4v22c0,3,1.2,4,3.3,4s3.3-1,3.3-4v-7.5h-3v-5.8H126.3z"/>
	<path class="st1" d="M152.1,378.3c6.3,0,9.4,3.7,9.4,10.3v1.2h-6.1v-1.7c0-3-1.2-4-3.1-4c-2.1,0-3.1,1-3.1,4
		c0,8.4,12.5,9.9,12.5,21.6c0,6.4-3.3,10.3-9.6,10.3s-9.6-3.7-9.6-10.3v-2.4h6.1v3c0,3,1.2,4,3.3,4c2.1,0,3.3-1,3.3-4
		c0-8.4-12.5-9.9-12.5-21.6C142.7,382.1,145.8,378.3,152.1,378.3z"/>
</g>
</svg>
