<?xml version="1.0" encoding="utf-8"?>
<!-- Generator: Adobe Illustrator 23.0.1, SVG Export Plug-In . SVG Version: 6.00 Build 0)  -->
<svg version="1.1" id="Layer_1" xmlns="http://www.w3.org/2000/svg" xmlns:xlink="http://www.w3.org/1999/xlink" x="0px" y="0px"
	 viewBox="0 0 244 50.9" style="enable-background:new 0 0 244 50.9;" xml:space="preserve">
<style type="text/css">
	.st0{fill-rule:evenodd;clip-rule:evenodd;fill:#FFFFFF;}
	.st1{fill:none;stroke:#FFFFFF;stroke-width:2;}
	.st2{fill-rule:evenodd;clip-rule:evenodd;fill:#41901E;}
	.st3{fill-rule:evenodd;clip-rule:evenodd;}
	.st4{fill-rule:evenodd;clip-rule:evenodd;fill:#40901F;}
</style>
<title>Group 3</title>
<desc>Created with Sketch.</desc>
<g id="Miles---Symbols">
	<g>
		<g id="Group-3" transform="translate(1.000000, 0.000000)">
			<g id="Group-2" transform="translate(0.000000, 1.000000)">
				<g id="Group">
					<polygon id="Fill-1" class="st0" points="0,48.4 51,48.4 51,0.4 0,0.4 					"/>
					<polygon id="Stroke-2" class="st1" points="0,48.4 51,48.4 51,0.4 0,0.4 					"/>
					<path id="Fill-4" class="st2" d="M44.7,43.2c-2-1.6-6.6-5.1-9.4-11.4c-2-4.4-3.1-10.7-3.2-19.4c-4.6,12.7-10.3,28.2-13.1,36h31
						C48.4,46.2,46.6,44.6,44.7,43.2"/>
					<polygon id="Fill-5" class="st3" points="18.5,41.4 34,0.4 1,0.4 					"/>
					<polygon id="Fill-6" class="st3" points="0,23.4 0,48.4 10,48.4 					"/>
					<path id="Fill-7" class="st4" d="M38.9,20.2c1.8,4,5.3,7.1,7.1,8.4c1.8,1.3,3.5,2.5,5,3.9v-32H37.8C37.2,2.9,37,5.6,37,8
						C37,11.9,37.4,16.5,38.9,20.2"/>
				</g>
			</g>
			<polygon id="Fill-8" class="st0" points="68.7,0.4 71.3,0.4 77.4,16.9 84,0.4 86.8,0.4 90,20 87.5,20.4 85,3.6 84.9,3.6 78.6,20 
				76.2,20 70.3,3.6 70.2,3.6 67.4,20.4 65,20 			"/>
			<polygon id="Fill-9" class="st0" points="93.2,0.4 96,0.4 95.8,20.4 93,20.4 			"/>
			<polygon id="Fill-10" class="st0" points="99,20.4 99.2,0.4 101.7,0.4 101.5,18.3 110,18.3 110,20.4 			"/>
			<polygon id="Fill-11" class="st0" points="114.2,0.4 124.9,0.4 124.9,2.5 116.7,2.5 116.7,9.3 124.6,9.3 124.6,11.4 116.7,11.4 
				116.6,18.3 125,18.3 125,20.4 114,20.4 			"/>
			<path id="Fill-12" class="st0" d="M128.1,18c1.1,0.8,2.7,1.5,4.3,1.5c2.3,0,4-1.4,4-3.7c0-5.1-8.8-3-8.8-10.1
				c0-3.1,2.5-5.3,6.1-5.3c2,0,3.7,0.6,5.3,1.6l-1,1.8c-1.2-0.8-2.4-1.5-4.3-1.5c-1.7,0-3.7,1.1-3.7,3.5c0,4.4,9,3.4,9,9.7
				c0,3-2.1,5.8-6.5,5.8c-2.2,0-3.8-0.6-5.5-1.6L128.1,18z"/>
			<path id="Fill-13" class="st0" d="M66.1,47c1.1,0.8,2.7,1.5,4.3,1.5c2.3,0,4-1.4,4-3.7c0-5.1-8.8-3-8.8-10.1
				c0-3.1,2.5-5.3,6.1-5.3c2,0,3.7,0.6,5.3,1.6l-1,1.8c-1.2-0.8-2.4-1.5-4.3-1.5c-1.7,0-3.7,1.1-3.7,3.5c0,4.4,9,3.4,9,9.7
				c0,3-2.1,5.8-6.5,5.8c-2.2,0-3.8-0.6-5.5-1.6L66.1,47z"/>
			<polygon id="Fill-14" class="st0" points="79,29.4 94,29.4 94,31.5 87.7,31.5 87.6,49.4 85.1,49.4 85.3,31.5 79,31.5 			"/>
			<path id="Fill-15" class="st0" d="M104.5,48.3c4.6,0,7.9-3.7,7.9-8.4c0-4.7-3.3-8.4-7.9-8.4c-4.6,0-7.9,3.7-7.9,8.4
				C96.6,44.6,99.9,48.3,104.5,48.3 M104.5,29.4c5.9,0,10.5,3.9,10.5,10.5c0,6.2-4.6,10.5-10.5,10.5c-5.9,0-10.5-3.9-10.5-10.5
				C94,33.7,98.6,29.4,104.5,29.4"/>
			<path id="Fill-16" class="st0" d="M132.9,33c-1.6-1.1-3.3-1.5-5.2-1.5c-4.7,0-8,3.7-8,8.4c0,4.7,3.3,8.4,8,8.4
				c1.8,0,3.6-0.7,5.2-1.6l1,1.8c-1.8,1-4.1,1.9-6.2,1.9c-6,0-10.7-3.9-10.7-10.5c0-6.2,4.7-10.5,10.7-10.5c2.4,0,4.3,0.6,6.3,1.6
				L132.9,33z"/>
			<path id="Fill-17" class="st0" d="M140.5,39.7l9.7-10.3l1.7,1.5l-8.4,8.7l8.5,9.1l-1.8,1.7L140.5,39.7z M138.2,29.8h2.4L140.4,50
				H138L138.2,29.8z"/>
			<path id="Fill-18" class="st0" d="M157.6,38h1.9c3.3,0,4.6-1.4,4.6-3.4c0-2.2-1.3-3.4-4.4-3.4h-2L157.6,38z M157.5,47.5h2.9
				c2.5,0,4.1-1.1,4.1-3.9c0-2.4-1.7-3.7-4.6-3.7h-2.3L157.5,47.5z M155.2,29.4h5.5c4.4,0,5.9,2.6,5.9,4.9c0,2.5-1.2,4-3.5,4.7V39
				c2.5,0.5,4,2.3,4,4.9c0,3.6-2.5,5.5-6.4,5.5H155L155.2,29.4z"/>
			<path id="Fill-19" class="st0" d="M171.6,39.1h2.5c2.5,0,5-0.9,5-3.9c0-2.2-1.2-4.1-4.5-4.1h-3L171.6,39.1z M169.2,29.4h6.1
				c3.8,0,6.4,2,6.4,5.4c0,3.3-2.2,5.3-5.1,5.7v0.1c1.3,0.3,2.5,2.1,3.3,3.2L184,49l-2.2,1.4l-4.8-6.5c-1.3-1.6-1.8-2.8-3.8-2.8
				h-1.6l-0.1,8.7H169L169.2,29.4z"/>
			<polygon id="Fill-20" class="st0" points="187.2,29.4 190,29.4 189.8,49.4 187,49.4 			"/>
			<path id="Fill-21" class="st0" d="M195.5,47.5h2.7c5.7,0,9.4-2.7,9.4-8.2c0-5-3.4-8-8.8-8h-3.1L195.5,47.5z M193.2,29.4h6
				c7.7,0,10.8,4.9,10.8,9.7c0,6.8-5,10.3-11.5,10.3H193L193.2,29.4z"/>
			<path id="Fill-22" class="st0" d="M229,39.6l-0.1,9.3c-2.3,1.1-4.6,1.5-6.4,1.5c-5.8,0-10.5-3.9-10.5-10.5
				c0-6.2,4.6-10.5,10.5-10.5c2.1,0,4.2,0.5,6.1,1.4l-0.9,2c-1.3-0.8-3.2-1.3-5.2-1.3c-4.6,0-7.8,3.7-7.8,8.4c0,4.7,3.3,8.4,7.8,8.4
				c1.4,0,2.9-0.3,4-0.8l0.1-7.8H229z"/>
			<polygon id="Fill-23" class="st0" points="232.2,29.4 242.9,29.4 242.9,31.5 234.7,31.5 234.7,38.3 242.6,38.3 242.6,40.4 
				234.7,40.4 234.6,47.3 243,47.3 243,49.4 232,49.4 			"/>
			<path id="Fill-24" class="st0" d="M160.8,18.1c-1.6-1.3-4.1-3.9-4.8-4.6c-0.7-0.7-2.4-2.7-2.9-3.3c-0.9,0.7-1.8,1.9-1.8,4.1
				c0,3.3,2.4,5.5,5.1,5.5C158.4,19.7,160.2,18.6,160.8,18.1 M152.4,9.1c-1.1-1.5-1.3-2.6-1.4-3.8c0-2.1,1.9-4.9,6.5-4.9
				c1.3,0,2.5,0.3,3.2,0.6c0.5,0.2,0.5,0.4,0.5,0.7c0,0.9-0.2,3-0.3,3.4c-0.1,0.4-0.2,0.5-0.3,0.5c-0.2,0-0.2-0.1-0.2-0.5
				c0-0.7-0.2-1.6-0.8-2.2c-0.5-0.6-1.5-1.2-3-1.2c-1.1,0-2.9,0.8-2.9,3.1c0,2.5,2.3,4.7,4.4,7c0.9,1,4.2,4,4.7,4.5
				c0.5-0.7,1.3-2.5,1.3-4.1c0-0.4-0.1-0.9-0.5-1.2c-0.3-0.3-0.9-0.4-1.3-0.4c-0.2,0-0.3-0.1-0.3-0.2c0-0.2,0.2-0.3,0.4-0.3
				c0.6,0,1.7,0,3.2,0.2c0.5,0.1,0.9,0.2,0.9,0.5c0,2.1-1.1,4.6-2.6,6.4c1.8,1.5,3,2.2,3.7,2.6c0.9,0.5,2.3,0.9,2.9,0.9
				c0.2,0,0.4,0,0.4,0.2c0,0.2-0.2,0.2-0.8,0.2h-2.1c-3.1,0-4-0.3-6.3-2.1c-0.9,0.8-2.7,2.4-6.4,2.4c-5.7,0-7.5-3.6-7.5-5.9
				C148,12.3,150.8,9.9,152.4,9.1"/>
		</g>
	</g>
</g>
</svg>
