<svg version="1" xmlns="http://www.w3.org/2000/svg" width="346.667" height="346.667" viewBox="0 0 260.000000 260.000000"><path d="M7.8 6.3C9.3 9.8 29.2 56.4 52 109.8 74.8 163.3 93.8 207 94.1 207c.4 0 70.7-183.7 78.7-205.8C173.1.3 156 0 89.1 0h-84l2.7 6.3zM192.1 5.2c-5.2 26.2-3.1 67.6 4.5 88.8 6.6 18.7 20.5 35.4 43.4 52.3 7.4 5.5 15 11.3 16.8 13l3.2 3.1V0h-66.9l-1 5.2zM130.2 154.2c-17.7 48.6-32.2 88.6-32.2 89 0 .5 35.1.8 78.1.8h78l-1.9-2.8c-4.1-5.5-14-15-26.7-25.3-14.7-12-24.9-22.4-32.5-33.1-7-9.8-16.2-29-19.9-41.4-4.8-16.6-9-45.5-9.2-63.8 0-4.4-.4-8.9-.7-9.9-.5-1.2-11.4 27.5-33 86.5zM0 180.7V244h51l-1.7-4.3c-.9-2.3-12.4-30.8-25.5-63.2l-23.7-59-.1 63.2z"/></svg>