<?xml version="1.0" encoding="utf-8"?>
<!-- Generator: Adobe Illustrator 23.0.1, SVG Export Plug-In . SVG Version: 6.00 Build 0)  -->
<svg version="1.1" id="Layer_1" xmlns="http://www.w3.org/2000/svg" xmlns:xlink="http://www.w3.org/1999/xlink" x="0px" y="0px"
	 viewBox="0 0 524.6 371.7" style="enable-background:new 0 0 524.6 371.7;" xml:space="preserve">
<style type="text/css">
	.st0{fill:#585858;}
</style>
<g>
	<g>
		<g>
			<path class="st0" d="M459,91.2c-0.3,2.2-0.5,4.5-0.9,6.7c-0.4,2.3-1.9,3.9-4.1,4.3c-2.3,0.4-4.8,0.3-7.2,0.4c0-6.7,0-13,0-19.5
				c1,0,1.9,0,2.9,0c2.4,0,3.2,0.6,3.5,2.9c0.3,2.2,1.6,2.8,3.6,2c0-4,0-8.1,0-12.2c0-1.1-0.2-2-1.5-2.2c-1.3-0.2-2,0.2-2.3,1.7
				c-0.5,2.7-1.4,3.3-4.1,3.3c-0.6,0-1.3,0-2,0c0-5.8,0-11.4,0-17.2c1.5,0,3,0,4.4,0c0.6,0,1.3,0,1.9,0.1c2.5,0.4,3.6,1.5,4,3.9
				c0.2,1.4,0.3,2.9,0.4,4.3c0.2,1.5,1.3,1.6,2.5,1.6c1.4,0,1.1-1,1.1-1.7c0-3.7,0-7.3,0-11c0-0.8-0.4-1.6-0.5-2
				c-12,0-23.4,0-34.8,0c-0.3,2.3,0,3.1,1.1,3.4c2.4,0.8,2.7,1.3,1.8,3.7c-1.2,3.3-2.4,6.6-3.7,9.9c-0.9,2.3-1.7,4.7-2.7,7.4
				c-1.4-3.7-2.7-7-4-10.3c-0.8-2-1.6-4-2.2-6.1c-0.7-2.3,0-3.6,2.2-4.5c0.3-0.2,0.7-0.6,0.8-1c0.3-1.6-0.4-2.4-2.1-2.4
				c-6,0-12,0-18,0c-0.4,0-0.8,0.1-1.2,0.1c-0.3,2.4-0.2,2.8,1.8,3.5c1,0.3,1.4,1,1.3,1.9c-0.1,0.8-0.2,1.5-0.3,2.2
				c-1.1,7.1-2.3,14.2-3.4,21.3c-0.4,2.2-0.8,4.5-1.1,6.7c-1.5-6-2.7-12-3.7-18c-0.9-5.4-1.6-10.9-2.4-16.3
				c-0.1-0.5-0.8-1.3-1.2-1.4c-1.9-0.2-3.7-0.1-5.3-0.1c-1.7,12.1-3.4,23.9-5,35.7c-0.4-0.4-0.6-0.8-0.6-1.2
				c-1.3-5.9-2.6-11.8-3.9-17.7c-0.7-3.3-1.4-6.6-2-10c-0.2-1.4,0.2-2.7,1.7-3.1c1.4-0.4,1.5-1.2,1.3-2.3c-0.2-1.2-1-1.5-2.1-1.4
				c-3.9,0-7.9,0-11.8,0c-0.5,0-0.9,0.1-1.4,0.1c-0.3,2.4-0.2,2.5,1.7,3.5c0.6,0.3,1.1,1.1,1.2,1.7c1,3.7,1.8,7.3,2.7,11
				c2.5,10.7,4.9,21.3,7.4,32c0.2,0.7,0.8,1.9,1.3,2c2.2,0.2,4.5,0.1,6.4,0.1c1.5-9.5,2.9-18.8,4.3-28.1c0.4,0.5,0.5,1,0.6,1.6
				c1.5,8.1,3,16.2,4.5,24.3c0.2,0.8,0.9,2,1.5,2c2.3,0.2,4.7,0.1,6.7,0.1c1.9-15.3,5.2-30.2,7.7-45.1c0.3,0.2,0.4,0.3,0.5,0.5
				c2.8,6.9,5.7,13.8,8.5,20.7c0.5,1.2,1.2,2.4,1.3,3.6c0.1,4.7,0,9.5,0,14.3c0,1.3-0.7,2.2-2,2.4c-1.4,0.2-1.4,1.1-1.3,2.1
				c0.2,1.1,0.9,1.5,2,1.5c2.4-0.1,4.8,0,7.1,0c1.9,0,3.8,0,5.9,0c0.1-1.5,0.4-3-1.3-3.4c-1.8-0.4-2-1.6-2-3c0-3.6-0.1-7.1,0-10.7
				c0.1-1.5,0.3-3.1,0.8-4.5c1.5-4.3,3.2-8.6,4.8-12.9c1.4-3.6,2.7-7.2,4.2-10.7c0.5-1.2,1.4-2.2,2.9-1.8c1.4,0.3,1,1.6,1,2.6
				c0,12.4,0,24.8,0,37.3c0,0.5,0.1,1.1-0.1,1.4c-0.5,0.8-1,1.8-1.7,2.1c-1.4,0.4-1.7,1.2-1.5,2.4c0.2,1.3,1.2,1.4,2.3,1.4
				c7.8,0,15.6,0,23.3,0c0.6,0,1.1,0,1.8,0c0-4.6-0.1-9,0-13.4C462.5,91.1,461.4,90.6,459,91.2z"/>
		</g>
		<g>
			<path class="st0" d="M114.1,56.8c-3.8,0-7.6,0-11.3,0c-0.5,0-0.9,0.1-1,0.1c-1.1,11.6-4.6,22.5-6.8,33.7
				c-0.3-0.4-0.4-0.8-0.5-1.2c-1.4-7.3-2.8-14.5-4.2-21.8c-0.5-2.8-1.1-5.6-1.3-8.5c-0.1-2.1-0.1-2.3-2.3-2.4c-3.4,0-6.8,0-10.2,0
				c-0.9,0-1.8,0-2.7,0c-0.2,1.5-0.3,3,1.2,3.3c2,0.3,2.2,1.5,2.2,3.1c0,12.1,0,24.2,0,36.3c0,0.7,0,1.4-0.2,2.1
				c-0.2,1.3-0.8,2.3-2.2,2.4c-1.5,0.1-2-0.9-2.4-2.2c-2.2-8.1-4.5-16.2-6.8-24.3c-3.3-11.8-6.5-23.6-9.9-35.4
				c-0.2-0.7-1-1.8-1.6-1.9c-2.5-0.2-5-0.1-7.8-0.1c1.3,2.1,1.1,3.9,0.6,5.9c-2.5,9.9-4.9,19.8-7.3,29.7c-1.9,7.6-3.7,15.2-5.6,22.8
				c-0.6,2.5-1.7,4.5-4.3,5.1c-1.4,0.3-1.3,1.3-1.2,2.2c0.1,1.1,0.8,1.5,1.9,1.5c3,0,6,0,9.1,0c1.2,0,2.3,0,3.5,0
				c0.2-1.6,0.3-3-1.5-3.5c-2.7-0.8-3.1-1.5-2.5-4.2c1.1-4.7,2.3-9.4,3.3-14.2c0.2-1,0.7-1.3,1.7-1.3c4.4,0,8.8,0.1,13.1,0
				c1.1,0,1.5,0.4,1.7,1.4c0.9,3.8,1.9,7.7,2.8,11.5c1.2,4.9,0.9,5.5-3.7,7.2c-0.4,2.6,0,3.1,2.5,3.1c7.5,0,14.9,0,22.4,0
				c0.6,0,1.2,0,1.8,0c0.2-1.4,0.5-2.9-1.1-3.3c-2-0.4-2.1-1.6-2.1-3.2c0-10.7,0-21.5,0-32.2c0-0.5,0-1,0.1-1.5
				c0.4,1.1,0.7,2.2,0.9,3.3c2.4,11.7,4.7,23.5,7.1,35.2c0.1,0.6,1,1.5,1.6,1.6c1.6,0.2,3.2,0.1,4.8,0.1c2.7-12.7,5.3-25.2,8-37.8
				c0.3,0.4,0.3,0.7,0.3,1c0,9.6,0,19.2,0,28.8c0,3.4-0.1,3.5-3.2,4.8c-0.1,1.2-0.5,3,1.2,3.1c4.5,0.2,9,0.1,13.6,0.1
				c0.3-1.6,0.4-3-1.3-3.4c-1.5-0.4-1.9-1.4-1.9-2.8c0-2.9,0-5.8,0-8.8c0-9.5,0-18.9,0-28.4c0-2.6,0.3-3,2.7-3.8
				c0.3-0.1,0.6-0.4,0.7-0.7C116.5,57.9,115.7,56.8,114.1,56.8z M43.9,79.3c2-8.9,4-17.8,6-26.6c0.1,0,0.2,0,0.3,0l7,26.6
				C52.8,79.3,48.4,79.3,43.9,79.3z"/>
		</g>
		<g>
			<path class="st0" d="M290.2,56.9c-3.3-0.2-6.5-0.1-9.8-0.1c-0.3,1.5-0.3,3,1.1,3.3c2.1,0.5,2.2,1.8,2.2,3.5c0,8.3,0,16.5,0,24.8
				c0,0.4,0,0.8,0,1.2c-0.5-0.4-0.7-0.8-0.9-1.2c-3.2-8-6.4-16-9.5-24.1c-0.8-2-1.2-4.1-2-6.1c-0.2-0.6-1-1.3-1.5-1.3
				c-4-0.1-8,0-12,0c-0.2,0-0.4,0.2-0.5,0.2c-0.1,1.3-0.2,2.7,1.4,3c1.7,0.3,2.1,1.2,2.1,2.7c0,12.4,0,24.7,0,37.1
				c0,0.9-0.1,1.9-0.5,2.6c-0.4,0.7-1.4,1.3-2.1,1.3c-0.6,0-1.5-0.8-1.8-1.4c-0.7-1.7-1.2-3.6-1.7-5.4c-3.3-12.7-6.6-25.4-9.9-38.1
				c-0.2-0.7-0.8-1.9-1.3-2c-2.3-0.2-4.6-0.1-6.6-0.1c0,1.9,0.3,3.6,0,5.3c-1.4,7.2-3,14.4-4.6,21.5c-1.1,5.3-2.3,10.5-3.5,15.8
				c-0.5,2-1.4,3.7-3.7,4.4c-0.4,0.1-0.8,1.2-0.7,1.8c0.1,0.6,0.8,1.5,1.2,1.5c3.5,0.1,7.1,0.1,10.6,0.1c0.3-1.7,0.3-3.1-1.5-3.5
				c-1.5-0.4-1.8-1.3-1.6-2.6c0.5-2.6,1-5.3,1.6-7.9c0.1-0.4,0.8-0.9,1.2-0.9c2.6-0.1,5.3-0.1,7.9,0c0.4,0,1,0.3,1.1,0.6
				c0.7,2.6,1.3,5.1,1.8,7.7c0.3,1.6-0.5,2.7-2,3.2c-0.4,0.1-0.9,0.8-0.9,1.2c-0.2,1.6,0.5,2.2,2.1,2.2c7.2,0,14.5,0,21.7,0
				c0.4,0,0.8-0.1,1.2-0.1c0.3-2.1,0.1-2.8-1.1-3.2c-2.6-1-2.6-1-2.6-3.9c0-10.8,0-21.6,0-32.4c0-0.5,0.1-1,0.1-1.9
				c0.3,0.7,0.4,0.9,0.5,1.1c4,10.3,8,20.6,12,31c1,2.7,1.6,5.4,2.6,8.1c0.2,0.5,1,1.2,1.6,1.2c2,0.1,4,0.1,6.3,0.1
				c0-0.8,0-1.5,0-2.1c0-13.7,0-27.3,0-41c0-2.5,0.3-3.2,2.4-3.8c1-0.3,1.3-0.9,1-1.6C291.2,58,290.6,56.9,290.2,56.9z M235.7,87.5
				c1.1-5.6,2.2-11.1,3.3-16.5c0.1,0,0.2,0,0.3,0c1.3,5.4,2.7,10.9,4.1,16.5C240.7,87.5,238.3,87.5,235.7,87.5z"/>
		</g>
		<g>
			<path class="st0" d="M364.5,103.6c-0.6-0.3-1.2-1-1.3-1.6c-1.1-3.8-2.2-7.6-3.2-11.4c-2.8-10.6-5.5-21.2-8.3-31.8
				c-0.2-0.7-1-1.8-1.6-1.9c-2.2-0.2-4.4-0.1-6.2-0.1c0,1.8,0.3,3.4,0,4.9c-2.6,12.4-5.3,24.8-8,37.2c-0.3,1.3-0.9,2.5-1.3,3.8
				c-0.2,0-0.3-0.1-0.5-0.1c0-0.5,0-1,0-1.5c0-3.5,0-6.9,0-10.4c0-1.4-0.5-2.1-2-2c-0.5,0-1,0-1.4,0c-0.7,3-1.2,5.8-1.9,8.6
				c-0.6,2.4-2.3,4.1-4.7,4.5c-2.7,0.5-5.4,0.4-8.2,0.6c0-0.8,0-1.3,0-1.7c0-17.9,0-35.7,0-53.6c0-0.5-0.1-1.1,0.1-1.4
				c0.5-0.8,1.2-1.5,2-2.1c0.4-0.3,1.1-0.2,1.7-0.3c0.3-2.3,0-3.1-1.4-3.1c-4.8,0-9.6,0-14.5,0c-0.2,1.4-0.4,3,1,3.2
				c2.4,0.4,2.4,1.9,2.4,3.6c0,17.1,0,34.1,0,51.2c0,0.9,0,1.7,0,2.6c0,1.6-0.7,2.6-2.3,3.1c-0.4,0.1-1,0.8-1,1.3
				c-0.2,1.7,0.4,2.2,2.1,2.2c12,0,24,0,36,0c0.5,0,0.9-0.1,1.4-0.1c0.5-2.4,0.3-2.8-1.7-3.5c-1.2-0.4-1.5-1.2-1.3-2.2
				c0.5-3.1,1.1-6.1,1.7-9.3c3.1,0,6.1,0,9.1,0c0.4,0,1,0.5,1.1,0.9c0.6,2.4,1.3,4.8,1.7,7.2c0.4,1.8-0.2,2.7-2,3.3
				c-1.2,0.4-1.2,1.3-0.9,2c0.2,0.6,1,1.4,1.6,1.4c2,0.2,4,0.1,6,0.1c2.6,0,5.3,0,7.9,0C366.6,104.8,366.5,104.5,364.5,103.6z
				 M342.8,87.5c1.1-5.5,2.2-10.9,3.2-16.3c0.1,0,0.3,0,0.4,0c1.3,5.4,2.7,10.8,4.1,16.4C347.9,87.5,345.5,87.5,342.8,87.5z"/>
		</g>
		<g>
			<path class="st0" d="M194.1,56.8c-3.9,0-7.8,0-11.7,0c-0.5,0-1,0.1-1.5,0.1c-0.3,1.5-0.3,2.9,1.3,3.1c1.8,0.3,2.2,1.2,2.1,2.8
				c-0.1,0.9,0,1.7,0,2.6c0,11.5,0,23,0,34.5c0,2.4-0.8,3.7-2.5,3.9c-1.8,0.3-2.9-0.6-3.7-3c-0.8-2.7-1.7-5.4-2.4-8.1
				c-1.2-4.5-2.3-9-7.2-11.4c10.2-2.7,13.3-14.1,6.1-21.3c-2.6-2.6-6-3.3-9.5-3.4c-4.9-0.1-9.7,0-14.6,0c-0.6,0-1.1,0.1-1.8,0.1
				c-0.1,1.4-0.3,2.9,1.3,3.1c1.9,0.3,2.1,1.4,2.1,3c0,10.6,0,21.2,0,31.7c0,1.9,0,3.9,0,5.8c0,1.5-0.6,2.7-2.2,3
				c-1.3,0.3-1.2,1.2-1.1,2.1c0.1,1,0.7,1.5,1.9,1.5c4,0,8,0,12,0c0.4,0,0.7-0.1,1.1-0.1c0.3-1.4,0.3-2.8-1.2-3.3
				c-1.7-0.5-2-1.5-2-3c0-5.5,0-11,0-16.5c0-0.4,0.1-0.7,0.2-1c3.5-0.3,3.9-0.1,4.8,3.2c1.1,3.9,1.9,7.9,2.9,11.8
				c0.7,3,1.6,5.9,3.8,8.1c0.4,0.4,1,0.8,1.5,0.8c7.4,0.1,14.8,0,22.3,0c0.4-1.6,0.3-3-1.4-3.4c-1.5-0.4-1.9-1.3-1.9-2.6
				c0-1.6,0-3.1,0-4.7c0-10.9,0-21.7,0-32.6c0-2.6,0.3-3,2.7-3.8c0.3-0.1,0.7-0.5,0.7-0.8C196.5,57.7,195.7,56.8,194.1,56.8z
				 M160.5,78.6c0-3.6,0-7.1,0-10.6c0-1.6,0-3.2,0-4.9c0-1.3,0.6-2.2,2-2.1c1,0,2.1,0,3.1,0.1c1.5,0.2,2.6,1.1,3,2.6
				c1,3.4,1.2,6.8,0.1,10.2C167.7,77.5,165.1,79,160.5,78.6z"/>
		</g>
		<g>
			<path class="st0" d="M496.4,104c-1.4-0.6-1.8-1.6-2.2-2.8c-1.2-4-2.4-8-3.7-11.9c-1.1-3.3-2.8-6.1-6.3-7.7
				c1.1-0.3,1.9-0.6,2.7-0.9c3.2-1.2,5.5-3.3,6.4-6.6c2.4-8.5-1.8-17.2-12.4-17.2c-5,0-9.9,0-14.9,0c-0.6,0-1.6-0.4-1.7,0.9
				c-0.1,1.2,0.1,2.3,1.5,2.4c1.6,0.2,2,1.1,2,2.5c0,12.5,0,25.1,0,37.6c0,1.7-0.5,3.1-2.4,3.5c-1.2,0.2-1.1,1.2-0.9,1.9
				c0.2,0.6,0.8,1.5,1.3,1.5c4.5,0.1,9,0.1,13.7,0.1c0.1-1.4,0.4-2.9-1.2-3.3c-1.8-0.5-2-1.6-2-3.1c0-5.5,0-10.9,0-16.4
				c0-0.4,0.1-0.7,0.1-1.1c3.3-0.4,4,0,4.9,2.9c1.2,4.2,2.4,8.4,3.4,12.6c0.7,2.8,1.5,5.4,3.6,7.5c0.4,0.4,0.9,0.8,1.3,0.8
				c2.5,0.1,5,0,7.6,0C497.4,105.9,497.7,104.5,496.4,104z M476.3,78.6c0-5.3,0-10.5,0-15.8c0-1,0.6-1.7,1.7-1.8
				c1.2,0,2.4,0,3.5,0.2c1.4,0.2,2.4,1,2.8,2.4c1,3.5,1.2,7,0.1,10.5C483.3,77.6,480.7,79,476.3,78.6z"/>
		</g>
		<g>
			<path class="st0" d="M143.3,91.2c-0.3,2.3-0.5,4.6-0.9,6.9c-0.5,2.5-2.2,4-4.6,4.4c-2.2,0.3-4.4,0.1-6.7,0.1c0-6.5,0-12.8,0-19.4
				c1,0,1.8,0,2.7,0c2.6,0,3.2,0.5,3.7,3c0.5,2.3,0.9,2.5,3.5,2c0-4.3,0-8.7,0-13.1c0-0.9-0.6-1.5-1.7-1.5c-1.1,0-1.7,0.1-1.9,1.4
				c-0.2,1.7-0.9,3.3-2.9,3.6c-1.1,0.1-2.2,0-3.4,0c0-5.8,0-11.3,0-17c2.2,0,4.4-0.2,6.5,0.1c2.6,0.3,3.6,1.5,4,4.1
				c0.2,1,0.2,1.9,0.3,2.9c0.1,2.7,0.7,3.1,3.5,2.6c0-0.1,0.1-0.3,0.1-0.4c0-4.3,0-8.5,0-12.8c0-0.6-0.5-1.1-0.7-1.7
				c-0.1,0.2-0.1,0.3-0.2,0.5c-8.5,0-17,0-25.4,0c-0.2,2.7-0.1,2.8,2.1,3.6c0.5,0.2,1,0.8,1.2,1.3c0.2,0.8,0.2,1.6,0.2,2.4
				c0,11.4,0,22.9,0,34.3c0,1,0.1,2-0.2,2.9c-0.3,0.9-1,2-1.8,2.2c-1.4,0.4-1.7,1.2-1.4,2.4c0.2,1.3,1.2,1.4,2.3,1.4
				c7.8,0,15.6,0,23.3,0c0.6,0,1.1,0,1.8,0c0-0.7,0.1-1.2,0.1-1.6c0-3.9,0-7.8,0-11.7C146.7,91.1,146.1,90.7,143.3,91.2z"/>
		</g>
		<g>
			<path class="st0" d="M227.3,92.9c-0.1-0.5-0.8-1.2-1.3-1.3c-1.4-0.2-2.9-0.1-4.1-0.1c-0.7,2.9-1.2,5.5-1.9,8
				c-0.6,2.1-2.2,3.5-4.5,3.6c-2.3,0.1-4.3-0.7-5.3-2.9c-0.7-1.3-1.3-2.8-1.6-4.2c-1.8-7.7-1.6-15.5-0.7-23.3c0.3-3.2,1-6.4,2.7-9.3
				c1.5-2.5,3.8-3.3,6.6-2.9c2.6,0.4,3.7,2.1,4.1,4.4c0.5,2.8,0.9,5.6,1.3,8.5c0.3,2,0.6,2.4,2.6,2.4c0.5,0,1-0.1,1.7-0.1
				c0-6,0-11.8,0-17.6c0-0.5-0.4-1.3-0.8-1.4c-0.7-0.2-1.9-0.3-2.1,0.1c-1,1.8-2.2,0.9-3.3,0.4c-4.8-1.9-9.3-1.4-13.5,1.5
				c-3.5,2.4-5.5,5.9-6.8,9.8c-2.4,7.5-2.4,15.1-1.3,22.7c0.7,4.7,2.4,9,5.7,12.6c4.1,4.4,11.2,4.9,15.6,2.8
				C224.4,104.8,228.2,97.5,227.3,92.9z"/>
		</g>
		<g>
			<path class="st0" d="M253.3,30.4c0.1,6,0.1,12.1,0,18.1c0,0.6-0.7,1.3-1.1,1.9c-0.3,0.4-0.9,0.9-0.8,1.1c0.3,0.5,0.8,1.3,1.3,1.4
				c2.6,0.1,5.3,0.1,7.9,0.1c0.5-1.3-0.2-1.9-1-2.5c-0.3-0.3-0.7-0.7-0.7-1.1c-0.1-2.9,0-5.8,0-8.8c2.1,0,4.1,0,6.2,0
				c0,2.8,0.1,5.4-0.1,8.1c0,0.6-0.7,1.1-1.1,1.7c-0.3,0.4-0.8,0.9-0.7,1.1c0.3,0.5,0.8,1.3,1.3,1.3c2.6,0.1,5.3,0.1,7.9,0.1
				c0.1-0.1,0.3-0.3,0.4-0.4c-0.4-0.7-0.9-1.3-1.3-2c-0.3-0.4-0.9-0.9-0.9-1.3c-0.1-6.2-0.1-12.3,0-18.5c0-0.6,0.7-1.1,1.1-1.7
				c0.3-0.4,0.9-0.9,0.8-1.1c-0.2-0.5-0.7-1.3-1.2-1.3c-2.7-0.1-5.5-0.1-8.2-0.1c-0.1,0.2-0.2,0.4-0.4,0.6c0.5,0.6,1,1.2,1.5,1.8
				c0.3,0.3,0.7,0.6,0.7,0.9c0.1,2.5,0,4.9,0,7.4c-2.2,0-4.2,0-6.2,0c0-2.3-0.1-4.4,0.1-6.6c0-0.6,0.7-1.1,1.1-1.6
				c0.3-0.4,0.9-1,0.8-1.2c-0.3-0.5-0.9-1.2-1.4-1.2c-2.6-0.1-5.2-0.1-7.8-0.1c-0.2,0.2-0.3,0.3-0.5,0.5c0.5,0.6,1,1.2,1.5,1.9
				C252.8,29.5,253.3,30,253.3,30.4z"/>
		</g>
		<g>
			<path class="st0" d="M276.8,30.5c0.1,6,0.1,12,0,18c0,0.6-0.5,1.3-0.9,1.9c-0.3,0.5-1.1,1-1,1.5c0.2,0.9,0.9,1.3,1.9,1.2
				c4.4-0.1,8.8,0,13.3,0c0.4,0,0.8-0.1,1.4-0.1c0-2.3,0.1-4.6,0-6.9c-0.1-1.3-1-1.7-2.3-1.3c-0.9,4.6-2.6,5.9-6.9,4.9
				c0-2.9,0-5.9,0-9c1.6-0.1,3.2-0.5,3.6,1.6c0.1,0.3,0.5,0.8,0.7,0.8c0.5,0,1.4-0.3,1.4-0.5c0.1-2,0.1-4.1,0-6.1
				c0-0.5-0.8-1-1.3-1.3c-0.1-0.1-0.9,0.4-1,0.7c-0.5,1.8-1.8,1.9-3.3,1.6c0-2.6,0-5,0-7.6c0.8,0,1.5,0,2.2,0c2.6,0,2.9,0.3,3.8,2.7
				c0.4,1,1.1,1.7,2.4,1c0-1.8,0.1-3.7-0.1-5.5c0-0.5-0.8-1.3-1.3-1.4c-4.3-0.1-8.5,0-12.8,0.1c-0.6,0-1.1,0.1-2.3,0.1
				c0.7,1,1.2,1.6,1.6,2.2C276.2,29.5,276.8,30,276.8,30.5z"/>
		</g>
		<g>
			<path class="st0" d="M234.3,34.8c0.2-2.2,0.4-4.6,3.4-4.9c0.1,0.2,0.2,0.3,0.2,0.3c0,6.2,0,12.4,0,18.6c0,0.5-0.7,1.1-1.1,1.6
				c-0.3,0.4-0.9,1-0.8,1.2c0.3,0.5,0.9,1.2,1.4,1.3c2.6,0.1,5.2,0.1,8.3,0.1c-0.6-1-0.8-2-1.4-2.3c-1-0.5-1-1.2-1-2.1
				c0-5.8,0-11.5,0-17.3c0-0.5,0.1-0.9,0.1-1.4c2.4-0.1,3.1,0.5,3.4,2.8c0.3,2,0.7,2.3,2.6,2.1c0-2.3,0.1-4.6-0.1-6.9
				c0-0.5-0.9-1.3-1.3-1.3c-5.3-0.1-10.6-0.1-16.1-0.1c0,2.3-0.1,4.6,0,6.8C232,34.6,232.8,35.2,234.3,34.8z"/>
		</g>
	</g>
	<g>
		<path class="st0" d="M156,126.9c4.1,0,7.5,1.3,10.1,3.9c2.7,2.6,4,6,4,10.1v5.6c0,4.1-1.3,7.5-4,10.1s-6,3.9-10.1,3.9h-15.1v-4
			l3.6-0.7v-24.1l-3.6-0.7v-4.1h3.6H156z M151.2,132.1v23.2h4.4c2.4,0,4.3-0.8,5.7-2.4c1.4-1.6,2.1-3.8,2.1-6.4v-5.6
			c0-2.6-0.7-4.7-2.1-6.3s-3.3-2.4-5.7-2.4H151.2z"/>
		<path class="st0" d="M177.1,131v-4.1H191v4.1l-3.6,0.7v24.1l3.6,0.7v4h-13.9v-4l3.6-0.7v-24.1L177.1,131z"/>
		<path class="st0" d="M209.1,131l-2.6,0.5l5.9,20.1l0.4,1.8h0.1l0.4-1.8l6-20.2l-2.5-0.5v-4.1h12.3v4.1l-2.8,0.4l-9.9,29.1h-6.9
			l-9.9-29.1l-2.8-0.4v-4.1h12.3V131z"/>
		<path class="st0" d="M256.7,145.7h-11.4v9.6h10.8l0.3-4h5.1v9.2H235v-4l3.6-0.7v-24.1L235,131v-4.1h3.6h22.9v9.2h-5.2l-0.3-4
			h-10.7v8.4h11.4V145.7z"/>
		<path class="st0" d="M284,126.9c3.8,0,6.8,0.9,9,2.6c2.2,1.7,3.2,4.2,3.2,7.2c0,1.7-0.5,3.2-1.4,4.4c-0.9,1.2-2.2,2.3-4,3
			c2,0.6,3.4,1.6,4.3,2.9c0.9,1.4,1.3,3,1.3,5.1v1.7c0,0.7,0.1,1.3,0.4,1.7s0.8,0.6,1.5,0.7l0.8,0.1v4.1h-3.5
			c-2.2,0-3.7-0.6-4.6-1.8c-0.9-1.2-1.3-2.7-1.3-4.6v-1.9c0-1.6-0.4-2.9-1.3-3.8s-2.1-1.4-3.7-1.5h-5.5v8.9l3.6,0.7v4h-13.9v-4
			l3.6-0.7v-24.1l-3.6-0.7v-4.1h3.6H284z M279.2,141.7h4.7c1.9,0,3.3-0.4,4.2-1.2c0.9-0.8,1.4-2,1.4-3.5s-0.5-2.7-1.4-3.6
			c-0.9-0.9-2.3-1.3-4.1-1.3h-4.8V141.7z"/>
		<path class="st0" d="M330.6,137.6h-5l-0.9-4.6c-0.6-0.4-1.4-0.7-2.6-1c-1.1-0.3-2.3-0.4-3.6-0.4c-1.8,0-3.3,0.4-4.3,1.2
			c-1,0.8-1.5,1.8-1.5,3c0,1.1,0.5,2.1,1.6,2.8c1.1,0.7,2.9,1.5,5.5,2.3c3.7,1,6.5,2.4,8.4,4.1s2.9,3.9,2.9,6.7
			c0,2.9-1.1,5.1-3.4,6.8c-2.3,1.7-5.3,2.5-9,2.5c-2.7,0-5.1-0.4-7.2-1.3c-2.1-0.8-3.9-2-5.4-3.5v-7h5.2l0.7,4.8
			c0.7,0.6,1.6,1,2.8,1.4s2.5,0.5,3.9,0.5c1.8,0,3.2-0.4,4.2-1.1c1-0.8,1.4-1.8,1.4-3c0-1.3-0.5-2.3-1.4-3.1
			c-0.9-0.8-2.5-1.5-4.8-2.2c-4-1.2-7-2.5-9-4.1c-2-1.6-3.1-3.7-3.1-6.5c0-2.7,1.2-4.9,3.5-6.7s5.2-2.6,8.7-2.7
			c2.6,0,4.9,0.4,7.1,1.2c2.1,0.8,3.9,1.8,5.3,3.1V137.6z"/>
		<path class="st0" d="M337.5,131v-4.1h13.9v4.1l-3.6,0.7v24.1l3.6,0.7v4h-13.9v-4l3.6-0.7v-24.1L337.5,131z"/>
		<path class="st0" d="M388.2,126.9v8.9h-5.2l-0.3-3.8h-6.2v23.6l3.6,0.7v4h-13.9v-4l3.6-0.7v-23.6h-6.2l-0.3,3.8h-5.1v-8.9H388.2z"
			/>
		<path class="st0" d="M404.6,131l-2.7,0.4l5.2,11h0.1l5.2-11l-2.7-0.4v-4.1h12.7v4.1l-2.9,0.5l-9.1,17.2v7.1l3.6,0.7v4h-13.9v-4
			l3.6-0.7v-7.4l-9-16.9l-2.8-0.5v-4.1h12.7V131z"/>
		<path class="st0" d="M164.3,193.6h-4.7l-0.8-4.3c-0.5-0.3-1.3-0.6-2.4-0.9c-1-0.3-2.1-0.4-3.3-0.4c-1.7,0-3,0.4-4,1.1
			c-0.9,0.7-1.4,1.6-1.4,2.8c0,1.1,0.5,1.9,1.5,2.6c1,0.7,2.7,1.4,5,2.1c3.4,1,6,2.2,7.8,3.8s2.7,3.6,2.7,6.2c0,2.7-1.1,4.8-3.2,6.3
			s-4.9,2.3-8.3,2.3c-2.5,0-4.7-0.4-6.7-1.2c-2-0.8-3.6-1.9-5-3.2v-6.5h4.8l0.7,4.4c0.6,0.5,1.5,0.9,2.5,1.3s2.3,0.5,3.6,0.5
			c1.7,0,3-0.3,3.9-1c0.9-0.7,1.3-1.6,1.3-2.8c0-1.2-0.4-2.2-1.3-2.9c-0.8-0.7-2.3-1.4-4.4-2c-3.7-1.1-6.5-2.3-8.4-3.8
			s-2.8-3.5-2.8-6c0-2.5,1.1-4.6,3.2-6.2c2.1-1.6,4.8-2.4,8-2.5c2.4,0,4.6,0.4,6.5,1.1c2,0.7,3.6,1.7,4.9,2.9V193.6z"/>
		<path class="st0" d="M191.8,194.2h-4.6l-0.6-4.1c-0.6-0.6-1.4-1.1-2.3-1.5c-0.9-0.4-2-0.5-3.3-0.5c-2.7,0-4.8,1-6.2,2.9
			c-1.5,2-2.2,4.5-2.2,7.7v1.1c0,3.2,0.7,5.7,2.2,7.7c1.5,2,3.5,3,6.1,3c1.2,0,2.3-0.2,3.4-0.5c1-0.4,1.8-0.8,2.4-1.4l0.6-4.1h4.6
			v6.1c-1.3,1.5-2.8,2.6-4.8,3.5c-1.9,0.9-4.1,1.3-6.5,1.3c-4.2,0-7.6-1.4-10.2-4.3c-2.7-2.9-4-6.6-4-11.1v-1c0-4.5,1.3-8.2,4-11.1
			s6.1-4.3,10.3-4.3c2.4,0,4.6,0.4,6.5,1.3c1.9,0.9,3.5,2,4.8,3.5V194.2z"/>
		<path class="st0" d="M222.2,199.5c0,4.5-1.3,8.3-3.9,11.3c-2.6,3-6,4.5-10.2,4.5c-4.2,0-7.6-1.5-10.2-4.5c-2.6-3-3.9-6.7-3.9-11.3
			V199c0-4.5,1.3-8.3,3.9-11.3c2.6-3,6-4.5,10.1-4.5c4.2,0,7.6,1.5,10.2,4.5c2.6,3,3.9,6.7,3.9,11.3V199.5z M216,199
			c0-3.2-0.7-5.8-2-7.8c-1.3-2-3.3-3-5.9-3s-4.6,1-5.9,3c-1.3,2-1.9,4.6-1.9,7.8v0.5c0,3.3,0.7,5.9,2,7.9c1.3,2,3.3,3,5.9,3
			c2.6,0,4.6-1,5.9-3c1.3-2,2-4.6,2-7.9V199z"/>
		<path class="st0" d="M237.7,183.7c3.5,0,6.3,0.8,8.3,2.4c2,1.6,3,3.8,3,6.7c0,1.6-0.4,2.9-1.3,4.1c-0.8,1.2-2.1,2.1-3.7,2.8
			c1.8,0.5,3.2,1.4,4,2.7c0.8,1.3,1.2,2.8,1.2,4.7v1.6c0,0.7,0.1,1.2,0.4,1.6c0.3,0.4,0.7,0.6,1.3,0.7l0.8,0.1v3.8h-3.2
			c-2,0-3.5-0.5-4.3-1.6s-1.2-2.5-1.2-4.2v-1.8c0-1.5-0.4-2.7-1.2-3.5c-0.8-0.9-1.9-1.3-3.4-1.4h-5.1v8.2l3.3,0.6v3.7h-12.9V211
			l3.3-0.6v-22.3l-3.3-0.6v-3.8h3.3H237.7z M233.3,197.4h4.3c1.7,0,3-0.4,3.9-1.1c0.9-0.7,1.3-1.8,1.3-3.2c0-1.4-0.4-2.5-1.3-3.3
			c-0.9-0.8-2.1-1.2-3.8-1.2h-4.4V197.4z"/>
		<path class="st0" d="M273,201.1h-10.5v8.9h10l0.3-3.7h4.7v8.5h-24.6V211l3.3-0.6v-22.3l-3.3-0.6v-3.8h3.3h21.2v8.5h-4.8l-0.3-3.7
			h-9.9v7.8H273V201.1z"/>
		<path class="st0" d="M296.4,183.7c3.7,0,6.5,0.7,8.5,2.1c2,1.4,3.1,3.5,3.1,6.4c0,1.4-0.4,2.7-1.1,3.8c-0.8,1.1-1.9,2-3.3,2.5
			c1.9,0.4,3.3,1.3,4.2,2.6c0.9,1.3,1.4,2.8,1.4,4.5c0,3-1,5.2-2.9,6.7c-2,1.5-4.7,2.3-8.3,2.3h-15.3V211l3.3-0.6v-22.3l-3.3-0.6
			v-3.8h3.3H296.4z M292.1,196.7h4.5c1.7,0,2.9-0.3,3.8-1c0.9-0.7,1.3-1.7,1.3-3c0-1.4-0.5-2.5-1.4-3.2c-0.9-0.7-2.2-1-4-1h-4.3
			V196.7z M292.1,201v9h5.7c1.6,0,2.9-0.4,3.8-1.1c0.9-0.7,1.3-1.8,1.3-3.2c0-1.5-0.4-2.7-1.1-3.5s-1.9-1.2-3.5-1.2H292.1z"/>
		<path class="st0" d="M338.9,199.5c0,4.5-1.3,8.3-3.9,11.3c-2.6,3-6,4.5-10.2,4.5c-4.2,0-7.6-1.5-10.2-4.5c-2.6-3-3.9-6.7-3.9-11.3
			V199c0-4.5,1.3-8.3,3.9-11.3c2.6-3,6-4.5,10.1-4.5c4.2,0,7.6,1.5,10.2,4.5c2.6,3,3.9,6.7,3.9,11.3V199.5z M332.7,199
			c0-3.2-0.7-5.8-2-7.8c-1.3-2-3.3-3-5.9-3s-4.6,1-5.9,3c-1.3,2-1.9,4.6-1.9,7.8v0.5c0,3.3,0.7,5.9,2,7.9c1.3,2,3.3,3,5.9,3
			c2.6,0,4.6-1,5.9-3c1.3-2,2-4.6,2-7.9V199z"/>
		<path class="st0" d="M339,211l2.2-0.3l9.4-27h6.4l9.4,27l2.2,0.3v3.7H358V211l2.2-0.4l-1.4-4.3h-10.1l-1.4,4.3l2.2,0.4v3.7H339
			V211z M350.2,201.8h7.1l-3.5-10.9h-0.1L350.2,201.8z"/>
		<path class="st0" d="M383.7,183.7c3.5,0,6.3,0.8,8.3,2.4c2,1.6,3,3.8,3,6.7c0,1.6-0.4,2.9-1.3,4.1c-0.8,1.2-2.1,2.1-3.7,2.8
			c1.8,0.5,3.2,1.4,4,2.7c0.8,1.3,1.2,2.8,1.2,4.7v1.6c0,0.7,0.1,1.2,0.4,1.6c0.3,0.4,0.7,0.6,1.3,0.7l0.8,0.1v3.8h-3.2
			c-2,0-3.5-0.5-4.3-1.6s-1.2-2.5-1.2-4.2v-1.8c0-1.5-0.4-2.7-1.2-3.5c-0.8-0.9-1.9-1.3-3.4-1.4h-5.1v8.2l3.3,0.6v3.7h-12.9V211
			l3.3-0.6v-22.3l-3.3-0.6v-3.8h3.3H383.7z M379.3,197.4h4.3c1.7,0,3-0.4,3.9-1.1c0.9-0.7,1.3-1.8,1.3-3.2c0-1.4-0.4-2.5-1.3-3.3
			c-0.9-0.8-2.1-1.2-3.8-1.2h-4.4V197.4z"/>
		<path class="st0" d="M414.6,183.7c3.8,0,6.9,1.2,9.4,3.6c2.5,2.4,3.7,5.5,3.7,9.3v5.1c0,3.8-1.2,6.9-3.7,9.3
			c-2.5,2.4-5.6,3.6-9.4,3.6h-14V211l3.3-0.6v-22.3l-3.3-0.6v-3.8h3.3H414.6z M410.2,188.5V210h4.1c2.2,0,4-0.8,5.2-2.3
			c1.3-1.5,1.9-3.5,1.9-5.9v-5.2c0-2.4-0.6-4.4-1.9-5.9c-1.3-1.5-3-2.3-5.2-2.3H410.2z"/>
	</g>
	<g>
		<path class="st0" d="M36.8,239l3.9,10.8h1.6v1.8h-5.6v-1.8h1.9l-1.1-3.3h-5.2l-1.1,3.3h1.8v1.8h-5.7v-1.8h1.7l3.9-10.8h-1.7v-1.7
			h7.4v1.7H36.8z M34.8,239L34.8,239l-2.1,5.9h4.1L34.8,239z"/>
		<path class="st0" d="M67.8,242.5v-3.5h-3v10.8h1.9v1.8h-5.9v-1.8h1.8v-10.8h-2.9v3.5H58v-5.2h11.6v5.2H67.8z"/>
		<path class="st0" d="M90.7,244.4c0,1.5-0.3,2.8-1,3.9c-0.6,1.1-1.5,2-2.7,2.6c-1.1,0.6-2.4,0.9-3.9,0.9c-1.4,0-2.7-0.3-3.8-1
			c-1.1-0.6-2-1.5-2.6-2.7c-0.6-1.1-0.9-2.4-0.9-3.8c0-1.4,0.3-2.7,0.9-3.8c0.6-1.1,1.5-2,2.6-2.6c1.1-0.6,2.4-0.9,3.8-0.9
			c1.5,0,2.8,0.3,3.9,1s2,1.5,2.6,2.6C90.4,241.8,90.7,243,90.7,244.4z M83.3,249.9c1,0,1.9-0.3,2.6-0.8s1.4-1.2,1.8-2
			c0.4-0.8,0.6-1.8,0.6-2.7c0-1-0.2-1.9-0.7-2.7c-0.4-0.8-1.1-1.5-1.8-2c-0.8-0.5-1.7-0.7-2.7-0.7c-1,0-1.8,0.2-2.6,0.7
			c-0.7,0.5-1.3,1.1-1.7,2c-0.4,0.8-0.6,1.8-0.6,2.8c0,1.1,0.2,2,0.6,2.9c0.4,0.8,1,1.5,1.8,2C81.4,249.7,82.3,249.9,83.3,249.9z"/>
		<path class="st0" d="M107.9,241.7c0,1.3-0.4,2.4-1.2,3.2s-2.2,1.2-4.1,1.2h-1.9v3.7h1.9v1.8h-5.8v-1.8h1.8v-10.8h-1.8v-1.8h5.3
			c1.4,0,2.6,0.2,3.4,0.5c0.8,0.3,1.5,0.8,1.8,1.4C107.7,239.8,107.9,240.6,107.9,241.7z M105.7,241.6c0-0.9-0.3-1.5-0.8-2
			c-0.5-0.4-1.4-0.6-2.7-0.6h-1.5v5.3h1.3c0.9,0,1.6-0.1,2.1-0.2c0.5-0.2,0.9-0.4,1.2-0.8C105.6,242.9,105.7,242.4,105.7,241.6z"/>
		<path class="st0" d="M132.9,241.5v-2.4h-5.4v4.2h4.6v1.8h-4.6v4.7h1.8v1.8h-5.8v-1.8h1.8v-10.8h-1.8v-1.8h11.1v4.2H132.9z"/>
		<path class="st0" d="M144.2,239.1v10.8h1.6v1.8h-5.3v-1.8h1.5v-10.8h-1.5v-1.8h5.3v1.8H144.2z"/>
		<path class="st0" d="M162.5,241c0,0.9-0.3,1.7-0.8,2.3c-0.5,0.6-1.2,1.1-2.2,1.3l2.5,5.2h1.8v1.8h-3.2l-3.2-6.7h-2v4.9h1.8v1.8
			h-5.9v-1.8h1.9v-10.8h-1.9v-1.8h6c1.8,0,3.2,0.3,4,0.9C162.1,238.8,162.5,239.7,162.5,241z M160.2,241c0-0.7-0.2-1.2-0.6-1.5
			c-0.4-0.3-1.1-0.5-2-0.5h-2.2v4.1h2.1c0.9,0,1.6-0.2,2.1-0.5S160.2,241.8,160.2,241z"/>
		<path class="st0" d="M181.8,237.3h5v1.8h-1.7v10.8h1.7v1.8h-5.4v-1.8h1.7v-10.8l-4.9,12.7h-0.4l-4.9-12.7v10.8h1.6v1.8h-5.1v-1.8
			h1.7v-10.8h-1.7v-1.8h4.9l3.8,9.8L181.8,237.3z"/>
		<path class="st0" d="M211.8,241.5v-2.4h-5.4v4.2h4.6v1.8h-4.6v4.7h1.8v1.8h-5.8v-1.8h1.8v-10.8h-1.8v-1.8h11.1v4.2H211.8z"/>
		<path class="st0" d="M234.6,244.4c0,1.5-0.3,2.8-1,3.9s-1.5,2-2.7,2.6s-2.4,0.9-3.9,0.9c-1.4,0-2.7-0.3-3.8-1
			c-1.1-0.6-2-1.5-2.6-2.7c-0.6-1.1-0.9-2.4-0.9-3.8c0-1.4,0.3-2.7,0.9-3.8c0.6-1.1,1.5-2,2.6-2.6c1.1-0.6,2.4-0.9,3.8-0.9
			c1.5,0,2.8,0.3,3.9,1c1.1,0.6,2,1.5,2.6,2.6C234.2,241.8,234.6,243,234.6,244.4z M227.1,249.9c1,0,1.9-0.3,2.6-0.8s1.4-1.2,1.8-2
			c0.4-0.8,0.6-1.8,0.6-2.7c0-1-0.2-1.9-0.7-2.7c-0.4-0.8-1.1-1.5-1.8-2c-0.8-0.5-1.7-0.7-2.7-0.7c-1,0-1.8,0.2-2.6,0.7
			c-0.7,0.5-1.3,1.1-1.7,2c-0.4,0.8-0.6,1.8-0.6,2.8c0,1.1,0.2,2,0.6,2.9c0.4,0.8,1,1.5,1.8,2C225.2,249.7,226.1,249.9,227.1,249.9z
			"/>
		<path class="st0" d="M251.6,241c0,0.9-0.3,1.7-0.8,2.3c-0.5,0.6-1.2,1.1-2.2,1.3l2.5,5.2h1.8v1.8h-3.2l-3.2-6.7h-2v4.9h1.8v1.8
			h-5.9v-1.8h1.9v-10.8h-1.9v-1.8h6c1.8,0,3.2,0.3,4,0.9C251.2,238.8,251.6,239.7,251.6,241z M249.4,241c0-0.7-0.2-1.2-0.6-1.5
			c-0.4-0.3-1.1-0.5-2-0.5h-2.2v4.1h2.1c0.9,0,1.6-0.2,2.1-0.5S249.4,241.8,249.4,241z"/>
		<path class="st0" d="M282.3,244.2c0,2.5-0.7,4.3-2.2,5.5c-1.5,1.2-3.7,1.8-6.6,1.8h-5.4v-1.8h1.9v-10.8h-1.9v-1.8h5.4
			c2.9,0,5.1,0.6,6.6,1.7C281.6,240,282.3,241.8,282.3,244.2z M280,244.3c0-1.2-0.2-2.2-0.6-3s-1.1-1.3-2-1.7
			c-0.9-0.4-2.2-0.6-3.7-0.6h-1.4v10.8h1.4c2.2,0,3.8-0.4,4.8-1.3C279.5,247.6,280,246.2,280,244.3z"/>
		<path class="st0" d="M292.4,239.1v10.8h1.6v1.8h-5.3v-1.8h1.5v-10.8h-1.5v-1.8h5.3v1.8H292.4z"/>
		<path class="st0" d="M303.7,239.1l3.7,9.7l3.5-9.7h-1.7v-1.8h5.5v1.8H313l-4.7,12.7h-2l-4.8-12.7h-1.8v-1.8h5.6v1.8H303.7z"/>
		<path class="st0" d="M330.4,241.5v-2.4h-6.1v4.3h5.3v1.8h-5.3v4.7h6.1v-2.6h1.8v4.4h-11.9v-1.8h1.8v-10.8h-1.8v-1.8h11.9v4.2
			H330.4z"/>
		<path class="st0" d="M349,241c0,0.9-0.3,1.7-0.8,2.3c-0.5,0.6-1.2,1.1-2.2,1.3l2.5,5.2h1.8v1.8h-3.2l-3.2-6.7h-2v4.9h1.8v1.8h-5.9
			v-1.8h1.9v-10.8h-1.9v-1.8h6c1.8,0,3.2,0.3,4,0.9C348.6,238.8,349,239.7,349,241z M346.7,241c0-0.7-0.2-1.2-0.6-1.5
			c-0.4-0.3-1.1-0.5-2-0.5h-2.2v4.1h2.1c0.9,0,1.6-0.2,2.1-0.5S346.7,241.8,346.7,241z"/>
		<path class="st0" d="M359.6,239.1v10.8h1.6v1.8h-5.3v-1.8h1.5v-10.8h-1.5v-1.8h5.3v1.8H359.6z"/>
		<path class="st0" d="M374.6,238.2v-1h1.7v4.3h-1.7v-1c-0.7-1.1-1.8-1.7-3-1.7c-0.8,0-1.4,0.2-1.8,0.5c-0.4,0.3-0.6,0.8-0.6,1.4
			c0,0.6,0.2,1,0.6,1.3s1,0.6,1.8,0.8l1.7,0.4c1.1,0.3,1.9,0.7,2.5,1.1c0.6,0.5,0.9,1,1.1,1.5c0.2,0.5,0.3,1.1,0.3,1.8
			c0,1.3-0.4,2.3-1.2,3.1c-0.8,0.8-1.9,1.1-3.3,1.1c-1.3,0-2.5-0.5-3.5-1.4v1.2h-1.8v-5.2h1.8v1.3c0.9,1.6,2,2.4,3.3,2.4
			c0.8,0,1.4-0.2,1.9-0.6c0.4-0.4,0.7-1,0.7-1.8c0-1-0.7-1.7-2.2-2.1L371,245c-1.3-0.4-2.2-0.9-2.9-1.5c-0.6-0.6-0.9-1.5-0.9-2.5
			c0-1.3,0.4-2.2,1.1-2.9c0.7-0.7,1.8-1,3.1-1C372.5,237,373.6,237.4,374.6,238.2z"/>
		<path class="st0" d="M386.8,239.1v10.8h1.6v1.8h-5.3v-1.8h1.5v-10.8h-1.5v-1.8h5.3v1.8H386.8z"/>
		<path class="st0" d="M404.2,242.5v-3.5h-3v10.8h1.9v1.8h-5.9v-1.8h1.8v-10.8h-2.9v3.5h-1.8v-5.2H406v5.2H404.2z"/>
		<path class="st0" d="M415.9,239.1l3.1,4.4l2.9-4.4h-1.8v-1.8h5.7v1.8H424l-4,6v4.7h2v1.8h-6.1v-1.8h1.9v-4.7l-4.3-6h-1.8v-1.8h5.9
			v1.8H415.9z"/>
	</g>
	<g>
		<path class="st0" d="M486.5,153.1c-2.4,0-4.5-0.6-6.3-1.8s-3.8-3.4-6.1-6.5l-2-2.7c-1.7-2.2-3.1-4-4.1-5.2
			c-1.1-1.2-2.2-2.3-3.5-3.1c-1.3-0.9-2.7-1.5-4.3-1.8v16l9.9,0.3v5.1l-15.2-0.3v-27.2c3.5,0,6.5,0.6,9,1.8c2.5,1.2,4.7,2.5,6.3,4.1
			c1.7,1.6,3.3,3.5,5,5.8l3.2,4.2c1.4,1.9,2.7,3.3,3.9,4.1c1.2,0.8,2.5,1.2,4,1.2c2.1,0,3.8-0.6,5-1.8c1.2-1.2,1.8-2.9,1.8-5.1
			c0-2.8-0.8-4.7-2.5-5.8s-4.2-1.6-7.6-1.6h-1.4v-5.6h1.6c4.5,0,8.1,1,10.6,3c1.5,1.2,2.6,2.6,3.2,4.3s1,3.6,1,6
			c0,2.9-0.5,5.3-1.6,7.2c-1.1,1.9-2.5,3.4-4.2,4.3C490.4,152.6,488.5,153.1,486.5,153.1z"/>
		<path class="st0" d="M476,188.7c-4.6,0-8.6-0.6-11.9-1.8s-5.8-2.9-7.5-5.1c-1.7-2.2-2.6-4.8-2.6-7.8c0-4.8,2-8.4,5.9-11
			c4-2.5,9.3-3.8,16-3.8c4.6,0,8.6,0.6,11.9,1.8s5.8,2.9,7.5,5.1s2.6,4.9,2.6,7.9c0,4.7-2,8.3-5.9,10.9
			C488.2,187.4,482.8,188.7,476,188.7z M459.1,174c0,2.8,1.3,4.9,4,6.3c2.6,1.4,7,2.2,13.2,2.2c6.1,0,10.5-0.7,13-2.2
			c2.5-1.5,3.8-3.6,3.8-6.3c0-2.9-1.4-5.1-4.3-6.5c-2.9-1.4-7.1-2-12.8-2c-5.9,0-10.3,0.7-12.9,2.1S459.1,171.2,459.1,174z"/>
		<path class="st0" d="M460,216.9h-5.2v-17.2h5.2v5.8h32.2v-5.8h5.1v11.7H460V216.9z"/>
		<path class="st0" d="M486.9,254.8c-4.1,0-7.4-2.1-9.9-6.3c-2,5.1-5.5,7.6-10.5,7.6c-2.5,0-4.7-0.6-6.6-1.8s-3.3-2.9-4.3-5.1
			c-1-2.2-1.5-4.8-1.5-7.8c0-4.4,1-8.1,3.1-10.9c2.1-2.8,5.2-4.2,9.4-4.2c5,0,8.5,2.5,10.5,7.6c2.4-4.2,5.7-6.2,9.9-6.2
			c2.4,0,4.4,0.6,6.1,1.8c1.7,1.2,2.9,2.8,3.8,4.8c0.8,2,1.2,4.2,1.2,6.6c0,4.2-1,7.6-3,10.1S490.3,254.8,486.9,254.8z M459.1,241.3
			c0,2.5,0.7,4.5,2.1,6.2s3.3,2.5,5.6,2.5c2.3,0,4.2-0.7,5.6-2.2s2.1-3.7,2.1-6.6c0-2.5-0.7-4.6-2.1-6.2s-3.3-2.3-5.6-2.3
			s-4.2,0.8-5.6,2.4C459.8,236.6,459.1,238.7,459.1,241.3z M479.4,241.4c0,2,0.5,3.8,1.6,5.3c1.1,1.5,2.8,2.3,5.2,2.3
			c2.3,0,4-0.7,5.1-2c1.1-1.3,1.7-3.3,1.7-6c0-2.4-0.6-4.3-1.8-5.6c-1.2-1.3-2.8-2-4.9-2c-2.2,0-3.9,0.7-5.1,2.1
			C480,237,479.4,238.9,479.4,241.4z"/>
	</g>
	<g>
		<g>
			<path class="st0" d="M459.1,314.5h-3.9v7.6h3.9c1.3,0,2.3-0.4,2.9-1.1c0.7-0.7,1-1.6,1-2.7c0-1.1-0.3-2-1-2.7
				C461.4,314.9,460.4,314.5,459.1,314.5z"/>
		</g>
		<g>
			<path class="st0" d="M375.4,314.5h-3.1v16h3.1c1.7,0,3-0.6,3.9-1.7c0.9-1.1,1.4-2.6,1.4-4.4v-3.9c0-1.8-0.5-3.2-1.4-4.4
				C378.4,315.1,377.1,314.5,375.4,314.5z"/>
		</g>
		<g>
			<path class="st0" d="M153.7,324.6c-0.5,0.5-0.9,1-1.1,1.5c-0.2,0.5-0.3,1-0.3,1.5c0,0.9,0.3,1.7,0.9,2.3c0.6,0.6,1.3,0.9,2.3,0.9
				c0.6,0,1.1-0.1,1.7-0.2c0.6-0.1,1.1-0.4,1.6-0.6l-4.8-5.5L153.7,324.6z"/>
		</g>
		<g>
			<path class="st0" d="M315.7,319.8c0.7-0.5,1-1.2,1-2.2c0-1.1-0.3-1.9-1-2.4c-0.7-0.5-1.7-0.8-3-0.8h-3.2v6.1h3.3
				C314.1,320.6,315,320.3,315.7,319.8z"/>
		</g>
		<g>
			<path class="st0" d="M238.1,314.2c-1.9,0-3.4,0.7-4.3,2.2c-1,1.5-1.4,3.4-1.4,5.8v0.4c0,2.4,0.5,4.4,1.5,5.9
				c1,1.5,2.4,2.2,4.3,2.2c2,0,3.4-0.7,4.4-2.2c1-1.5,1.5-3.4,1.5-5.9v-0.4c0-2.4-0.5-4.3-1.5-5.8C241.5,315,240,314.2,238.1,314.2z
				"/>
		</g>
		<g>
			<path class="st0" d="M155.2,319.6l1.4-0.9c0.6-0.4,1-0.8,1.2-1.2c0.2-0.4,0.3-0.8,0.3-1.3c0-0.5-0.2-1-0.6-1.4
				c-0.4-0.4-0.9-0.6-1.5-0.6c-0.7,0-1.2,0.2-1.6,0.7c-0.4,0.5-0.6,1-0.6,1.7c0,0.5,0.1,0.9,0.3,1.4
				C154.4,318.5,154.7,319,155.2,319.6z"/>
		</g>
		<g>
			<path class="st0" d="M314.1,323.8h-4.6v6.7h4.3c1.2,0,2.2-0.3,2.8-0.8c0.6-0.5,1-1.3,1-2.4c0-1.1-0.3-2-0.8-2.6
				C316.2,324.1,315.3,323.8,314.1,323.8z"/>
		</g>
		<g>
			<path class="st0" d="M0,0v371.7h524.6V0H0z M51.9,313.7l-2.5,0.5v16.6l2.5,0.5v2.8h-9.6v-2.8l2.5-0.5v-3.6l0.4-10.2l-0.1,0
				L39,334h-3.1l-6.1-17l-0.1,0l0.4,10.1v3.6l2.5,0.5v2.8H23v-2.8l2.5-0.5v-16.6l-2.5-0.5v-2.8h2.5h6l5.9,17h0.1l5.9-17h8.5V313.7z
				 M65.7,313.7l-2.5,0.5v16.6l2.5,0.5v2.8h-9.6v-2.8l2.5-0.5v-16.6l-2.5-0.5v-2.8h9.6V313.7z M87.4,334H70.1v-2.8l2.5-0.5v-16.6
				l-2.5-0.5v-2.8h2.5h4.6h2.5v2.8l-2.5,0.5v16.3h6.5l0.2-2.9h3.5V334z M109.9,334H91.7v-2.8l2.5-0.5v-16.6l-2.5-0.5v-2.8h2.5h15.8
				v6.3h-3.5l-0.2-2.8h-7.4v5.8h7.8v3.6h-7.8v6.6h7.4l0.2-2.8h3.5V334z M130.5,332.6c-1.6,1.1-3.6,1.7-6.2,1.7c-1.8,0-3.5-0.3-5-0.9
				c-1.5-0.6-2.7-1.4-3.7-2.4v-4.8h3.6l0.5,3.3c0.5,0.4,1.1,0.7,1.9,0.9c0.8,0.2,1.7,0.4,2.7,0.4c1.3,0,2.2-0.3,2.9-0.8
				c0.7-0.5,1-1.2,1-2.1c0-0.9-0.3-1.6-0.9-2.1c-0.6-0.5-1.7-1-3.3-1.5c-2.7-0.8-4.8-1.7-6.2-2.8c-1.4-1.1-2.1-2.6-2.1-4.5
				c0-1.9,0.8-3.4,2.4-4.6c1.6-1.2,3.6-1.8,6-1.8c1.8,0,3.4,0.3,4.8,0.8c1.5,0.5,2.7,1.3,3.7,2.2v4.7h-3.5l-0.6-3.2
				c-0.4-0.3-1-0.5-1.8-0.7s-1.6-0.3-2.5-0.3c-1.3,0-2.2,0.3-2.9,0.8c-0.7,0.5-1,1.2-1,2.1c0,0.8,0.4,1.4,1.1,1.9
				c0.7,0.5,2,1,3.7,1.6c2.5,0.7,4.5,1.6,5.8,2.8c1.3,1.2,2,2.7,2,4.6C132.9,329.9,132.1,331.5,130.5,332.6z M167.4,334h-5.1
				l-1.2-1.4c-0.9,0.6-1.8,1-2.8,1.3c-1,0.3-2,0.4-3.1,0.4c-2.3,0-4.1-0.6-5.5-1.8c-1.4-1.2-2-2.8-2-4.7c0-1.2,0.3-2.3,1-3.2
				c0.7-0.9,1.7-1.8,3.1-2.8c-0.7-1-1.3-1.9-1.6-2.7c-0.4-0.8-0.5-1.6-0.5-2.5c0-1.8,0.6-3.3,1.7-4.4c1.1-1.1,2.7-1.6,4.6-1.6
				c1.7,0,3,0.5,4.1,1.6c1.1,1,1.6,2.3,1.6,3.8c0,1-0.3,2-0.8,2.8c-0.5,0.9-1.2,1.6-2.1,2.3l-1.5,1l4.4,5.1c0.4-0.6,0.7-1.3,0.9-2.1
				c0.2-0.7,0.3-1.5,0.3-2.3h3.5c0,1.5-0.2,2.8-0.5,4c-0.4,1.2-0.9,2.3-1.6,3.3L167.4,334L167.4,334z M196.7,332.6
				c-1.6,1.1-3.6,1.7-6.2,1.7c-1.8,0-3.5-0.3-5-0.9c-1.5-0.6-2.7-1.4-3.7-2.4v-4.8h3.6l0.5,3.3c0.5,0.4,1.1,0.7,1.9,0.9
				c0.8,0.2,1.7,0.4,2.7,0.4c1.3,0,2.2-0.3,2.9-0.8c0.7-0.5,1-1.2,1-2.1c0-0.9-0.3-1.6-0.9-2.1c-0.6-0.5-1.7-1-3.3-1.5
				c-2.7-0.8-4.8-1.7-6.2-2.8c-1.4-1.1-2.1-2.6-2.1-4.5c0-1.9,0.8-3.4,2.4-4.6c1.6-1.2,3.6-1.8,6-1.8c1.8,0,3.4,0.3,4.8,0.8
				c1.5,0.5,2.7,1.3,3.7,2.2v4.7h-3.5l-0.6-3.2c-0.4-0.3-1-0.5-1.8-0.7c-0.8-0.2-1.6-0.3-2.5-0.3c-1.3,0-2.2,0.3-2.9,0.8
				c-0.7,0.5-1,1.2-1,2.1c0,0.8,0.4,1.4,1.1,1.9c0.7,0.5,2,1,3.7,1.6c2.5,0.7,4.5,1.6,5.8,2.8c1.3,1.2,2,2.7,2,4.6
				C199.1,329.9,198.3,331.5,196.7,332.6z M223.8,317.1h-3.5l-0.2-2.6h-4.2v16.3l2.5,0.5v2.8h-9.6v-2.8l2.5-0.5v-16.3H207l-0.2,2.6
				h-3.5v-6.1h20.6V317.1z M248.6,322.6c0,3.4-1,6.2-2.9,8.4c-1.9,2.2-4.5,3.3-7.6,3.3c-3.1,0-5.6-1.1-7.6-3.3
				c-1.9-2.2-2.9-5-2.9-8.4v-0.3c0-3.4,1-6.1,2.9-8.4c1.9-2.2,4.4-3.3,7.5-3.3c3.1,0,5.7,1.1,7.6,3.3c1.9,2.2,2.9,5,2.9,8.4V322.6z
				 M271.9,318.7h-3.4l-0.5-3.1c-0.5-0.5-1-0.8-1.7-1.1c-0.7-0.3-1.5-0.4-2.4-0.4c-2,0-3.6,0.7-4.6,2.2c-1.1,1.5-1.6,3.4-1.6,5.7
				v0.8c0,2.3,0.5,4.3,1.6,5.7c1.1,1.5,2.6,2.2,4.6,2.2c0.9,0,1.7-0.1,2.5-0.4c0.8-0.3,1.3-0.6,1.8-1.1l0.5-3.1h3.4v4.6
				c-0.9,1.1-2.1,1.9-3.6,2.6c-1.4,0.6-3.1,1-4.8,1c-3.1,0-5.6-1.1-7.6-3.2c-2-2.1-3-4.9-3-8.3v-0.8c0-3.3,1-6.1,2.9-8.3
				c2-2.2,4.5-3.2,7.6-3.2c1.8,0,3.4,0.3,4.8,1c1.4,0.6,2.6,1.5,3.6,2.6V318.7z M298.5,334h-9.1v-2.8l1.4-0.2l-4.4-6.7h-2.6v6.4
				l2.3,0.5v2.8h-9.4v-2.8l2.5-0.5v-16.6l-2.5-0.5v-2.8h9.4v2.8l-2.3,0.5v6.2h2l4.4-6.4l-1.4-0.2v-2.8h9.1v2.8l-2.5,0.4l-5.7,7.6
				l6.4,9.1l2.3,0.4V334z M320,332.3c-1.5,1.1-3.5,1.7-6.2,1.7h-11.3v-2.8l2.5-0.5v-16.6l-2.5-0.5v-2.8h2.5h7.8
				c2.7,0,4.8,0.5,6.4,1.6c1.5,1.1,2.3,2.6,2.3,4.7c0,1.1-0.3,2-0.8,2.9c-0.6,0.8-1.4,1.5-2.5,1.9c1.4,0.3,2.4,0.9,3.1,1.9
				c0.7,1,1,2.1,1,3.4C322.2,329.5,321.4,331.2,320,332.3z M347.3,334h-2.4c-1.5,0-2.6-0.4-3.2-1.2c-0.6-0.8-0.9-1.9-0.9-3.2v-1.3
				c0-1.1-0.3-2-0.9-2.6c-0.6-0.6-1.4-1-2.5-1h-3.8v6.1l2.5,0.5v2.8h-9.6v-2.8l2.5-0.5v-16.6l-2.5-0.5v-2.8h2.5h7.9
				c2.6,0,4.7,0.6,6.2,1.8c1.5,1.2,2.2,2.9,2.2,5c0,1.2-0.3,2.2-0.9,3c-0.6,0.9-1.5,1.5-2.7,2.1c1.4,0.4,2.3,1.1,2.9,2
				c0.6,0.9,0.9,2.1,0.9,3.5v1.2c0,0.5,0.1,0.9,0.3,1.2c0.2,0.3,0.5,0.4,1,0.5l0.6,0.1V334z M360.9,313.7l-2.5,0.5v16.6l2.5,0.5v2.8
				h-9.6v-2.8l2.5-0.5v-16.6l-2.5-0.5v-2.8h9.6V313.7z M385.4,324.4c0,2.8-0.9,5.1-2.7,6.9c-1.8,1.8-4.2,2.7-7,2.7h-10.4v-2.8
				l2.5-0.5v-16.6l-2.5-0.5v-2.8h2.5h7.9c2.8,0,5.1,0.9,7,2.7c1.8,1.8,2.7,4.1,2.7,6.9V324.4z M409.4,331.4c-0.7,0.7-1.8,1.4-3.3,2
				c-1.4,0.6-3.3,0.9-5.5,0.9c-3.1,0-5.7-1-7.6-3.1c-2-2.1-2.9-4.8-2.9-8.1v-0.8c0-3.5,1-6.3,2.9-8.4c1.9-2.2,4.4-3.2,7.6-3.2
				c1.8,0,3.5,0.3,5,0.9c1.5,0.6,2.7,1.4,3.7,2.3v4.6h-3.4l-0.6-3.1c-0.4-0.4-1-0.6-1.7-0.9c-0.7-0.2-1.5-0.3-2.4-0.3
				c-2,0-3.6,0.7-4.7,2.2c-1.1,1.5-1.7,3.4-1.7,5.8v0.8c0,2.3,0.5,4.2,1.6,5.6c1.1,1.4,2.7,2.1,4.8,2.1c0.9,0,1.7-0.1,2.3-0.2
				c0.6-0.2,1-0.3,1.4-0.6v-3.9l-3.3-0.3v-3.2h7.9V331.4z M432.5,334h-18.3v-2.8l2.5-0.5v-16.6l-2.5-0.5v-2.8h2.5h15.8v6.3H429
				l-0.2-2.8h-7.4v5.8h7.8v3.6h-7.8v6.6h7.4l0.2-2.8h3.5V334z M465.4,323.6c-1.5,1.3-3.6,2-6.3,2h-3.9v5.1l2.5,0.5v2.8h-9.6v-2.8
				l2.5-0.5v-16.6l-2.5-0.5v-2.8h2.5h8.5c2.6,0,4.7,0.7,6.3,2c1.5,1.4,2.3,3.1,2.3,5.3C467.7,320.5,466.9,322.3,465.4,323.6z
				 M471.1,334h-4.6v-4.1h4.6V334z M495.1,318.7h-3.4l-0.5-3.1c-0.5-0.5-1-0.8-1.7-1.1c-0.7-0.3-1.5-0.4-2.4-0.4
				c-2,0-3.6,0.7-4.6,2.2c-1.1,1.5-1.6,3.4-1.6,5.7v0.8c0,2.3,0.5,4.3,1.6,5.7c1.1,1.5,2.6,2.2,4.6,2.2c0.9,0,1.7-0.1,2.5-0.4
				c0.8-0.3,1.3-0.6,1.8-1.1l0.5-3.1h3.4v4.6c-0.9,1.1-2.1,1.9-3.6,2.6c-1.4,0.6-3.1,1-4.8,1c-3.1,0-5.6-1.1-7.6-3.2
				c-2-2.1-3-4.9-3-8.3v-0.8c0-3.3,1-6.1,2.9-8.3c2-2.2,4.5-3.2,7.6-3.2c1.8,0,3.4,0.3,4.8,1c1.4,0.6,2.6,1.5,3.6,2.6V318.7z
				 M505.6,334H501v-4.1h4.6V334z M516.9,277.4H7.7V7.7h509.2V277.4z"/>
		</g>
		<g>
			<path class="st0" d="M336.8,314.5h-3.3v6.6h3.2c1.3,0,2.3-0.3,2.9-0.8c0.6-0.5,1-1.3,1-2.4s-0.3-1.9-1-2.5
				C339,314.8,338.1,314.5,336.8,314.5z"/>
		</g>
	</g>
	<g>
		<g>
			<path class="st0" d="M72.4,216.6c24.3,0,44.1-18.4,45.5-42.3h-91C28.3,198.2,48.2,216.6,72.4,216.6z"/>
		</g>
		<g>
			<path class="st0" d="M118,170.4c0-25.2-20.4-45-45.6-45c-25.2,0-45.6,19.8-45.6,45c0,0.1,0,0.3,0,0.4H118
				C118,170.7,118,170.5,118,170.4z"/>
		</g>
	</g>
</g>
</svg>
