<?xml version="1.0" encoding="utf-8"?>
<!-- Generator: Adobe Illustrator 23.1.1, SVG Export Plug-In . SVG Version: 6.00 Build 0)  -->
<svg version="1.1" id="Layer_1" xmlns="http://www.w3.org/2000/svg" xmlns:xlink="http://www.w3.org/1999/xlink" x="0px" y="0px"
	 viewBox="0 0 263.7 262.7" style="enable-background:new 0 0 263.7 262.7;" xml:space="preserve">
<style type="text/css">
	.st0{fill:url(#gold_shield_2_);}
	.st1{fill:none;}
	.st2{fill:#585858;}
</style>
<linearGradient id="gold_shield_2_" gradientUnits="userSpaceOnUse" x1="131.8" y1="765.4" x2="131.8" y2="765.4" gradientTransform="matrix(1 0 0 1 0 -528)">
	<stop  offset="0" style="stop-color:#A7A8A5"/>
	<stop  offset="0.1378" style="stop-color:#BEBFBD"/>
	<stop  offset="0.4389" style="stop-color:#EDEDED"/>
	<stop  offset="0.589" style="stop-color:#FFFFFF"/>
	<stop  offset="0.7147" style="stop-color:#EDEEEE"/>
	<stop  offset="0.8476" style="stop-color:#E2E3E3"/>
	<stop  offset="1" style="stop-color:#DFE0E0"/>
</linearGradient>
<path id="gold_shield_1_" class="st0" d="M131.8,237.4"/>
<polygon class="st1" points="226.7,229.5 226.3,229.6 131.9,257.1 131.8,257.1 37.1,229.5 37.1,210.6 33,210.6 33,232.6 
	131.8,261.7 230.7,232.6 230.7,210.6 226.7,210.6 "/>
<polygon class="st1" points="38.1,228.7 131.9,256.1 225.7,228.7 225.7,210.6 38.1,210.6 "/>
<g>
	<polygon class="st2" points="50.2,105.7 45.7,105.7 45.7,154.1 61.1,154.1 61.1,149.9 50.2,149.9 	"/>
</g>
<g>
	<path class="st2" d="M69.5,105.7l-7.8,48.4h4.4c0,0,1.6-10.6,1.7-11.9h8.3c0.2,1.2,1.5,11.9,1.5,11.9h4.5l-6.8-48.4
		C75.3,105.7,69.5,105.7,69.5,105.7z M68.6,138c0,0,2.8-17.9,2.9-19.2c0.1-1,0.7-8.1,0.7-8.1s0.6,7.2,0.6,8.2s2.6,19.2,2.6,19.2
		h-6.8C68.6,138.1,68.6,138,68.6,138z"/>
</g>
<g>
	<path class="st2" d="M104.6,146.6c0-4.7-4.5-40.9-4.5-40.9h-4.8c0,0-4.5,36.1-4.5,40.9c0-4.8-4.4-40.9-4.4-40.9h-4.5l6.1,48.4h4.8
		c0,0,4.9-35.1,4.9-40.1c0.1,5,4.8,40.1,4.8,40.1h4.8l6.2-48.4h-4.3C109.1,105.7,104.6,141.9,104.6,146.6z"/>
</g>
<g>
	<polygon class="st2" points="124.6,154.1 129.1,154.1 129.1,131.8 139.4,131.8 139.4,127.5 129.1,127.5 129.1,110 140.1,110 
		140.1,105.7 124.6,105.7 	"/>
</g>
<g>
	<rect x="142.9" y="105.7" class="st2" width="4.6" height="48.4"/>
</g>
<g>
	<path class="st2" d="M168.3,127.1c0.7-1.8,1-4.3,1-8.2c0-3.8-0.2-6.5-0.7-8.1c-1-3.2-2.9-5.2-6.8-5.2h-9.5V154h4.4v-22.3l4.5-0.1
		l4.9,22.4h4.8l-5.5-23.6C166.5,130.2,167.7,128.6,168.3,127.1z M164.1,125.7c-0.4,1-1.2,1.8-2.5,1.9c-0.4,0.1-4.8,0.1-4.8,0.1
		c0-1,0-17.8,0-17.8h4.5c1.8,0,2.9,1.3,3.2,3.2c0.1,0.7,0.3,4.1,0.3,6.4C164.7,121.4,164.5,124.6,164.1,125.7z"/>
</g>
<g>
	<polygon class="st2" points="185.7,143.1 179.5,105.7 173.7,105.7 173.7,154.1 177.8,154.1 177.8,119.3 183.6,154.1 187.7,154.1 
		193.8,119.2 193.8,154.1 197.9,154.1 197.9,105.7 192.3,105.7 	"/>
</g>
<g>
	<path class="st2" d="M205.6,115c0-3.7,1.3-5.4,4.5-5.4c3.1,0,4.1,1.9,4.3,4.7c0.1,1.8,0.1,4.7,0.1,4.8h4.4c0-0.2-0.1-3.5-0.2-5.2
		c-0.3-4.5-2.9-8.4-8.7-8.4c-6,0-9,3.5-9,9.3c0,7.8,3.6,11.5,7.2,15.3c3.3,3.6,6.5,7.3,6.5,14.6c0,4.2-1.6,5.9-4.5,5.9
		c-2.6,0-4.3-1.1-4.5-3.9c-0.2-2.2-0.2-4.9-0.2-5.5h-4.3c0,0.4,0,4,0.2,6.4c0.3,4.1,3.3,7,8.7,7c5.9,0,9.2-3.3,9.2-10.3
		c0-9.2-4.2-13.5-8-17.6C208.3,123.4,205.6,120.3,205.6,115z"/>
</g>
<g>
	<path class="st2" d="M73.3,98.2c2.3-0.4,4.5-1.2,6.5-2.4c2-1.2,3.5-2.8,4.7-5c1.2-2.1,1.8-4.5,1.8-7.2c0-3-0.8-5.7-2.4-8.1
		s-3.9-4.1-6.8-5.1c2.1-1,3.8-2.5,4.9-4.5s1.7-4.2,1.7-6.7c0-3.2-0.9-6-2.8-8.4c-1.9-2.4-4-3.9-6.5-4.5c-2.4-0.6-6.1-0.9-11-0.9
		H45.6v6.7h6.5V92h-6.5v6.7h18.1C67.8,98.8,71,98.6,73.3,98.2z M60.2,52.2h5c6.9,0,10.3,2.5,10.3,7.6c0,2.6-0.8,4.6-2.3,5.9
		c-1.5,1.3-4.2,2-8,2h-5C60.2,67.7,60.2,52.2,60.2,52.2z M60.2,92.1V74.3h4.6c3.2,0,5.7,0.2,7.4,0.7c1.8,0.5,3.2,1.4,4.3,2.8
		c1.1,1.4,1.7,3.2,1.7,5.3c0,2.3-0.6,4.2-1.7,5.6c-1.2,1.5-2.7,2.4-4.5,2.8s-4.7,0.6-8.7,0.6C63.3,92.1,60.2,92.1,60.2,92.1z"/>
</g>
<g>
	<polygon class="st2" points="131.4,61.6 131.4,45.5 87.1,45.5 87.1,52.2 94,52.2 94,92.1 87.1,92.1 87.1,98.8 131.4,98.8 
		131.4,82.5 124.8,82.5 124.8,92.1 102,92.1 102,74.7 121.8,74.7 121.8,68.1 102,68.1 102,52.2 124.8,52.2 124.8,61.6 	"/>
</g>
<g>
	<path class="st2" d="M164.8,70.3c-2.1-1.1-5.5-2.2-10.2-3.4c-3.6-0.9-6-1.6-7.2-2.1s-2.2-1.3-3-2.4c-0.8-1.1-1.2-2.3-1.2-3.8
		c0-1.9,0.8-3.5,2.3-4.8c1.6-1.3,3.8-2,6.7-2c4.8,0,8.6,2.1,11.3,6.2v3.7h6.5V45.5h-6.5V49c-3.7-2.8-7.6-4.1-11.9-4.1
		c-4.5,0-8.2,1.3-11.2,4s-4.5,6.2-4.5,10.7c0,2.9,0.7,5.4,2,7.5c1.4,2.1,3.2,3.7,5.5,4.9c2.3,1.1,5.8,2.3,10.6,3.6
		c4.1,1.1,6.9,2.2,8.4,3.3c1.5,1.1,2.2,2.9,2.2,5.5s-0.9,4.7-2.7,6.3c-1.8,1.6-4,2.4-6.7,2.4c-5.2,0-9.3-2.9-12.5-8.7v-4.7H136V99
		h6.7v-4.4c3.9,3.5,8.2,5.2,13.1,5.2c4.7,0,8.7-1.5,11.9-4.4c3.2-3,4.8-6.7,4.8-11.3c0-3.2-0.8-6.1-2.3-8.5
		C168.8,73.1,167,71.4,164.8,70.3z"/>
</g>
<g>
	<polygon class="st2" points="218.4,66 218.4,45.8 175.2,45.8 175.2,66 181.8,66 181.8,52.4 192.8,52.4 192.8,92.4 186,92.4 186,99 
		207.7,99 207.7,92.4 200.8,92.4 200.8,52.4 211.8,52.4 211.8,66 	"/>
</g>
<g>
	<path class="st2" d="M53.8,11.2c0.3,0.1,0.8,0.1,1.2,0.5c0.8,0.6,1,1.5,1,2.9v14.3c0,1.4-0.1,2.2-0.7,2.9c-0.3,0.3-0.6,0.5-0.9,0.6
		c-0.3,0.2-0.6,0.3-0.6,0.6c0,0.2,0.2,0.5,0.4,0.5h0.5c0.6-0.1,1.5-0.2,2.8-0.2c0.5,0,1.1,0.1,1.8,0.1c1,0.1,2,0.2,3.3,0.2
		c4.8,0,7.8-2.7,7.8-7.2c0-3.1-1.7-5.1-4.8-5.7c1.9-1.1,2.9-2.9,2.9-4.9c0-3.5-2.7-5.6-7.1-5.6c-0.8,0-1.6,0-2.3,0.1l-1.9,0.1
		c-1,0-1.8-0.1-2.4-0.1L54,10.2c-0.5,0-0.7,0.1-0.7,0.5C53.1,11,53.4,11.1,53.8,11.2z M58.5,13.2c0-1.5,0.4-1.8,1.8-1.8
		c3.3,0,5.8,2.3,5.8,5.3c0,2.5-1.4,3.6-4.5,3.6h-2.2c-0.8,0-0.9-0.2-0.9-1.1C58.5,19.2,58.5,13.2,58.5,13.2z M58.5,22.7
		c0-1,0.1-1.1,1-1.1h1.9c4,0,6.4,2.1,6.4,5.8c0,3.4-1.9,5-5.7,5c-2.8,0-3.7-0.2-3.7-2.2L58.5,22.7L58.5,22.7z"/>
</g>
<g>
	<path class="st2" d="M77.7,33.6c1.9,0,3.5-0.7,5-2.1c0.5-0.5,0.7-0.8,0.7-1.1c0-0.2-0.1-0.3-0.3-0.3c-0.1,0-0.3,0.1-0.6,0.4
		c-0.7,0.5-1.8,1.4-3.5,1.4c-2.9,0-4.8-2-5-5.8c0-0.3,0.2-0.6,0.6-0.6h7.5c1.2,0,1.1,0,1.1-0.7c0-0.9-0.4-2.6-1.1-3.5
		C81,19.7,79.5,19,77.6,19c-3.2,0-5.9,3.5-5.9,7.6C71.7,30.6,74.3,33.6,77.7,33.6z M77.2,20.2c2,0,3.4,2.1,3.4,3.7
		c0,0.6-0.6,0.6-2.3,0.6h-4.2c0,0-0.1,0-0.1-0.1C74.1,21.8,75.5,20.2,77.2,20.2z"/>
</g>
<g>
	<path class="st2" d="M85.4,32.6c0.2,0,0.3,0.1,0.5,0.1l0.4,0.1c0.7,0.3,1.8,0.7,3.2,0.7c3.2,0,5.6-2,5.6-4.7c0-1.8-1-3-3.2-3.8
		l-0.5-0.2c-2.8-1-4.4-1.6-4.4-3.1c0-1.1,1.1-1.9,2.6-1.9c1.3,0,2.5,0.6,3.4,1.6c0.2,0.2,0.3,0.5,0.3,0.7c0.1,0.3,0.2,0.6,0.5,0.6
		c0.4,0,0.4-0.3,0.4-0.6v-1.8c0-0.8-1.4-1.3-4-1.3c-3.1,0-5.2,1.5-5.2,3.9c0,1.7,1,2.7,3.6,3.8l1,0.4c2.2,0.9,3.5,1.4,3.5,2.8
		c0,1.6-1.3,2.7-3.3,2.7c-1.8,0-3.1-0.9-3.8-2.6c-0.1-0.4-0.2-0.7-0.3-0.9c-0.1-0.5-0.2-0.8-0.6-0.8s-0.6,0.2-0.6,0.7v2.7
		C84.7,32.5,84.9,32.5,85.4,32.6z"/>
</g>
<g>
	<path class="st2" d="M195.6,32.6c0.2,0,0.3,0.1,0.5,0.1l0.4,0.1c0.7,0.3,1.8,0.7,3.2,0.7c3.2,0,5.6-2,5.6-4.7c0-1.8-1-3-3.2-3.8
		l-0.5-0.2c-2.8-1-4.4-1.6-4.4-3.1c0-1.1,1.1-1.9,2.6-1.9c1.3,0,2.5,0.6,3.4,1.6c0.2,0.2,0.3,0.5,0.3,0.7c0.1,0.3,0.2,0.6,0.5,0.6
		c0.4,0,0.4-0.3,0.4-0.6v-1.8c0-0.8-1.4-1.3-4-1.3c-3.1,0-5.2,1.5-5.2,3.9c0,1.7,1,2.7,3.6,3.8l1,0.4c2.2,0.9,3.5,1.4,3.5,2.8
		c0,1.6-1.3,2.7-3.3,2.7c-1.8,0-3.1-0.9-3.8-2.6c-0.1-0.4-0.2-0.7-0.3-0.9c-0.1-0.5-0.2-0.8-0.6-0.8c-0.4,0-0.6,0.2-0.6,0.7v2.7
		C194.9,32.5,195.1,32.5,195.6,32.6z"/>
</g>
<g>
	<path class="st2" d="M96.8,20.1h0.9v9.1c0,3.2,1,4.4,3.5,4.4c2.1,0,3.7-1.2,3.6-1.8c0-0.2-0.3-0.3-0.8-0.1c-0.4,0.2-1.1,0.6-2,0.6
		c-1.4,0-2.1-0.8-2.1-2.4v-9.8h4.3c0.5,0,0.9-0.4,0.9-0.9c0-0.3-0.2-0.5-0.5-0.5h-4.7v-2.9c0-0.3,0-0.4-0.3-0.4s-0.5,0.4-0.7,0.9
		c-0.2,0.4-0.8,2-1.5,2.3c-0.2,0.1-0.6,0.2-0.9,0.2S96,19.1,96,19.4C95.9,19.7,96.3,20.1,96.8,20.1z"/>
</g>
<g>
	<path class="st2" d="M113.9,11.2c0.3,0.1,0.7,0.1,1.1,0.5c0.9,0.8,0.9,1.5,0.9,3V29c0,1.2-0.1,2.1-0.7,2.9
		c-0.3,0.3-0.6,0.5-0.8,0.6c-0.3,0.2-0.6,0.3-0.6,0.7c0,0.2,0.2,0.4,0.4,0.4h0.4c0.7-0.1,2.2-0.2,4.7-0.2c1.6,0,3,0.1,4,0.1l1.7,0.1
		c1.6,0,2.6-0.5,3.5-1.6c0.7-1,1.1-2.2,1.1-2.7c0-0.4-0.1-0.6-0.3-0.6s-0.4,0.2-0.6,0.6c-0.3,0.4-0.6,0.9-1.3,1.3
		c-1.1,0.7-3.4,1.6-6.5,1.6c-1.9,0-2.4-0.4-2.4-2V14.6c0-1.4,0-2.2,0.7-2.9c0.2-0.2,0.6-0.3,0.8-0.4c0.4-0.1,0.7-0.3,0.7-0.6
		s-0.2-0.5-0.5-0.5h-0.3c-0.5,0.1-1.4,0.2-2.9,0.2c-0.9,0-1.6-0.1-2.2-0.1l-0.8-0.1c-0.4,0-0.6,0.1-0.6,0.5
		C113.3,11,113.6,11.1,113.9,11.2z"/>
</g>
<g>
	<path class="st2" d="M185.5,21.1c1,0,1.5,0.5,1.5,1.6v7.1c0,1.2-0.2,1.8-0.6,2.3c-0.2,0.2-0.4,0.4-0.6,0.5
		c-0.3,0.2-0.5,0.3-0.5,0.6c0,0.2,0.2,0.4,0.4,0.4h0.2c0.4,0,1.2-0.1,2.4-0.1c1,0,1.7,0.1,2.3,0.1l0.7,0.1c0.3,0,0.6-0.2,0.6-0.4
		c0-0.5-0.4-0.5-0.8-0.5c-0.3,0-0.6,0-0.9-0.2c-1-0.5-1.1-1.3-1.1-3.1V24c0-1.3,1-2.5,2.1-2.5c0.6,0,1.1,0.3,1.4,0.5
		c0.2,0.2,0.4,0.3,0.6,0.3c0.4,0,1.1-0.8,1.1-1.4s-1-1.6-2.1-1.6c-1,0-1.9,1-3.1,2.5v-2.1c0-0.5,0-0.8-0.4-0.8
		c-0.5,0-1.2,0.9-1.6,1.2c-0.5,0.4-1.5,0.3-1.9,0.3c-0.5,0-0.8,0.2-0.8,0.5C184.6,21,185.1,21.1,185.5,21.1z"/>
</g>
<g>
	<path class="st2" d="M141.8,20.1c0.1,0.1,0.3,0.1,0.4,0.2c0.4,0.4,0.8,1,1,1.8l3.4,10.6c0.2,0.5,0.3,0.8,0.7,0.8
		c0.3,0,0.4-0.2,0.6-0.6l3.2-7.4c0.1-0.2,0.1-0.3,0.2-0.3c0,0,0.2,0.1,0.2,0.3l2.4,7.4c0.1,0.4,0.2,0.6,0.6,0.6
		c0.3,0,0.5-0.2,0.6-0.6l4.4-11.2c0.7-1.6,2.4-1.8,3.1,0.1c0.7,1.9,3.6,9.3,3.6,9.3l0.1,0.2c0.3,0.7,0.5,1.4,0.5,2.1l0,0
		c0,0.3-0.1,1.2-0.7,2.6v0.1c-0.8,1.8-0.8,2-1.7,2.2c-1.7,0.3-2.4,0.6-2.4,1.6c0,0.7,0.8,1.2,1.6,1.2c1.3,0,2.2-0.8,3.4-4.4l1.1-3.1
		l0,0c0,0,4.1-13.4,4.9-13.5c0.3,0,0.3,0,0.4-0.1c0.2,0,0.5-0.1,0.5-0.5c0-0.3-0.2-0.5-0.5-0.5h-0.5c-0.3,0-0.7,0.1-1.3,0.1
		c-0.5,0-1,0-1.3-0.1h-0.6c-0.4,0-0.5,0.1-0.5,0.4c0,0.4,0.3,0.4,0.6,0.5l0.4,0.1c0.5,0.1,0.7,0.6,0.7,1.3c0,0.9-0.2,1.8-0.5,2.7
		l-2,6c0,0.1-0.1,0.2-0.1,0.2s-0.1-0.1-0.1-0.2l-3-7.9c-0.2-0.6-0.3-1-0.3-1.2c0-0.5,0.3-0.8,0.9-0.9h0.2c0.3-0.1,0.5-0.1,0.5-0.4
		s-0.2-0.5-0.5-0.4c-1.2,0.1-2,0.3-4.9,0.3c-1.8,0-3-0.2-4-0.3c-0.4,0-0.5,0.2-0.5,0.5c0,0.4,0.3,0.4,0.6,0.5l0.4,0.1
		c0.5,0.1,0.7,0.6,0.7,1.2c0,0.7-0.2,1.5-0.6,2.5l-2.2,5.7c-0.1,0.2-0.1,0.2-0.2,0.2c0,0-0.1,0-0.1-0.2l-2.5-8.1
		c-0.1-0.2-0.1-0.4-0.1-0.5c0-0.5,0.4-0.7,0.7-0.8c0.3-0.1,0.5-0.2,0.5-0.5s-0.1-0.4-0.5-0.4h-0.4c-0.3,0-0.9,0.1-1.6,0.1
		c-0.7,0-1.3-0.1-1.8-0.1h-0.7c-0.3,0-0.5,0.1-0.5,0.4s0.3,0.4,0.6,0.6c0.4,0.2,0.9,0.4,1.1,1.1l0.6,1.7c0.1,0.2,0.1,0.5,0.1,0.8
		c0,0.1-0.1,0.4-0.2,0.6l-2.4,5.4v0.1c0,0.1-0.1,0.2-0.1,0.2s-0.1-0.1-0.2-0.3l-2.5-7.7c-0.1-0.3-0.1-0.6-0.1-0.8
		c0-0.6,0.4-0.8,0.8-1c0.3-0.1,0.5-0.3,0.5-0.5c0-0.3-0.2-0.4-0.4-0.4h-0.2c-0.4,0.1-1.2,0.2-2.4,0.2c-0.5,0-0.8-0.1-1.2-0.1
		l-0.6-0.1c-0.3,0-0.5,0.1-0.5,0.4C141.3,19.9,141.5,20,141.8,20.1z"/>
</g>
<g>
	<path class="st2" d="M130.6,29.4c0,2.5,2.2,4.3,4.3,4.2c2.1-0.1,3.2-0.9,4.2-2c0.4,1.2,1.2,1.9,2.4,1.9c1.1,0,2-0.4,2-0.8
		c0-0.5-0.7-0.4-1-0.4c-1.1,0.1-1.2-0.5-1.2-2.1v-6.1c0-3.8-1.4-5.2-5.4-5.1c-1.1,0-2.1,0.5-2.2,0.5c-0.5,0.2-0.9,0.5-1.3,0.8
		c-0.4,0.3-0.7,0.6-0.9,1s-0.3,0.6-0.3,0.9s0.1,0.4,0.3,0.4c0.1,0,0.2,0,0.3,0s0.3-0.1,0.3-0.1c0.4-0.1,0.5-0.2,0.6-0.3
		c0.1-0.1,0.3-0.3,0.3-0.4c0.1-0.3,0.2-0.5,0.3-0.8c0.1-0.2,0.2-0.4,0.3-0.5c0.4-0.4,1.1-0.7,2-0.7c2.3,0,3.2,1.3,3.2,3.2v2.3
		C132.1,25.1,130.6,27.8,130.6,29.4z M138.7,29.7c-0.2,1.5-1.5,2.8-3.4,2.6c-2-0.2-2.6-1.7-2.6-2.8c0-0.9-0.3-3.1,6-3.2V29.7z"/>
</g>
<g>
	<path class="st2" d="M179,33.6c1.9,0,3.5-0.7,5-2.1c0.5-0.5,0.7-0.8,0.7-1.1c0-0.2-0.1-0.3-0.3-0.3c-0.1,0-0.3,0.1-0.6,0.4
		c-0.7,0.5-1.8,1.4-3.5,1.4c-2.9,0-4.8-2-5-5.8c0-0.3,0.2-0.6,0.6-0.6h7.5c1.2,0,1.1,0,1.1-0.7c0-0.9-0.4-2.6-1.1-3.5
		c-1.1-1.6-2.6-2.3-4.5-2.3c-3.2,0-5.9,3.5-5.9,7.6C173,30.6,175.7,33.6,179,33.6z M178.5,20.2c2,0,3.4,2.1,3.4,3.7
		c0,0.6-0.6,0.6-2.3,0.6h-4.2c0,0-0.1,0-0.1-0.1C175.5,21.8,176.8,20.2,178.5,20.2z"/>
</g>
<g>
	<path class="st2" d="M206.1,20.6h0.1c0.1,0,0.2,0.1,0.2,0.2c0,0,0,0.1,0,0.2h0.2c0-0.1,0-0.2,0-0.2c0-0.2-0.1-0.2-0.1-0.3
		c0.1,0,0.2-0.1,0.2-0.2c0-0.2-0.2-0.3-0.4-0.3h-0.4v1h0.2V20.6z M206.1,20.2h0.2c0.1,0,0.2,0,0.2,0.1s-0.1,0.1-0.2,0.1h-0.2V20.2z"
		/>
</g>
<g>
	<path class="st2" d="M206.2,21.5c0.6,0,1-0.4,1-1c0-0.5-0.4-1-1-1s-1,0.4-1,1S205.7,21.5,206.2,21.5z M206.2,19.8
		c0.4,0,0.7,0.3,0.7,0.8c0,0.4-0.3,0.8-0.7,0.8s-0.8-0.3-0.8-0.8C205.5,20.2,205.7,19.8,206.2,19.8z"/>
</g>
<g>
	<path class="st2" d="M165.7,173H164v1.3h1.7c0.2,0,0.5-0.1,0.5-0.2c0.1-0.1,0.1-0.3,0.1-0.4c0-0.1,0-0.3-0.1-0.4
		C166.1,173.1,166,173,165.7,173z"/>
</g>
<g>
	<path class="st2" d="M188.8,173h-1.7v1.3h1.7c0.2,0,0.5-0.1,0.5-0.2c0.1-0.1,0.1-0.3,0.1-0.4c0-0.1,0-0.3-0.1-0.4
		C189.3,173.1,189.1,173,188.8,173z"/>
</g>
<g>
	<path class="st2" d="M178.9,173h-1.2v3.4h1.2c0.5,0,0.8-0.1,1-0.4c0.2-0.2,0.2-0.9,0.2-1.5c0-0.5,0-1.1-0.2-1.2
		C179.6,173.1,179.4,173,178.9,173z"/>
</g>
<g>
	<path class="st2" d="M217.9,173h-1.7v1.3h1.7c0.2,0,0.5-0.1,0.5-0.2c0-0.1,0.1-0.3,0.1-0.4c0-0.1,0-0.3-0.1-0.4
		C218.4,173.1,218.2,173,217.9,173z"/>
</g>
<g>
	<path class="st2" d="M156.3,174.7c0,1.4,0.5,1.8,1.4,1.8s1.4-0.4,1.4-1.8c0-1.3-0.4-1.8-1.4-1.8S156.3,173.4,156.3,174.7z"/>
</g>
<g>
	<path class="st2" d="M201.6,173v1.5c0,0,1.5,0,1.6,0c0.4,0,0.6-0.1,0.7-0.3c0.1-0.1,0.1-0.2,0.1-0.4s0-0.4-0.1-0.5
		c-0.1-0.2-0.3-0.3-0.6-0.3H201.6z"/>
</g>
<g>
	<path class="st2" d="M208.5,174.7c0,1.4,0.5,1.8,1.4,1.8s1.4-0.4,1.4-1.8c0-1.3-0.3-1.8-1.4-1.8
		C208.9,172.9,208.5,173.4,208.5,174.7z"/>
</g>
<g>
	<path class="st2" d="M153.1,186.7c-1-1-2.6-1.8-5.2-1.8c-2.4,0-4.3,0.6-5.4,1.7c-0.8,0.7-1.5,2.1-1.5,2.8h13.2
		C154.3,188.7,154,187.6,153.1,186.7z"/>
</g>
<g>
	<polygon class="st2" points="111.9,202.9 124.4,202.9 111.9,181.8 	"/>
</g>
<g>
	<path class="st2" d="M181.6,187.5c0,0-0.3,1.4-0.3,1.7c0,0.7-3.5,11-4.5,13.7h9.6c-0.9-2.7-4.4-13-4.5-13.7
		C181.9,188.9,181.6,187.5,181.6,187.5z"/>
</g>
<g>
	<path class="st2" d="M58,202.9h5.1v-3.5C62,201,60.2,202.1,58,202.9z"/>
</g>
<g>
	<path class="st2" d="M261.6,215.5h-23.2l2.1-1.7H261l-6.1-17.2l8.7-24.7h-19.4v-11.1h-12.5V0H32v160.7H18.5l-0.1,11.1H0l8.7,24.7
		l-6.1,17.2h19.9l2.2,1.7H2l-2,5.8h32v12.1l99.7,29.3h0.1l99.9-29.4v-12.1h32L261.6,215.5z M33,1h197.8v159.7h-4.1V4.7H37.1v156H33
		V1z M221.1,173v-1.6h6.1v1.6h-2.1v4.9h-2V173H221.1z M220.9,177.9h-2.2l-1.1-2.2h-1.3v2.2h-1.9v-6.4h4.1c0.9,0,1.4,0.2,1.7,0.7
		c0.2,0.3,0.4,0.8,0.4,1.4c0,0.5-0.1,0.9-0.3,1.2s-0.5,0.5-0.8,0.6L220.9,177.9z M38.1,160.7V5.7h187.5v155H38.1z M213.4,174.7
		c0,2.3-1.1,3.4-3.4,3.4c-2.4,0-3.4-1.2-3.4-3.4c0-2.1,1.1-3.3,3.4-3.3C212.4,171.4,213.4,172.5,213.4,174.7z M205.8,173.7
		c0,0.7-0.2,1.2-0.5,1.6c-0.4,0.4-1,0.6-1.8,0.7c-0.2,0-2,0-2,0v2h-2v-6.4h4c0.8,0,1.3,0.2,1.7,0.5
		C205.6,172.4,205.8,172.9,205.8,173.7z M198.2,173.9v1.5h-3.4v1h3.6v1.5h-5.5v-6.4h5.5v1.5h-3.5v0.9H198.2z M191.8,177.9h-2.2
		l-1.1-2.2h-1.3v2.2h-1.9v-6.4h4.1c0.9,0,1.4,0.2,1.7,0.7c0.3,0.3,0.4,0.8,0.4,1.4c0,0.5-0.1,0.9-0.3,1.2s-0.5,0.5-0.8,0.6
		L191.8,177.9z M182,174.6c0,1.4-0.1,1.9-0.5,2.4c-0.4,0.6-1.1,0.9-2.2,0.9h-3.6v-6.4h3.5c1.2,0,1.9,0.3,2.3,0.8
		C181.9,172.9,182,173.4,182,174.6z M174.7,176.3v1.6h-5.1v-6.4h2v4.8L174.7,176.3L174.7,176.3z M168.7,177.9h-2.2l-1.1-2.2H164v2.2
		h-1.9v-6.4h4.1c0.9,0,1.4,0.2,1.7,0.7c0.3,0.3,0.4,0.8,0.4,1.4c0,0.5-0.1,0.9-0.3,1.2s-0.5,0.5-0.8,0.6L168.7,177.9z M161.2,174.7
		c0,2.3-1.1,3.4-3.4,3.4c-2.4,0-3.4-1.2-3.4-3.4c0-2.1,1.1-3.3,3.4-3.3C160.2,171.4,161.2,172.5,161.2,174.7z M154.2,171.5l-1.8,6.4
		h-2.2c0,0-1-3.7-1-3.9c0,0.2-1,3.9-1,3.9h-2.1l-1.8-6.4h2.1c0,0,1,4,1,4.2c0-0.2,1-4.2,1-4.2h2c0,0,1,4,1,4.2c0-0.2,1-4.2,1-4.2
		H154.2z M136.2,173.3c0-0.1,0-0.2,0-0.3c0-0.8,0.8-1.5,2.2-1.5c1.2,0,1.9,0.7,2,1.5c0,0.1,0,0.2,0,0.3c0,0.8-0.6,1.4-1.3,1.8
		c0.3,0.2,0.7,0.6,1,0.9c0.2-0.3,0.3-0.6,0.3-1h1.8c0,0.8-0.4,1.5-0.9,2c0.4,0.3,0.9,0.7,1.4,1.1h-2.5c-0.1-0.1-0.2-0.2-0.3-0.2
		c-0.5,0.2-1.2,0.3-1.8,0.3c-1.5,0-2.9-0.3-3-1.5c0-0.1,0-0.3,0-0.3c0-0.7,0.7-1.2,1.5-1.5C136.4,174.1,136.2,173.7,136.2,173.3z
		 M18.5,202.9h25.2c-4.1-1.4-6.8-4.4-6.8-9.4c0-0.7,0-21.9,0-21.9h7c0,0,0,20.7,0,21.3c0,3.4,2.5,5.4,7.1,5.4c4,0,6.9-2,6.9-5.3
		c0-0.6,0-21.4,0-21.4h7c0,0,0,21.7,0,22.3c0,1.2-0.2,2.2-0.5,3.2h5v5.9h6.8c-3.6-1.2-5.2-3.3-6.1-5.9c-0.3-1-0.4-2.6-0.4-3.3h7.2
		c0,0.6,0.2,1.5,0.4,2c0.9,1.9,3,2.7,7.3,2.7c4.9,0,6.6-1.3,6.6-3.4c0-2.6-1.3-3.6-6.5-4.5c-0.9-0.2-3.3-0.6-4.7-0.9
		c-6.2-1.2-10.1-4.1-10.1-9.4c0-5.4,4.4-9.1,13.8-9.1c8,0,11.8,2.8,13.4,6.8c0.4,1.1,0.7,2.3,0.7,3.1h-7.2c0-0.4-0.2-1.1-0.4-1.6
		c-0.9-1.8-2.6-2.7-6.7-2.7c-5.3,0-6.4,1.2-6.4,3c0,2.4,1.9,3.3,7.1,4.3c1.6,0.3,3.7,0.8,4.5,0.9c6.4,1.2,9.7,3.9,9.7,9.3
		c0,1-0.1,1.9-0.4,2.7h5.1v5.9h2.1v-31.4h8.2l12.3,20.6v-20.6h6.7v31.4h9c-2.2-0.8-4-2.2-5.3-4.1c-1.2-1.8-1.8-4.2-1.8-7.2
		c0-2.7,0.7-5.1,2.1-7c2.3-3.3,6.4-5.2,11.5-5.2c5.4,0,9.1,2,11.2,5c1.8,2.6,2.4,6,2,9.5h-20c0,1.1,0.5,1.9,1.3,2.8
		c1,1.1,2.9,1.8,5.5,1.8c1.9,0,3.4-0.3,4.3-0.8c1.2-0.6,1.8-1.3,2-1.8h6.8c-0.6,2.3-1.9,4.4-4.3,5.9c-0.7,0.4-1.4,0.8-2.2,1.1h13.8
		l-8.2-23h7.2l5.7,17.6l5.2-17.6h7.6l5.3,17.6l5.5-17.6h6.8l-8.3,23h12.4c-2.4-0.9-3.7-2.3-4.2-4.4c-0.2-0.9-0.3-1.6-0.3-2.4h6.8
		c0,0.3,0,0.7,0.2,1.2c0.4,1.1,2.2,1.4,6,1.4c3.9,0,5.1-0.7,5.1-2.1c0-1.3-1.4-1.6-4.9-2.1c-0.9-0.1-3.7-0.6-5.2-0.8
		c-5.2-0.7-7.7-3-7.7-7.5c0-4.2,3.8-7,11.4-7c6.5,0,10.6,1.7,11.8,5.1c0.3,0.9,0.4,2.4,0.4,2.8h-6.7c0-0.3-0.1-1-0.3-1.3
		c-0.5-0.6-1.7-1.2-5-1.2c-3.8,0-4.9,0.6-4.9,1.7c0,1,0.7,1.4,4.1,1.9c1.4,0.2,4.7,0.7,5.5,0.8c5.7,0.9,8.2,3,8.2,7.4
		c0,3-1.4,5.1-4.4,6.3h20.8v2.1H18.5V202.9z M225.7,210.6v18.1L131.9,256l-93.8-27.3v-18.1L225.7,210.6L225.7,210.6z M230.7,232.6
		l-98.9,29.1L33,232.6v-22h4.2v18.9l94.6,27.6h0.1l94.4-27.5l0.4-0.1v-18.9h4.1v22H230.7z"/>
</g>
<g>
	<path class="st2" d="M92,202.9h4.8v-3.4C95.8,200.9,94.2,202.1,92,202.9z"/>
</g>
<g>
	<path class="st2" d="M138.7,173.3v-0.1c0-0.2-0.1-0.4-0.4-0.4c-0.3,0-0.4,0.2-0.4,0.4c0,0.1,0,0.1,0,0.2c0,0.2,0.1,0.4,0.3,0.6
		C138.5,173.8,138.7,173.6,138.7,173.3z"/>
</g>
<g>
	<path class="st2" d="M138.1,176.7c0.2,0,0.4,0,0.6-0.1c-0.4-0.3-0.8-0.6-1-0.9c-0.3,0.2-0.5,0.3-0.5,0.5
		C137.2,176.6,137.5,176.7,138.1,176.7z"/>
</g>
<g>
	<g>
		<g>
			<path class="st2" d="M117.8,237.4h-10.4c5.1-2.9,9.6-6.5,9.8-10.8c0-0.3,0-0.8,0-1.1c-0.1-2.7-1.9-5.1-6.9-5.1
				c-4.8,0-6.8,2.3-7.1,4.9c0,0.4,0,1.1,0,1.5h2.8c0-0.3,0-0.8,0-1c0.2-1.5,1.4-2.8,4.1-2.8c2.8,0,4,1.3,4,3.1c0,0.2,0,0.3,0,0.5
				c-0.1,4.3-4.5,7.2-11.1,10.9v2.5h14.8C117.8,240,117.8,237.4,117.8,237.4z"/>
		</g>
		<g>
			<path class="st2" d="M126.8,240.1c3.8,0,6.1-1.5,7-4.7c0.3-1.1,0.5-3.5,0.5-5.1c0-1.9,0-3.7-0.4-5c-0.6-2.8-3-4.9-7.1-4.9
				s-6.6,1.9-7.2,4.9c-0.3,1.6-0.4,3.1-0.4,5c0,1.6,0.1,3.8,0.5,5.1C120.6,238.7,122.8,240.1,126.8,240.1z M122.4,225.8
				c0.3-1.8,1.9-3,4.4-3s4,1.2,4.3,3c0.2,0.9,0.3,3.1,0.3,4.4c0,1.3-0.1,3.7-0.3,4.5c-0.5,1.9-1.9,2.9-4.2,2.9
				c-2.4,0-3.8-0.9-4.3-2.9c-0.2-0.9-0.4-3-0.4-4.5C122.1,229,122.2,226.8,122.4,225.8z"/>
		</g>
		<g>
			<path class="st2" d="M151.2,237.4h-10.4c5.1-2.9,9.6-6.5,9.8-10.8c0-0.3,0-0.8,0-1.1c-0.1-2.7-1.9-5.1-6.9-5.1
				c-4.8,0-6.8,2.3-7.1,4.9c0,0.4,0,1.1,0,1.5h2.8c0-0.3,0-0.8,0-1c0.2-1.5,1.4-2.8,4.1-2.8c2.8,0,4,1.3,4,3.1c0,0.2,0,0.3,0,0.5
				c-0.1,4.3-4.5,7.2-11.1,10.9v2.5h14.8C151.2,240,151.2,237.4,151.2,237.4z"/>
		</g>
	</g>
	<path class="st2" d="M161.2,239.9c-0.9,0-1.8,0-2.7,0c0-5.3,0-10.5,0-15.9c-1.7,0.2-3.2,0.5-4.9,0.7c0-0.6-0.1-1.1,0-1.5
		c0.1-0.4,0.5-0.8,0.8-0.9c1.6-0.4,3.3-0.5,4.7-1.6c0.4-0.3,1.3-0.1,2.1-0.1C161.2,227,161.2,233.4,161.2,239.9z"/>
</g>
</svg>
