<?xml version="1.0" encoding="utf-8"?>
<!-- Generator: Adobe Illustrator 23.0.1, SVG Export Plug-In . SVG Version: 6.00 Build 0)  -->
<svg version="1.1" id="Layer_1" xmlns="http://www.w3.org/2000/svg" xmlns:xlink="http://www.w3.org/1999/xlink" x="0px" y="0px"
	 viewBox="0 0 622.2 228.3" style="enable-background:new 0 0 622.2 228.3;" xml:space="preserve">
<style type="text/css">
	.st0{fill:#595959;}
</style>
<g>
	<g>
		<path class="st0" d="M325.3,46V10.1h6.1v30.3h15.8V46H325.3z"/>
	</g>
	<g>
		<path class="st0" d="M353.3,46V10.1h21.9v5.6h-15.8v9.4h14.3v5.4h-14.3v9.9h15.8V46H353.3z"/>
	</g>
	<g>
		<path class="st0" d="M406,46l-3.5-8.2h-14.2l-3.5,8.2h-6.3l16.6-36.4h0.9L412.5,46H406z M395.4,20.9l-5.1,12h10.2L395.4,20.9z"/>
	</g>
	<g>
		<path class="st0" d="M426.8,46.3c-3.9,0-6.7-0.2-10.3-0.6V10.4c3.5-0.4,6.4-0.6,10-0.6c14.2,0,21.2,8.2,21.2,17.9
			C447.7,37.8,441.1,46.3,426.8,46.3z M427.2,15.2c-1.8,0-3.3,0.1-4.6,0.3v25c1.5,0.2,2.8,0.3,5.1,0.3c9.2,0,13.4-5.5,13.4-13.1
			C441.2,20.3,436.4,15.2,427.2,15.2z"/>
	</g>
	<g>
		<path class="st0" d="M454.6,46V10.1h21.9v5.6h-15.8v9.4H475v5.4h-14.3v9.9h15.8V46H454.6z"/>
	</g>
	<g>
		<path class="st0" d="M504.4,46l-7.8-12.9c-0.6,0-1.2,0-1.9,0c-1.2,0-2.4,0-3.6-0.1v13H485V10.4c2.8-0.3,5.8-0.6,9.5-0.6
			c10.2,0,14.7,4.9,14.7,11.3c0,4.7-2.5,8.4-7,10.4l9.4,14.5H504.4z M495.2,15.3c-1.5,0-2.9,0-4.1,0.3v12.2c1.1,0.1,2.4,0.2,3.5,0.2
			c5.3,0,8-2.5,8-6.6C502.7,17.8,499.9,15.3,495.2,15.3z"/>
	</g>
	<g>
		<path class="st0" d="M525.7,46.6c-4.1,0-8.1-1.5-11.3-3.5l2.1-5.5c2.8,2.1,6.3,3.3,9.4,3.3c3.8,0,5.4-2.2,5.4-4.7
			c0-2.5-1.1-4.1-6.8-6.5c-6.3-2.6-8.5-5.9-8.5-10.2c0-5.2,4.3-10,11.8-10c3.5,0,6.9,1.2,9,2.6l-2,5.4c-1.9-1.3-4.8-2.5-7.2-2.5
			c-3.8,0-5.5,2.1-5.5,4.5c0,2.4,1.8,3.8,6.2,5.8c7.1,3.1,9.2,6,9.2,10.7C537.6,41.6,533.1,46.6,525.7,46.6z"/>
	</g>
	<g>
		<path class="st0" d="M567.3,46V30.6h-16.5V46h-6.1V10.1h6.1v15h16.5v-15h6.1V46H567.3z"/>
	</g>
	<g>
		<path class="st0" d="M582.8,46V10.1h6.1V46H582.8z"/>
	</g>
	<g>
		<path class="st0" d="M607.9,34.4c-1.2,0-2.4-0.1-3.6-0.1V46h-6.1V10.4c3.2-0.4,6.2-0.6,9.1-0.6c9.8,0,14.9,5.4,14.9,12.1
			C622.2,29.2,617.1,34.4,607.9,34.4z M608.3,15.5c-1.4,0-2.7,0.1-4,0.3v13.1c1.2,0.1,2.4,0.2,3.4,0.2c5.5,0,8.1-2.9,8.1-7
			C615.8,18.6,613.3,15.5,608.3,15.5z"/>
	</g>
	<g>
		<path class="st0" d="M343.5,104.1c-11.4,0-19.4-7.8-19.4-18.5c0-10.6,8.1-18.6,19.4-18.6c4.5,0,8.5,1.4,11.6,3.3l-2.1,5.2
			c-2.8-1.6-6.4-2.7-9.6-2.7c-7.9,0-12.7,5.2-12.7,12.8c0,7.5,4.9,12.8,12.8,12.8c3.2,0,6.9-1.1,9.8-2.8l1.9,5.2
			C352.2,102.6,347.9,104.1,343.5,104.1z"/>
	</g>
	<g>
		<path class="st0" d="M376.3,104.1c-10.4,0-18-7.9-18-18.5c0-10.7,7.9-18.6,18.3-18.6c10.4,0,18,7.9,18,18.6
			C394.7,96.2,386.7,104.1,376.3,104.1z M376.5,72.5c-6.9,0-11.6,5.6-11.6,13.1c0,7.4,4.8,13.1,11.6,13.1c6.8,0,11.6-5.6,11.6-13.1
			C388.1,78.1,383.3,72.5,376.5,72.5z"/>
	</g>
	<g>
		<path class="st0" d="M415.6,104.1c-9,0-14.3-5-14.3-14.4V67.6h6.1v21.7c0,6.2,3,9.2,8.2,9.2c5.1,0,8.2-3.1,8.2-9.2V67.6h6.1v22.1
			C430.1,98.9,424.4,104.1,415.6,104.1z"/>
	</g>
	<g>
		<path class="st0" d="M468.5,104.2l-22.5-23.7v23h-6.1V67.1l1-0.2l22.2,23.4V67.6h6.1V104L468.5,104.2z"/>
	</g>
	<g>
		<path class="st0" d="M496.7,104.1c-11.4,0-19.4-7.8-19.4-18.5c0-10.6,8.1-18.6,19.4-18.6c4.5,0,8.5,1.4,11.6,3.3l-2.1,5.2
			c-2.8-1.6-6.4-2.7-9.6-2.7c-7.9,0-12.7,5.2-12.7,12.8c0,7.5,4.9,12.8,12.8,12.8c3.2,0,6.9-1.1,9.8-2.8l1.9,5.2
			C505.4,102.6,501.1,104.1,496.7,104.1z"/>
	</g>
	<g>
		<path class="st0" d="M516.5,103.5V67.6h6.1v35.9H516.5z"/>
	</g>
	<g>
		<path class="st0" d="M533.1,103.5V67.6h6.1v30.3H555v5.6H533.1z"/>
	</g>
	<g>
		<path class="st0" d="M342.1,161.6c-10.4,0-18-7.9-18-18.5c0-10.7,7.9-18.6,18.3-18.6c10.4,0,18,7.9,18,18.6
			C360.4,153.7,352.5,161.6,342.1,161.6z M342.3,130c-6.9,0-11.6,5.6-11.6,13.1c0,7.4,4.8,13.1,11.6,13.1c6.8,0,11.6-5.6,11.6-13.1
			C353.8,135.6,349.1,130,342.3,130z"/>
	</g>
	<g>
		<path class="st0" d="M397.1,161.7L374.6,138v23h-6.1v-36.4l1-0.2l22.2,23.4v-22.7h6.1v36.5L397.1,161.7z"/>
	</g>
	<g>
		<path class="st0" d="M421.1,161v-35.9h6.1v30.3H443v5.6H421.1z"/>
	</g>
	<g>
		<path class="st0" d="M448.3,161v-35.9h21.9v5.6h-15.8v9.4h14.3v5.4h-14.3v9.9h15.8v5.6H448.3z"/>
	</g>
	<g>
		<path class="st0" d="M508.6,142v15.7c-3.8,2.5-8,3.9-13.4,3.9c-10.2,0-19.1-7.4-19.1-18.5c0-11.2,9-18.6,19.1-18.6
			c5.3,0,9.1,1.5,12.7,3.7l-2.8,4.9c-2.9-1.9-6.3-3-9.7-3c-8.2,0-12.8,5.8-12.8,12.9c0,7.6,5.6,13.1,12.7,13.1
			c3.1,0,5.1-0.5,7.3-1.7v-7.1h-8.4V142H508.6z"/>
	</g>
	<g>
		<path class="st0" d="M540.2,161l-3.5-8.2h-14.2l-3.5,8.2h-6.3l16.6-36.4h0.9l16.5,36.4H540.2z M529.7,135.9l-5.1,12h10.2
			L529.7,135.9z"/>
	</g>
	<g>
		<path class="st0" d="M551.9,161v-35.9h6.1v30.3h15.8v5.6H551.9z"/>
	</g>
	<g>
		<path class="st0" d="M335.7,218.8c-3.9,0-6.7-0.2-10.3-0.6v-35.3c3.5-0.4,6.4-0.6,10-0.6c14.2,0,21.2,8.2,21.2,17.9
			C356.5,210.3,349.9,218.8,335.7,218.8z M336.1,187.7c-1.8,0-3.3,0.1-4.6,0.3v25c1.5,0.2,2.8,0.3,5.1,0.3c9.2,0,13.4-5.5,13.4-13.1
			C350,192.8,345.2,187.7,336.1,187.7z"/>
	</g>
	<g>
		<path class="st0" d="M363.9,218.5v-35.9h6.1v35.9H363.9z"/>
	</g>
	<g>
		<path class="st0" d="M391.9,219h-0.8l-16.6-36.4h7l10.1,23.9l10-23.9h6.8L391.9,219z"/>
	</g>
	<g>
		<path class="st0" d="M412.8,218.5v-35.9h21.9v5.6h-15.8v9.4h14.3v5.4h-14.3v9.9h15.8v5.6H412.8z"/>
	</g>
	<g>
		<path class="st0" d="M463.8,218.5l-7.8-12.9c-0.6,0-1.2,0-1.9,0c-1.2,0-2.4,0-3.6-0.1v13h-6.1v-35.6c2.8-0.3,5.8-0.6,9.5-0.6
			c10.2,0,14.7,4.9,14.7,11.3c0,4.7-2.5,8.4-7,10.4l9.4,14.5H463.8z M454.6,187.8c-1.5,0-2.9,0-4.1,0.3v12.2
			c1.1,0.1,2.4,0.2,3.5,0.2c5.3,0,8-2.5,8-6.6C462.1,190.3,459.3,187.8,454.6,187.8z"/>
	</g>
	<g>
		<path class="st0" d="M486.4,219.1c-4.1,0-8.1-1.5-11.3-3.5l2.1-5.5c2.8,2.1,6.3,3.3,9.4,3.3c3.8,0,5.4-2.2,5.4-4.7
			c0-2.5-1.1-4.1-6.8-6.5c-6.3-2.6-8.5-5.9-8.5-10.2c0-5.2,4.3-10,11.8-10c3.5,0,6.9,1.2,9,2.6l-2,5.4c-1.9-1.3-4.8-2.5-7.2-2.5
			c-3.8,0-5.5,2.1-5.5,4.5c0,2.4,1.8,3.8,6.2,5.8c7.1,3.1,9.2,6,9.2,10.7C498.2,214.1,493.8,219.1,486.4,219.1z"/>
	</g>
	<g>
		<path class="st0" d="M505.8,218.5v-35.9h6.1v35.9H505.8z"/>
	</g>
	<g>
		<path class="st0" d="M533.4,188.2v30.3h-6.1v-30.3h-11.4v-5.6h28.9v5.6H533.4z"/>
	</g>
	<g>
		<path class="st0" d="M566,203.4v15.1h-6.1v-15.1l-12.6-20.8h7l8.8,15.2l8.7-15.2h6.9L566,203.4z"/>
	</g>
</g>
<g>
	<g>
		<path class="st0" d="M182.8,91.1c-12.7,0-23,10.3-23,23c0,12.7,10.3,23,23,23s23-10.3,23-23C205.8,101.4,195.5,91.1,182.8,91.1z"
			/>
	</g>
	<g>
		<path class="st0" d="M71.4,63.1c11-6.4,14.8-20.4,8.4-31.4c-6.4-11-20.4-14.8-31.4-8.4c-11,6.4-14.8,20.4-8.4,31.4
			C46.3,65.7,60.4,69.4,71.4,63.1z"/>
	</g>
	<g>
		<path class="st0" d="M147.2,157.8c3.9-14,6-28.7,6-43.6c0-15-2-29.6-6-43.6c-2.9,0.2-5.8,0.4-8.7,0.8c2.9-0.3,5.8-0.6,8.7-0.8
			c0,0,0,0,0,0c0,0,0,0,0,0c-1.1-3.8-2.3-7.6-3.7-11.4c1.4,3.7,2.6,7.5,3.7,11.4c14.4-0.8,28.9,0.7,43.2,4.5l6-22.2
			c-19-5.1-38.3-6.6-57.3-4.8c0,0,0,0,0,0c-7.9-17.4-18.9-33.4-32.8-47.3L89.9,17.1c10.5,10.5,19,22.3,25.5,35.1
			c-14.1,3.6-27.8,9.1-40.8,16.6c-13,7.5-24.6,16.6-34.8,27c0,0,0,0,0,0C32,83.8,26,70.5,22.2,56.2L0,62.1c5.1,19,13.4,36.5,24.5,52
			c0,0,0,0,0,0c0,0,0,0,0,0c0,0,0,0,0,0c0,0,0,0,0,0c-11.1,15.5-19.5,33-24.5,52l22.2,6c3.8-14.3,9.8-27.6,17.7-39.7
			c10.2,10.4,21.8,19.5,34.8,27c13,7.5,26.7,13,40.8,16.6c-6.5,12.8-15.1,24.7-25.5,35.1l16.3,16.3c13.9-13.9,24.9-29.9,32.8-47.3
			c-2-0.2-4-0.4-5.9-0.7c0,0,0,0,0,0c2,0.3,4,0.5,5.9,0.7c19,1.9,38.3,0.3,57.3-4.8l-6-22.2C176,157.1,161.5,158.6,147.2,157.8z
			 M137.5,71.4c-1.6,0.2-3.2,0.4-4.8,0.7C134.3,71.8,135.9,71.6,137.5,71.4z M54.2,114.1c9.2-9.9,19.9-18.4,32-25.4
			c12-6.9,24.8-12,38-15c4,12.9,6,26.5,6,40.4c0,13.9-2.1,27.5-6,40.4c-13.2-3-25.9-8-38-15C74.1,132.6,63.4,124,54.2,114.1z
			 M130.7,179.2c-5.1-0.8-10.2-1.8-15.3-3.1c4.8,1.2,9.7,2.2,14.6,3C130.3,179.1,130.5,179.1,130.7,179.2z M147.2,157.8L147.2,157.8
			C147.2,157.8,147.2,157.8,147.2,157.8C147.2,157.8,147.2,157.8,147.2,157.8z"/>
	</g>
	<g>
		<path class="st0" d="M71.4,165.2c-11-6.4-25.1-2.6-31.4,8.4c-6.4,11-2.6,25.1,8.4,31.4c11,6.4,25.1,2.6,31.4-8.4
			C86.1,185.6,82.4,171.5,71.4,165.2z"/>
	</g>
</g>
<g>
	<polygon class="st0" points="265.8,228.3 265.8,114.1 265.8,0 268.5,0 271.2,0 271.2,114.1 271.2,228.3 268.5,228.3 	"/>
</g>
</svg>
