<?xml version="1.0" encoding="utf-8"?>
<!-- Generator: Adobe Illustrator 23.0.1, SVG Export Plug-In . SVG Version: 6.00 Build 0)  -->
<svg version="1.1" id="Layer_1" xmlns="http://www.w3.org/2000/svg" xmlns:xlink="http://www.w3.org/1999/xlink" x="0px" y="0px"
	 viewBox="0 0 502.2 140.6" style="enable-background:new 0 0 502.2 140.6;" xml:space="preserve">
<style type="text/css">
	.st0{fill:#595959;}
</style>
<g>
	<path class="st0" d="M181.1,50.7v47.5h-9.6V50.7h-13.3v-8.4h36.3v8.4H181.1z"/>
	<path class="st0" d="M202,55.8h33.3v6.4h-23.7v11.3h20.1v6.3h-20.1v12.1h23.7v6.4H202V55.8z"/>
	<path class="st0" d="M253.9,82.4v15.8h-9.6V55.8h17.5c12.5,0,18.7,4.2,18.7,12.7v1.1c0,5.9-3,9.8-9.1,11.6l9.1,17h-10.4l-8-15.8
		H253.9z M253.9,76h8.2c5.7,0,8.6-2.2,8.6-6.6v-0.6c0-4.4-2.9-6.6-8.6-6.6h-8.2V76z"/>
	<path class="st0" d="M299.5,82.4v15.8h-9.6V55.8h17.5c12.5,0,18.7,4.2,18.7,12.7v1.1c0,5.9-3,9.8-9.1,11.6l9.1,17h-10.4l-8-15.8
		H299.5z M299.5,76h8.2c5.7,0,8.6-2.2,8.6-6.6v-0.6c0-4.4-2.9-6.6-8.6-6.6h-8.2V76z"/>
	<path class="st0" d="M346.4,55.6h13.3l14.7,42.7H364l-3.1-9.7h-15.8l-3.1,9.7h-10.4L346.4,55.6z M353,63.9l-5.9,18.3h11.7L353,63.9
		z"/>
	<path class="st0" d="M413,98.2h-31.2V42.3h9.6v47.5H413V98.2z"/>
	<path class="st0" d="M420.2,55.8h33.3v6.4h-23.7v11.3h20.1v6.3h-20.1v12.1h23.7v6.4h-33.3V55.8z"/>
	<path class="st0" d="M459.7,98.2l14.4-22l-14.4-20.4h11.2L481,71.1l10-15.3h11.2l-14.4,20.3l14.4,22.1h-10.7l-10.6-17l-10.5,17
		H459.7z"/>
</g>
<g>
	<path class="st0" d="M85.5,96.9c-4.2,1.4-8.6,2.5-12.9,3.3c3.4,2.6,6.8,4.9,10.4,7C84,103.8,84.8,100.4,85.5,96.9z"/>
	<path class="st0" d="M33.4,29.6c12.4-0.7,24.8-3.7,36.2-8.6c-0.9-1.3-1.9-2.5-2.9-3.7C61.4,11,55.6,6.3,49.6,3.1
		c-4.4,1.4-8.8,3.2-12.9,5.4C34.3,14.7,33.1,21.7,33.4,29.6z"/>
	<path class="st0" d="M92,7.3c1.1-0.9,2.1-1.8,3.2-2.8C89.4,2.4,83.5,1,77.4,0.4C82.5,1.9,87.3,4.2,92,7.3z"/>
	<path class="st0" d="M81,42.8c-1.8-5-4-9.9-6.6-14.4c-12.4,6.4-26.3,9.8-40.2,10c1.4,8.8,4.4,17.6,8.6,26
		C56.6,60.2,69.9,52.6,81,42.8z"/>
	<path class="st0" d="M84,52.5c-10.7,9.1-23.6,15.8-37.2,19C51.4,79,57,86,63.3,92.2c8-0.9,15.9-2.8,23.5-5.5
		C87.7,75.3,86.7,63.6,84,52.5z"/>
	<path class="st0" d="M99.8,20.7c-0.1-0.2-0.2-0.4-0.4-0.5c-1.6-2.2-3.2-4.3-4.9-6.2c-4.3,4.2-9.1,7.9-14.2,11.1
		c2.7,3.7,5,7.6,7,11.7C92.1,31.8,96.4,26.4,99.8,20.7z"/>
	<path class="st0" d="M103.6,120.5c-2-0.2-4.1-0.5-6.1-0.8c-3.8-0.7-7.5-1.7-11.1-2.9c-1.2,2.3-2.6,4.5-4.1,6.6
		c-4.7,6.8-10.2,12.3-16.3,16.4c0.7,0.3,1.4,0.5,2.1,0.8c7.4,0.2,14.9-0.7,22-2.8c3.3-2.9,6.4-6.4,9.2-10.5
		C101,125,102.4,122.8,103.6,120.5z"/>
	<path class="st0" d="M125.7,68.8c-0.5,0.6-0.9,1.2-1.4,1.8c0.5,16.3-3.2,32.7-11.4,46.6c3.3,0.3,6.5,0.3,9.5,0.1
		c17.7-19.6,22.4-46.8,14.1-70.4C134.6,54.4,131,61.8,125.7,68.8z"/>
	<path class="st0" d="M73.3,16.7c0.6,0.6,1.1,1.2,1.6,1.7c5.3-2.7,10.2-5.8,14.8-9.3C84.9,5,79.8,2,74.5,0.1
		C67-0.3,59.6,0.4,52.3,2.3C59.8,5.4,66.9,10.2,73.3,16.7z"/>
	<path class="st0" d="M102.5,16.1c1.1-2.2,2.2-4.4,3.1-6.6c-1.6-0.9-3.1-1.7-4.7-2.5c-1.2,1.5-2.3,2.9-3.6,4.3
		C99,12.7,100.8,14.3,102.5,16.1z"/>
	<path class="st0" d="M115,71.1c-0.4-15.4-4-30.6-10.9-43.4c-3.5,6.5-7.9,12.5-13,17.9c4.2,11.8,5.9,24.6,5,37.2
		C103,79.6,109.3,75.7,115,71.1z"/>
	<path class="st0" d="M114.8,80.4c-6,5.2-12.8,9.5-20,12.8c-1.2,6-2.9,11.8-5.3,17.3c4.3,2,8.6,3.6,13.1,4.8
		c1.1,0.3,2.2,0.6,3.3,0.8C111,105.3,114,93,114.8,80.4z"/>
	<path class="st0" d="M10.4,71.3c-3.6-1-7.1-2.3-10.3-3.9C0,69.7,0,72,0.1,74.3c3.4,3.5,7.6,6.7,12.5,9.4
		C11.6,79.6,10.8,75.5,10.4,71.3z"/>
	<path class="st0" d="M34.6,9.7c-1.1,0.7-2.2,1.4-3.3,2.1c-2.7,3.7-5,8-6.9,12.8c-0.7,1.6-1.2,3.3-1.8,5c2.1,0.1,4.3,0.1,6.4,0.1
		C29.7,22.4,31.7,15.7,34.6,9.7z"/>
	<path class="st0" d="M110.8,120.7c-1.5,2.2-3,4.4-4.7,6.4c-2.2,2.6-4.5,5-6.8,7.2c7.5-3.4,14.6-8.2,20.7-14.4c0,0,0.1-0.1,0.1-0.1
		C117.1,120.4,114,120.7,110.8,120.7z"/>
	<path class="st0" d="M42.3,130.3C29,120.2,19.4,105.6,14.2,89.5C8.7,85.9,4.1,81.7,0.3,77c1.5,15.7,8.3,31,20.3,43
		c10.9,10.9,24.4,17.4,38.5,19.7C53.4,137.5,47.7,134.4,42.3,130.3z"/>
	<path class="st0" d="M16.5,29.1c0.4-1,0.9-2,1.4-3c1.1-2.3,2.4-4.5,3.7-6.5c-0.3,0.3-0.7,0.6-1,0.9c-2.6,2.6-4.9,5.3-7,8.1
		C14.5,28.9,15.5,29,16.5,29.1z"/>
	<path class="st0" d="M9.4,35.1C4,44.4,1,54.7,0.2,65.1c3.1,1,6.4,1.8,9.9,2.3c-0.7-10.6,0.5-21.2,3.7-31.2
		C12.3,35.9,10.9,35.5,9.4,35.1z"/>
	<path class="st0" d="M107.2,21.5c9.3,11.8,14.8,26.3,16.6,41.3c0.1-0.2,0.3-0.3,0.4-0.5c5.3-6,9-12.2,11.3-18.5
		c-3.4-8.5-8.6-16.5-15.5-23.3c-3-3-6.2-5.7-9.6-8.1C109.5,15.6,108.4,18.6,107.2,21.5z"/>
	<path class="st0" d="M19.2,68.1C19.3,68.1,19.3,68.1,19.2,68.1c5.1,0,10.2-0.6,15.2-1.6c-3.6-9-5.7-18.5-5.9-28.2
		c-2.7-0.1-5.4-0.4-8.1-0.8C18.4,47.3,18.1,57.7,19.2,68.1z"/>
	<path class="st0" d="M51.1,92.9c-5.4-6-10-12.6-13.6-19.7c-4.8,0.6-9.6,0.7-14.4,0.3c-1.1-0.1-2.1-0.2-3.2-0.3
		c0.9,5.2,2.1,10.4,3.7,15.4C32.3,91.5,41.6,92.9,51.1,92.9z"/>
	<path class="st0" d="M48.7,128.8c4.9,4.3,9.9,7.6,15,9.9c4.5-3.9,8.5-8.9,12.1-14.9c1.8-3,3.3-6.2,4.7-9.5
		c-7.4-3.2-14.2-7.6-20.4-12.8c-11.6,0.4-23.1-1.4-33.8-5.7C31.4,108.6,39,120.2,48.7,128.8z"/>
</g>
</svg>
