<?xml version="1.0" encoding="utf-8"?>
<!-- Generator: Adobe Illustrator 23.0.1, SVG Export Plug-In . SVG Version: 6.00 Build 0)  -->
<svg version="1.1" id="Layer_1" xmlns="http://www.w3.org/2000/svg" xmlns:xlink="http://www.w3.org/1999/xlink" x="0px" y="0px"
	 viewBox="0 0 313.8 238.1" style="enable-background:new 0 0 313.8 238.1;" xml:space="preserve">
<style type="text/css">
	.st0{fill:#585858;}
</style>
<path class="st0" d="M127.9,62.4h9.7v31.4c0,2,0.6,3.7,3.4,3.7c2.6,0,3.3-2.2,3.3-4V62.4h9.7v30.1c0,7-3.2,12.5-13.1,12.5
	c-8.3,0-13.1-3.9-13.1-12.5V62.4"/>
<polyline class="st0" points="157.9,119 157.9,77.4 167.7,77.4 167.7,110.7 179.6,110.7 179.6,119 157.9,119 "/>
<path class="st0" d="M139.8,110.6h1c0.5,0,1.4,0,1.4,1.1s-0.9,1.2-1.3,1.2h-1.1L139.8,110.6 M139.8,113.6h1.3c0.8,0,1.1,0.6,1.1,1.2
	c0,0.4,0.1,1.2,0.2,1.6h0.8v-0.1c-0.2,0-0.2-0.3-0.3-0.4c-0.1-0.5-0.1-1-0.1-1.4c-0.1-0.9-0.3-1.1-1.1-1.2l0,0
	c0.8-0.1,1.2-0.6,1.2-1.4c0-1.5-0.8-1.8-2.2-1.8H139v6.5h0.7v-3"/>
<path class="st0" d="M141,119.1c3.3,0,5.9-2.7,5.9-5.9c0-3.3-2.7-5.9-5.9-5.9c-3.3,0-5.9,2.7-5.9,5.9S137.8,119.1,141,119.1
	 M135.8,113.2c0-2.9,2.4-5.3,5.3-5.3c2.9,0,5.3,2.4,5.3,5.3s-2.4,5.3-5.3,5.3C138.1,118.5,135.8,116.1,135.8,113.2"/>
<g>
	<path class="st0" d="M198.8,113c-1.6-1-2.1-0.4-3,1.2l3.3,2.1l0.7-1.1C200.4,114.3,199.6,113.5,198.8,113z"/>
	<g>
		<path class="st0" d="M151.2,139.4l-0.1,3.9h1.3c1.1,0,1.4-1,1.4-1.9C153.9,139.5,153.1,139.4,151.2,139.4z"/>
		<path class="st0" d="M174.9,136.6c-0.8-1.7-1.4-1.5-3.1-0.8l4.2,9.2c2.4-0.9,2-1.8,1-3.7L174.9,136.6z"/>
		<g>
			<path class="st0" d="M104.1,99.4c1.9-0.3,1.8-1.1,1.5-2.9l-3.9,0.6l0.2,1.3C102.1,99.5,103.1,99.6,104.1,99.4z"/>
			<path class="st0" d="M153.5,26.3c-35.5,0-64.2,28.8-64.2,64.2c0,35.5,28.8,64.2,64.2,64.2c35.5,0,64.2-28.8,64.2-64.2
				C217.8,55,189,26.3,153.5,26.3z M153.5,47.7c23.7,0,42.8,19.2,42.8,42.8c0.1,23.7-19.1,42.8-42.8,42.8s-42.8-19.2-42.8-42.8
				C110.7,66.8,129.9,47.7,153.5,47.7z M93.9,105.2h-0.2l-0.6-4c0.3-0.1,0.6-0.3,0.9-0.3c1.4-0.3,2.7-0.4,3.6-0.6
				c0.9-0.3,1.5-0.6,1.5-1.5l-0.2-1.2l-6.2,0.9l-0.6-3.7l15.7-2.4l0.8,5.4c0.5,3-0.5,4.7-3.6,5.2c-1.7,0.3-2.9,0-3.9-1.4
				c-0.1,1.1-0.7,1.9-1.8,2.1c-1.2,0.3-3.9,0.7-4.9,1.1C94.2,104.9,94,105.1,93.9,105.2z M95,108.3l14.9-5.6l3,8l-3,1.2l-1.7-4.5
				l-2.7,1l1.6,4.3l-3,1.2l-1.6-4.4l-3.2,1.2l1.8,4.7l-3,1.1L95,108.3z M103.4,126l1.1-0.9c-1.6,0.1-2.4-0.4-3.2-1.8
				c-1.7-2.7-0.4-4.7,2.1-6.2l5.5-3.5c2.9-1.8,5.1-1.4,7,1.5c1.7,2.7,1.6,5-1.2,6.7l-1,0.6l-2-3.2l0.7-0.5c1.1-0.7,1.6-1.2,1.1-2.1
				c-0.6-1-1.3-0.9-2.2-0.3l-6.7,4.2c-0.8,0.5-1,1.1-0.5,1.9c0.7,1.1,1.6,0.6,2.4,0l1.1-0.7l-0.7-1.1l2.4-1.5l2.7,4.3l-7.3,4.6
				L103.4,126z M106.9,130.7l11.9-10.5l2.5,2.8l-11.9,10.5L106.9,130.7z M123.5,128.5c-0.5-0.5-1.2-0.5-1.7,0
				c-0.7,0.7-0.6,1.4-0.4,2.2c0.5,1.6,1.1,2.8,1.3,3.9c0.2,1.2-0.1,2.3-1.3,3.8c-1.9,2.4-4.3,2.6-6.7,0.6c-2.6-2.2-2.5-4.6-1.2-6.2
				l1.1-1.3l2.6,2.1l-0.7,0.9c-0.6,0.7-0.9,1.5,0.1,2.3c0.7,0.6,1.5,0.2,2-0.4c0.8-1,0.3-2.1-0.1-3.2c-0.5-1.2-0.8-2.3-0.9-3.4
				c0-1.1,0.3-2.1,1.2-3.1c1.9-2.3,4.3-2.3,6.5-0.5c2.5,2.1,2.4,4.8,0.4,7L123,131C123.6,130.3,124.4,129.3,123.5,128.5z
				 M127.5,146.6l-3.3-1.8l5.9-11.2l-2.6-1.4l1.4-2.8l8.6,4.5l-1.5,2.8l-2.6-1.4L127.5,146.6z M146.1,139.5l-4.7-1.2l-0.8,2.8
				l4.5,1.2l-0.8,3.1l-4.5-1.3l-0.9,3.4l4.9,1.3l-0.9,3.1l-8.4-2.4l4.2-15.3l8.2,2.3L146.1,139.5z M157.9,152.4l-4.1-0.1
				c-0.1-0.3-0.2-0.6-0.2-0.9c0-1.4,0.1-2.7,0-3.7c-0.1-1-0.4-1.6-1.2-1.7h-1.2l-0.1,6.2l-3.7-0.1l0.4-15.9l5.4,0.2
				c3.1,0.1,4.5,1.4,4.5,4.5c0,1.7-0.5,2.9-2.1,3.6c1,0.3,1.8,1,1.8,2.1c0.1,1.3,0,4,0.2,5c0.1,0.2,0.2,0.4,0.3,0.6V152.4z
				 M160.9,151.8l-2.8-15.7l8.4-1.5l0.5,3.1l-4.7,0.9l0.5,2.9l4.6-0.9l0.6,3.1l-4.6,0.9l0.6,3.4l5-0.9l0.6,3.1L160.9,151.8z
				 M181,145.3c-0.6,1-1.7,1.6-2.7,2l-4.6,1.9l-6.4-14.5l3.7-1.6c1.2-0.6,2.8-1.2,4.1-1c1.7,0.2,2.5,1.5,3.1,2.9l2.9,6.5
				C181.7,143,181.8,144.2,181,145.3z M192.1,138.5l-10.8-11.6l6.4-6l2.2,2.3l-3.7,3.5l1.9,2l3.4-3.1l2.2,2.3l-3.4,3.2l4.5,4.9
				L192.1,138.5z M200.4,129.8l-12.3-10.1l2.4-2.9l12.2,10.1L200.4,129.8z M208.4,118.4c-0.3-0.1-0.6-0.1-0.9-0.3
				c-1.2-0.7-2.3-1.4-3.2-1.8c-0.9-0.4-1.6-0.5-2.1,0.2l-0.6,1.1l5.3,3.1l-1.9,3.2l-13.6-8.2l2.8-4.7c1.6-2.6,3.4-3.3,6.1-1.6
				c1.5,0.9,2.3,1.8,2.1,3.6c0.7-0.8,1.7-1,2.7-0.5c1.1,0.6,3.5,2,4.5,2.3c0.2,0,0.4,0,0.7,0l0.2,0.1L208.4,118.4z M213.7,102.5
				l-0.7,2.7l-12.7-0.7v0.1l12.1,2.8l-0.8,3.4l-15.4-4l1.3-5.1l9.6,0.5l-8.6-4.3l1.3-5.1l15.4,4l-0.9,3.5l-12-3.5L213.7,102.5z"/>
		</g>
	</g>
</g>
<g>
	<g>
		<path class="st0" d="M118,30.1l-9.1-18.3l4.3-2.1c1.1-0.6,2.1-0.9,2.9-1.1c0.9-0.1,1.6-0.1,2.3,0.2c0.7,0.3,1.3,0.7,1.8,1.3
			s1.1,1.4,1.6,2.4l3.3,6.6c0.5,1,0.9,2,1,2.8c0.2,0.8,0.2,1.6,0,2.3c-0.2,0.7-0.6,1.4-1.2,2s-1.4,1.2-2.5,1.7L118,30.1z
			 M120.2,26.1l1-0.5c0.3-0.2,0.6-0.3,0.8-0.5c0.2-0.2,0.4-0.4,0.5-0.5c0.1-0.2,0.2-0.4,0.2-0.6s0-0.5,0-0.6c0-0.2-0.1-0.4-0.2-0.8
			c-0.1-0.3-0.2-0.6-0.3-0.8c-0.1-0.2-0.3-0.6-0.5-1l-3.3-6.7c-0.2-0.4-0.4-0.8-0.5-1c-0.1-0.3-0.3-0.5-0.5-0.7s-0.4-0.4-0.6-0.5
			s-0.4-0.2-0.6-0.2s-0.5,0-0.8,0.1s-0.6,0.2-1,0.4l-0.9,0.5L120.2,26.1z"/>
	</g>
	<g>
		<path class="st0" d="M140.6,25.7c-0.7-0.1-1.5-0.4-2.4-1c-0.9-0.5-1.7-1.1-2.4-1.7c-0.1,0-0.2,0.1-0.4,0.1c-2,0.6-3.6,0.4-4.8-0.4
			c-1.2-0.9-2.1-2.4-2.7-4.5l-2-7.3c-0.3-1-0.4-2-0.5-2.8c0-0.8,0.1-1.6,0.4-2.3s0.8-1.3,1.4-1.8c0.7-0.5,1.5-0.9,2.5-1.2
			c2-0.6,3.6-0.4,4.8,0.4s2.1,2.3,2.7,4.4l2,7.3c0.9,3.1,0.5,5.3-1.1,6.7c1,0.7,1.9,1.2,2.4,1.3L140.6,25.7z M133.7,20.6
			c0.3,0,0.6,0,0.9-0.1c0.3-0.1,0.6-0.2,0.8-0.4c0.2-0.2,0.4-0.4,0.5-0.6s0.2-0.5,0.2-0.8s0-0.6-0.1-0.9c0-0.3-0.1-0.6-0.2-1l-2.5-9
			c-0.1-0.5-0.3-0.9-0.4-1.2c-0.1-0.3-0.3-0.6-0.5-0.8c-0.2-0.2-0.5-0.4-0.8-0.5s-0.7,0-1.1,0.1c-0.4,0.1-0.8,0.3-1,0.5
			s-0.4,0.5-0.4,0.8c-0.1,0.3-0.1,0.6,0,1c0,0.3,0.1,0.7,0.3,1.2l2.5,9c0.1,0.4,0.2,0.7,0.3,1s0.2,0.5,0.4,0.8
			c0.2,0.2,0.3,0.4,0.5,0.6C133.2,20.5,133.4,20.6,133.7,20.6z"/>
	</g>
	<g>
		<path class="st0" d="M148.1,20.9c-3.6,0.3-5.7-1.6-6.2-5.7l3.2-1c0.3,2.7,1.2,4,2.7,3.8c0.6-0.1,1-0.3,1.2-0.6
			c0.2-0.4,0.3-0.8,0.3-1.4c-0.1-0.6-0.2-1.1-0.5-1.5c-0.2-0.5-0.5-0.8-0.8-1.1s-0.7-0.6-1.3-1l-2.9-2.1c-0.9-0.6-1.5-1.3-2-2
			s-0.7-1.6-0.8-2.7c-0.1-1.6,0.2-2.9,1.1-3.8c0.9-1,2.1-1.5,3.7-1.7c0.7-0.1,1.4,0,2,0.1s1.1,0.4,1.5,0.6c0.4,0.3,0.8,0.7,1,1.1
			c0.3,0.5,0.5,0.9,0.7,1.5c0.2,0.5,0.3,1.1,0.4,1.7L148.3,6c-0.1-0.4-0.1-0.8-0.2-1.1C148,4.6,148,4.3,147.8,4
			c-0.1-0.3-0.3-0.5-0.4-0.7c-0.2-0.2-0.4-0.3-0.6-0.4c-0.3-0.1-0.5-0.1-0.9-0.1c-0.5,0.1-1,0.3-1.2,0.7c-0.3,0.4-0.4,0.8-0.3,1.4
			c0.1,0.7,0.2,1.2,0.5,1.6c0.3,0.4,0.7,0.8,1.3,1.2l2.9,2.1c0.5,0.4,0.9,0.7,1.3,1.1c0.4,0.3,0.7,0.7,1.1,1.2
			c0.3,0.5,0.6,1,0.8,1.5c0.2,0.6,0.3,1.2,0.4,1.8c0.1,1.5-0.2,2.7-1.1,3.7C150.8,20.2,149.6,20.8,148.1,20.9z"/>
	</g>
	<g>
		<path class="st0" d="M160.7,20.7l2.4-20.4l3.7,0.4l-2.4,20.4L160.7,20.7z"/>
	</g>
	<g>
		<path class="st0" d="M166.7,21.4l3.6-14.2l3.4,0.8l-0.3,1.4c1.4-0.8,2.7-1,3.9-0.7c0.8,0.2,1.3,0.6,1.5,1.3s0.2,1.5,0,2.3
			l-2.9,11.3l-3.4-0.8l2.7-10.6c0.1-0.4,0.1-0.8,0.1-1c-0.1-0.2-0.3-0.4-0.7-0.5s-1,0-1.7,0.3l-2.8,11.3L166.7,21.4z"/>
	</g>
	<g>
		<path class="st0" d="M181.6,26.2c-1.5-0.6-2.4-1.5-2.7-2.7c-0.3-1.1-0.1-2.5,0.6-4.1l1.7-3.9c0.7-1.6,1.6-2.7,2.6-3.3
			s2.3-0.5,3.8,0.1c1.4,0.6,2.3,1.4,2.7,2.3c0.4,1,0.2,2.1-0.4,3.6l-0.5,1.1l-3-1.3l0.5-1.1c0.3-0.7,0.4-1.2,0.4-1.5
			s-0.3-0.6-0.7-0.8s-0.8-0.2-1.1,0.1s-0.6,0.8-1,1.7l-2.1,4.9c-0.4,0.9-0.5,1.5-0.5,1.8c0,0.4,0.3,0.6,0.7,0.8
			c0.4,0.2,0.8,0.2,1.1-0.1c0.3-0.2,0.5-0.6,0.8-1.2l0.6-1.4l3,1.3l-0.5,1.3c-0.6,1.4-1.4,2.3-2.3,2.7
			C184.1,26.9,183,26.8,181.6,26.2z"/>
	</g>
	<g>
		<path class="st0" d="M187.1,28.6l1.7-3l2.9,1.7l-1.7,3L187.1,28.6z"/>
	</g>
</g>
<g>
	<path class="st0" d="M65.3,165.2l1.6,8.9l0,0l1.6-8.9H74v15h-3.7V169l0,0l-2.1,11.2h-2.8l-2-11.2l0,0v11.2h-3.7v-15H65.3z"/>
	<path class="st0" d="M79.5,165.2v15h-3.9v-15H79.5z"/>
	<path class="st0" d="M85.1,165.2V177h4.8v3.2h-8.7v-15H85.1z"/>
	<path class="st0" d="M99.8,165.2v3.2h-5v2.6h4.7v3.1h-4.7v3h5.2v3.2h-9.1v-15h8.9V165.2z"/>
	<path class="st0" d="M107.3,169.1c0-0.4-0.1-0.8-0.3-1.1c-0.2-0.3-0.5-0.5-0.8-0.5c-0.4,0-0.7,0.1-0.9,0.4
		c-0.2,0.3-0.3,0.6-0.3,0.9c0,0.5,0.2,0.9,0.5,1.2s0.7,0.5,1.2,0.7s1,0.4,1.5,0.6c0.5,0.2,1.1,0.5,1.5,0.9c0.5,0.4,0.9,0.8,1.2,1.4
		c0.3,0.6,0.5,1.3,0.5,2.2c0,1.6-0.5,2.8-1.4,3.5s-2.2,1.1-3.9,1.1c-0.8,0-1.5-0.1-2.2-0.2c-0.6-0.1-1.1-0.4-1.6-0.7
		c-0.4-0.3-0.8-0.8-1-1.3s-0.3-1.2-0.3-2v-0.5h3.8v0.4c0,0.6,0.1,1.1,0.4,1.4c0.2,0.3,0.5,0.4,0.9,0.4s0.7-0.1,0.9-0.4
		c0.2-0.3,0.3-0.6,0.3-1c0-0.5-0.2-0.9-0.5-1.2s-0.7-0.5-1.1-0.7s-0.9-0.4-1.5-0.6s-1-0.5-1.5-0.8s-0.8-0.8-1.1-1.3
		c-0.3-0.5-0.5-1.3-0.5-2.1c0-1.5,0.4-2.7,1.2-3.5c0.8-0.8,2-1.2,3.7-1.2s2.9,0.4,3.7,1.1c0.8,0.7,1.1,1.9,1.1,3.5h-3.7v-0.6H107.3z
		"/>
	<path class="st0" d="M126.2,180.2l-0.7-0.9c-0.3,0.2-0.6,0.3-0.8,0.5c-0.3,0.1-0.5,0.3-0.8,0.3c-0.3,0.1-0.6,0.2-0.9,0.2
		c-0.3,0.1-0.7,0.1-1.1,0.1c-0.6,0-1.2-0.1-1.8-0.2c-0.6-0.2-1-0.4-1.5-0.8c-0.4-0.3-0.8-0.8-1-1.3s-0.4-1.1-0.4-1.9
		c0-0.9,0.2-1.7,0.7-2.4s1.2-1.4,2.1-1.9c-0.4-0.5-0.7-1.1-1-1.6c-0.3-0.6-0.4-1.2-0.4-1.8c0-0.5,0.1-1,0.3-1.4
		c0.2-0.4,0.5-0.8,0.9-1.1s0.8-0.5,1.3-0.7s1.1-0.3,1.7-0.3c0.7,0,1.2,0.1,1.8,0.3c0.5,0.2,1,0.4,1.3,0.7c0.4,0.3,0.7,0.7,0.9,1.1
		c0.2,0.4,0.3,0.9,0.3,1.4c0,0.7-0.2,1.4-0.7,2.1c-0.4,0.7-1.1,1.2-1.9,1.8l1.7,2.3c0.2-0.3,0.3-0.5,0.3-0.8
		c0.1-0.3,0.1-0.6,0.2-0.9h3.3c0,0.8-0.2,1.7-0.5,2.4c-0.3,0.8-0.7,1.5-1.3,2.1l2,2.8h-4V180.2z M121.2,175.1
		c-0.2,0.3-0.2,0.5-0.2,0.7s0,0.5,0.1,0.7s0.2,0.4,0.4,0.5c0.2,0.2,0.3,0.3,0.5,0.4s0.4,0.1,0.6,0.1s0.5-0.1,0.7-0.2
		c0.2-0.1,0.4-0.2,0.6-0.3l-2-2.7C121.6,174.6,121.3,174.8,121.2,175.1z M122.1,169c0.2,0.3,0.4,0.6,0.8,1.1c0.5-0.4,0.8-0.8,1-1.1
		s0.3-0.6,0.3-0.8c0-0.3-0.1-0.6-0.3-0.8c-0.2-0.2-0.5-0.3-0.8-0.3s-0.6,0.1-0.8,0.3s-0.3,0.4-0.3,0.8
		C121.8,168.5,121.9,168.7,122.1,169z"/>
	<path class="st0" d="M142.3,169.1c0-0.4-0.1-0.8-0.3-1.1s-0.5-0.5-0.8-0.5c-0.4,0-0.7,0.1-0.9,0.4c-0.2,0.3-0.3,0.6-0.3,0.9
		c0,0.5,0.2,0.9,0.5,1.2s0.7,0.5,1.2,0.7s1,0.4,1.5,0.6c0.5,0.2,1.1,0.5,1.5,0.9c0.5,0.4,0.9,0.8,1.2,1.4c0.3,0.6,0.5,1.3,0.5,2.2
		c0,1.6-0.5,2.8-1.4,3.5s-2.2,1.1-3.9,1.1c-0.8,0-1.5-0.1-2.2-0.2c-0.6-0.1-1.1-0.4-1.6-0.7c-0.4-0.3-0.8-0.8-1-1.3s-0.3-1.2-0.3-2
		v-0.5h3.8v0.4c0,0.6,0.1,1.1,0.4,1.4c0.2,0.3,0.5,0.4,0.9,0.4s0.7-0.1,0.9-0.4c0.2-0.3,0.3-0.6,0.3-1c0-0.5-0.2-0.9-0.5-1.2
		s-0.7-0.5-1.1-0.7s-0.9-0.4-1.5-0.6s-1-0.5-1.5-0.8s-0.8-0.8-1.1-1.3s-0.5-1.3-0.5-2.1c0-1.5,0.4-2.7,1.2-3.5s2-1.2,3.7-1.2
		s2.9,0.4,3.7,1.1c0.8,0.7,1.1,1.9,1.1,3.5h-3.7v-0.6H142.3z"/>
	<path class="st0" d="M146.8,168.5v-3.3h9.7v3.3h-2.9v11.7h-3.9v-11.7H146.8z"/>
	<path class="st0" d="M157.3,169.1c0.2-1,0.5-1.8,0.9-2.4c0.4-0.6,1-1.1,1.7-1.4s1.5-0.4,2.5-0.4s1.8,0.1,2.5,0.4s1.2,0.7,1.7,1.4
		s0.7,1.4,0.9,2.4s0.3,2.2,0.3,3.6c0,1.4-0.1,2.6-0.3,3.6s-0.5,1.8-0.9,2.4c-0.4,0.6-1,1.1-1.7,1.3s-1.5,0.4-2.5,0.4
		s-1.8-0.1-2.5-0.4s-1.2-0.7-1.7-1.3c-0.4-0.6-0.7-1.4-0.9-2.4s-0.3-2.2-0.3-3.6S157.1,170.1,157.3,169.1z M161.1,175.2
		c0,0.7,0.1,1.2,0.2,1.6c0.1,0.4,0.2,0.7,0.4,0.8c0.2,0.2,0.4,0.2,0.7,0.2s0.5-0.1,0.7-0.2c0.2-0.2,0.3-0.4,0.4-0.8
		c0.1-0.4,0.2-0.9,0.2-1.6c0-0.7,0-1.5,0-2.5s0-1.8,0-2.5s-0.1-1.2-0.2-1.6c-0.1-0.4-0.2-0.7-0.4-0.8c-0.2-0.2-0.4-0.2-0.7-0.2
		s-0.5,0.1-0.7,0.2c-0.2,0.2-0.3,0.4-0.4,0.8c-0.1,0.4-0.2,0.9-0.2,1.6c0,0.7,0,1.5,0,2.5S161,174.5,161.1,175.2z"/>
	<path class="st0" d="M174.8,168c-0.2-0.3-0.4-0.5-0.8-0.5c-0.3,0-0.5,0.1-0.7,0.2c-0.2,0.2-0.3,0.4-0.4,0.8
		c-0.1,0.4-0.2,0.9-0.2,1.6c0,0.7,0,1.5,0,2.5s0,1.8,0,2.5s0.1,1.2,0.2,1.6c0.1,0.4,0.2,0.7,0.4,0.8c0.2,0.2,0.4,0.2,0.7,0.2
		c0.2,0,0.4-0.1,0.6-0.2s0.3-0.3,0.4-0.6s0.1-0.7,0.2-1.1c0-0.5,0.1-1.1,0.1-1.8h3.8v1.1c0,1-0.1,1.9-0.4,2.6
		c-0.3,0.7-0.7,1.2-1.1,1.6c-0.5,0.4-1,0.6-1.6,0.8c-0.6,0.1-1.2,0.2-1.8,0.2c-1.1,0-2-0.1-2.7-0.4s-1.2-0.7-1.6-1.3
		c-0.4-0.6-0.7-1.4-0.8-2.4s-0.2-2.2-0.2-3.6c0-1.4,0.1-2.6,0.3-3.6s0.5-1.8,0.9-2.4s1-1.1,1.7-1.3c0.7-0.3,1.5-0.4,2.5-0.4
		c0.9,0,1.6,0.1,2.2,0.3c0.6,0.2,1.1,0.5,1.5,1s0.7,0.9,0.8,1.5c0.2,0.6,0.3,1.2,0.3,2v0.9h-3.8v-0.8
		C175.1,168.9,175,168.3,174.8,168z"/>
	<path class="st0" d="M184.1,165.2v5.8l0,0l2.9-5.8h4.2l-3.8,6.6l4.2,8.4h-4.5l-2.3-5.2l-0.8,1.3v4h-3.9v-15h4V165.2z"/>
	<path class="st0" d="M198.1,165.2c1.4,0,2.4,0.3,3.1,1c0.7,0.7,1,1.6,1,2.7c0,0.4,0,0.8-0.1,1.1c-0.1,0.4-0.2,0.7-0.4,1
		s-0.4,0.6-0.7,0.8s-0.7,0.4-1.1,0.4l0,0c0.5,0,0.9,0.2,1.3,0.4c0.3,0.2,0.6,0.5,0.9,0.8c0.2,0.3,0.4,0.7,0.5,1.1
		c0.1,0.4,0.2,0.8,0.2,1.2c0,0.6-0.1,1.2-0.3,1.8c-0.2,0.5-0.4,1-0.8,1.4c-0.4,0.4-0.8,0.7-1.4,0.9s-1.3,0.3-2.1,0.3h-5.9v-15h5.8
		V165.2z M197,171.1c0.4,0,0.7-0.2,0.9-0.5s0.3-0.7,0.3-1.1c0-0.4-0.1-0.8-0.3-1.1s-0.5-0.5-0.9-0.5h-0.9v3.1h0.9V171.1z
		 M197.2,177.4c0.4,0,0.7-0.1,1-0.5c0.3-0.3,0.4-0.8,0.4-1.4c0-0.6-0.1-1-0.4-1.3c-0.3-0.3-0.6-0.5-1-0.5h-1.1v3.7H197.2z"/>
	<path class="st0" d="M210.2,165.2c0.7,0,1.4,0.1,1.9,0.3s1,0.5,1.3,0.8c0.3,0.4,0.6,0.8,0.7,1.3c0.1,0.5,0.2,1,0.2,1.6
		c0,1-0.2,1.8-0.6,2.4c-0.4,0.6-1.1,1-2,1.1l0,0c0.9,0.1,1.6,0.4,1.9,1c0.3,0.6,0.5,1.4,0.5,2.4v1.3c0,0.2,0,0.4,0,0.6s0,0.4,0,0.6
		c0,0.2,0,0.4,0.1,0.5c0,0.2,0.1,0.3,0.1,0.4c0.1,0.1,0.1,0.2,0.2,0.2c0.1,0.1,0.1,0.2,0.3,0.2v0.2h-4.2c-0.1-0.2-0.2-0.4-0.2-0.7
		s-0.1-0.5-0.1-0.8s0-0.5,0-0.8c0-0.2,0-0.4,0-0.6v-1c0-0.4,0-0.8-0.1-1s-0.1-0.5-0.2-0.7c-0.1-0.2-0.2-0.3-0.4-0.3
		c-0.2-0.1-0.4-0.1-0.6-0.1h-1v6h-3.9v-15h6.1V165.2z M208.8,171.5c0.6,0,1-0.2,1.2-0.5c0.3-0.3,0.4-0.8,0.4-1.3
		c0-0.6-0.1-1.1-0.4-1.3c-0.3-0.3-0.7-0.4-1.3-0.4H208v3.5H208.8z"/>
	<path class="st0" d="M219.9,165.2v15H216v-15H219.9z"/>
	<path class="st0" d="M227.3,165.2c1.1,0,2,0.2,2.6,0.6s1.1,1,1.4,1.7c0.3,0.7,0.5,1.5,0.6,2.4s0.1,1.8,0.1,2.8s0,1.9-0.1,2.8
		c-0.1,0.9-0.3,1.7-0.6,2.4s-0.8,1.2-1.4,1.7s-1.5,0.6-2.6,0.6h-5.7v-15H227.3z M226.3,177.4c0.4,0,0.7-0.1,0.9-0.2
		c0.2-0.1,0.4-0.3,0.5-0.7s0.2-0.8,0.2-1.4c0-0.6,0.1-1.4,0.1-2.4s0-1.8-0.1-2.4c0-0.6-0.1-1.1-0.2-1.4s-0.3-0.6-0.5-0.7
		c-0.2-0.1-0.5-0.2-0.9-0.2h-0.8v9.4L226.3,177.4L226.3,177.4z"/>
	<path class="st0" d="M243.8,172v8.1h-2.6l-0.1-1.3l0,0c-0.1,0.3-0.3,0.6-0.5,0.8s-0.5,0.4-0.8,0.5s-0.6,0.2-0.9,0.2s-0.7,0.1-1,0.1
		c-1,0-1.8-0.2-2.4-0.5c-0.6-0.3-1-0.8-1.3-1.5s-0.5-1.5-0.6-2.4s-0.1-2.1-0.1-3.3c0-1.3,0.1-2.4,0.2-3.3c0.1-1,0.4-1.8,0.8-2.4
		c0.4-0.7,1-1.2,1.7-1.5s1.7-0.5,2.8-0.5c0.7,0,1.3,0.1,1.9,0.3c0.6,0.2,1.1,0.5,1.5,0.9s0.7,0.9,1,1.6c0.2,0.6,0.4,1.4,0.4,2.3H240
		c0-0.8-0.1-1.4-0.2-1.7c-0.1-0.4-0.4-0.7-0.9-0.7c-0.3,0-0.6,0.1-0.8,0.2c-0.2,0.2-0.3,0.4-0.4,0.8c-0.1,0.4-0.2,0.9-0.2,1.6
		c0,0.7,0,1.5,0,2.5s0,1.8,0,2.5s0.1,1.2,0.2,1.6c0.1,0.4,0.2,0.7,0.4,0.8s0.4,0.2,0.7,0.2c0.2,0,0.4,0,0.6-0.1
		c0.2-0.1,0.3-0.2,0.4-0.5c0.1-0.2,0.2-0.6,0.3-1s0.1-0.9,0.1-1.6h-1.4V172H243.8z"/>
	<path class="st0" d="M254.2,165.2v3.2h-5v2.6h4.7v3.1h-4.7v3h5.2v3.2h-9.1v-15h8.9V165.2z"/>
	<path class="st0" d="M7,190.4c0.7,0,1.4,0.1,1.9,0.3s1,0.5,1.3,0.8c0.3,0.4,0.6,0.8,0.7,1.3s0.2,1,0.2,1.6c0,1-0.2,1.8-0.6,2.4
		c-0.4,0.6-1.1,1-2,1.1l0,0c0.9,0.1,1.6,0.4,1.9,1c0.3,0.6,0.5,1.4,0.5,2.4v1.3c0,0.2,0,0.4,0,0.6s0,0.4,0,0.6c0,0.2,0,0.4,0.1,0.5
		c0,0.2,0.1,0.3,0.1,0.4c0.1,0.1,0.1,0.2,0.2,0.2c0.1,0.1,0.1,0.2,0.3,0.2v0.2H7.5c-0.1-0.2-0.2-0.4-0.2-0.7s-0.1-0.5-0.1-0.8
		s0-0.5,0-0.8c0-0.2,0-0.4,0-0.6v-1c0-0.4,0-0.8-0.1-1S7,200,6.9,199.8s-0.2-0.3-0.4-0.3c-0.2-0.1-0.4-0.1-0.6-0.1h-1v6h-4v-15H7z
		 M5.6,196.7c0.6,0,1-0.2,1.2-0.5c0.3-0.3,0.4-0.8,0.4-1.3c0-0.6-0.1-1.1-0.4-1.3c-0.3-0.3-0.7-0.4-1.3-0.4H4.8v3.5H5.6z"/>
	<path class="st0" d="M21.9,190.4v3.2h-5v2.6h4.7v3.1h-4.7v3H22v3.2h-9v-15h8.9V190.4z"/>
	<path class="st0" d="M33.6,197.2v8.1H31l-0.1-1.3l0,0c-0.1,0.3-0.3,0.6-0.5,0.8s-0.5,0.4-0.8,0.5s-0.6,0.2-0.9,0.2s-0.7,0.1-1,0.1
		c-1,0-1.8-0.2-2.4-0.5s-1-0.8-1.3-1.5s-0.5-1.5-0.6-2.4c-0.1-1-0.1-2.1-0.1-3.3c0-1.3,0.1-2.4,0.2-3.3s0.4-1.8,0.8-2.4
		c0.4-0.7,1-1.2,1.7-1.5s1.7-0.5,2.8-0.5c0.7,0,1.3,0.1,1.9,0.3s1.1,0.5,1.5,0.9s0.7,0.9,1,1.6c0.2,0.6,0.4,1.4,0.4,2.3h-3.8
		c0-0.8-0.1-1.4-0.2-1.7c-0.1-0.4-0.4-0.7-0.9-0.7c-0.3,0-0.6,0.1-0.8,0.2c-0.2,0.2-0.3,0.4-0.4,0.8c-0.1,0.4-0.2,0.9-0.2,1.6
		c0,0.7,0,1.5,0,2.5s0,1.8,0,2.5s0.1,1.2,0.2,1.6c0.1,0.4,0.2,0.7,0.4,0.8c0.2,0.2,0.4,0.2,0.7,0.2c0.2,0,0.4,0,0.6-0.1
		s0.3-0.2,0.4-0.5c0.1-0.2,0.2-0.6,0.3-1s0.1-0.9,0.1-1.6h-1.4v-2.6h5V197.2z"/>
	<path class="st0" d="M38.9,190.4v15H35v-15H38.9z"/>
	<path class="st0" d="M46.5,194.3c0-0.4-0.1-0.8-0.3-1.1s-0.5-0.5-0.8-0.5c-0.4,0-0.7,0.1-0.9,0.4c-0.2,0.3-0.3,0.6-0.3,0.9
		c0,0.5,0.2,0.9,0.5,1.2s0.7,0.5,1.2,0.7s1,0.4,1.5,0.6c0.5,0.2,1.1,0.5,1.5,0.9c0.5,0.4,0.9,0.8,1.2,1.4c0.3,0.6,0.5,1.3,0.5,2.2
		c0,1.6-0.5,2.8-1.4,3.5s-2.2,1.1-3.9,1.1c-0.8,0-1.5-0.1-2.2-0.2c-0.6-0.1-1.1-0.4-1.6-0.7c-0.4-0.3-0.8-0.8-1-1.3s-0.3-1.2-0.3-2
		v-0.5H44v0.4c0,0.6,0.1,1.1,0.4,1.4c0.2,0.3,0.5,0.4,0.9,0.4s0.7-0.1,0.9-0.4c0.2-0.3,0.3-0.6,0.3-1c0-0.5-0.2-0.9-0.5-1.2
		s-0.7-0.5-1.1-0.7s-0.9-0.4-1.5-0.6s-1-0.5-1.5-0.8s-0.8-0.8-1.1-1.3s-0.5-1.3-0.5-2.1c0-1.5,0.4-2.7,1.2-3.5s2-1.2,3.7-1.2
		s2.9,0.4,3.7,1.1c0.8,0.7,1.1,1.9,1.1,3.5h-3.7v-0.6H46.5z"/>
	<path class="st0" d="M51,193.7v-3.3h9.7v3.3h-2.9v11.7h-3.9v-11.7H51z"/>
	<path class="st0" d="M70.5,190.4v3.2h-5v2.6h4.7v3.1h-4.7v3h5.2v3.2h-9.1v-15h8.9V190.4z"/>
	<path class="st0" d="M78.2,190.4c0.7,0,1.4,0.1,1.9,0.3s1,0.5,1.3,0.8c0.3,0.4,0.6,0.8,0.7,1.3s0.2,1,0.2,1.6c0,1-0.2,1.8-0.6,2.4
		c-0.4,0.6-1.1,1-2,1.1l0,0c0.9,0.1,1.6,0.4,1.9,1s0.5,1.4,0.5,2.4v1.3c0,0.2,0,0.4,0,0.6s0,0.4,0,0.6c0,0.2,0,0.4,0.1,0.5
		c0,0.2,0.1,0.3,0.1,0.4c0.1,0.1,0.1,0.2,0.2,0.2c0.1,0.1,0.1,0.2,0.3,0.2v0.2h-4.2c-0.1-0.2-0.2-0.4-0.2-0.7s-0.1-0.5-0.1-0.8
		s0-0.5,0-0.8c0-0.2,0-0.4,0-0.6v-1c0-0.4,0-0.8-0.1-1s-0.1-0.5-0.2-0.7s-0.2-0.3-0.4-0.3c-0.2-0.1-0.4-0.1-0.6-0.1h-1v6h-3.9v-15
		h6.1V190.4z M76.8,196.7c0.6,0,1-0.2,1.2-0.5c0.3-0.3,0.4-0.8,0.4-1.3c0-0.6-0.1-1.1-0.4-1.3c-0.3-0.3-0.7-0.4-1.3-0.4H76v3.5H76.8
		z"/>
	<path class="st0" d="M93,190.4v3.2h-5v2.6h4.7v3.1H88v3h5.2v3.2h-9.1v-15H93V190.4z"/>
	<path class="st0" d="M100.3,190.4c1.1,0,2,0.2,2.6,0.6c0.6,0.4,1.1,1,1.4,1.7s0.5,1.5,0.6,2.4s0.1,1.8,0.1,2.8s0,1.9-0.1,2.8
		c-0.1,0.9-0.3,1.7-0.6,2.4c-0.3,0.7-0.8,1.2-1.4,1.7c-0.6,0.4-1.5,0.6-2.6,0.6h-5.7v-15H100.3z M99.3,202.6c0.4,0,0.7-0.1,0.9-0.2
		c0.2-0.1,0.4-0.3,0.5-0.7c0.1-0.3,0.2-0.8,0.2-1.4c0-0.6,0.1-1.4,0.1-2.4s0-1.8-0.1-2.4c0-0.6-0.1-1.1-0.2-1.4
		c-0.1-0.3-0.3-0.6-0.5-0.7c-0.2-0.1-0.5-0.2-0.9-0.2h-0.8v9.4L99.3,202.6L99.3,202.6z"/>
	<path class="st0" d="M110.5,193.7v-3.3h9.7v3.3h-2.9v11.7h-3.9v-11.7H110.5z"/>
	<path class="st0" d="M120.9,194.3c0.2-1,0.5-1.8,0.9-2.4c0.4-0.6,1-1.1,1.7-1.4s1.5-0.4,2.5-0.4s1.8,0.1,2.5,0.4s1.2,0.7,1.7,1.4
		s0.7,1.4,0.9,2.4s0.3,2.2,0.3,3.6c0,1.4-0.1,2.6-0.3,3.6s-0.5,1.8-0.9,2.4c-0.4,0.6-1,1.1-1.7,1.3s-1.5,0.4-2.5,0.4
		s-1.8-0.1-2.5-0.4s-1.2-0.7-1.7-1.3c-0.4-0.6-0.7-1.4-0.9-2.4c-0.2-1-0.3-2.2-0.3-3.6S120.7,195.3,120.9,194.3z M124.7,200.4
		c0,0.7,0.1,1.2,0.2,1.6c0.1,0.4,0.2,0.7,0.4,0.8c0.2,0.2,0.4,0.2,0.7,0.2s0.5-0.1,0.7-0.2c0.2-0.2,0.3-0.4,0.4-0.8
		c0.1-0.4,0.2-0.9,0.2-1.6c0-0.7,0-1.5,0-2.5s0-1.8,0-2.5s-0.1-1.2-0.2-1.6c-0.1-0.4-0.2-0.7-0.4-0.8c-0.2-0.2-0.4-0.2-0.7-0.2
		s-0.5,0.1-0.7,0.2c-0.2,0.2-0.3,0.4-0.4,0.8c-0.1,0.4-0.2,0.9-0.2,1.6c0,0.7,0,1.5,0,2.5S124.7,199.7,124.7,200.4z"/>
	<path class="st0" d="M142,190.4v15h-3.9v-15H142z"/>
	<path class="st0" d="M149.5,194.3c0-0.4-0.1-0.8-0.3-1.1s-0.5-0.5-0.8-0.5c-0.4,0-0.7,0.1-0.9,0.4c-0.2,0.3-0.3,0.6-0.3,0.9
		c0,0.5,0.2,0.9,0.5,1.2s0.7,0.5,1.2,0.7s1,0.4,1.5,0.6c0.5,0.2,1.1,0.5,1.5,0.9c0.5,0.4,0.9,0.8,1.2,1.4c0.3,0.6,0.5,1.3,0.5,2.2
		c0,1.6-0.5,2.8-1.4,3.5s-2.2,1.1-3.9,1.1c-0.8,0-1.5-0.1-2.2-0.2c-0.6-0.1-1.1-0.4-1.6-0.7c-0.4-0.3-0.8-0.8-1-1.3s-0.3-1.2-0.3-2
		v-0.5h3.8v0.4c0,0.6,0.1,1.1,0.4,1.4c0.2,0.3,0.5,0.4,0.9,0.4s0.7-0.1,0.9-0.4c0.2-0.3,0.3-0.6,0.3-1c0-0.5-0.2-0.9-0.5-1.2
		s-0.7-0.5-1.1-0.7s-0.9-0.4-1.5-0.6s-1-0.5-1.5-0.8s-0.8-0.8-1.1-1.3s-0.5-1.3-0.5-2.1c0-1.5,0.4-2.7,1.2-3.5s2-1.2,3.7-1.2
		s2.9,0.4,3.7,1.1c0.8,0.7,1.1,1.9,1.1,3.5h-3.7v-0.6H149.5z"/>
	<path class="st0" d="M154.8,194.3c0.2-1,0.5-1.8,0.9-2.4c0.4-0.6,1-1.1,1.7-1.4s1.5-0.4,2.5-0.4s1.8,0.1,2.5,0.4s1.2,0.7,1.7,1.4
		s0.7,1.4,0.9,2.4s0.3,2.2,0.3,3.6c0,1.4-0.1,2.6-0.3,3.6s-0.5,1.8-0.9,2.4c-0.4,0.6-1,1.1-1.7,1.3s-1.5,0.4-2.5,0.4
		s-1.8-0.1-2.5-0.4s-1.2-0.7-1.7-1.3c-0.4-0.6-0.7-1.4-0.9-2.4s-0.3-2.2-0.3-3.6S154.6,195.3,154.8,194.3z M158.6,200.4
		c0,0.7,0.1,1.2,0.2,1.6c0.1,0.4,0.2,0.7,0.4,0.8c0.2,0.2,0.4,0.2,0.7,0.2s0.5-0.1,0.7-0.2c0.2-0.2,0.3-0.4,0.4-0.8
		c0.1-0.4,0.2-0.9,0.2-1.6c0-0.7,0-1.5,0-2.5s0-1.8,0-2.5s-0.1-1.2-0.2-1.6c-0.1-0.4-0.2-0.7-0.4-0.8c-0.2-0.2-0.4-0.2-0.7-0.2
		s-0.5,0.1-0.7,0.2c-0.2,0.2-0.3,0.4-0.4,0.8c-0.1,0.4-0.2,0.9-0.2,1.6c0,0.7,0,1.5,0,2.5S158.6,199.7,158.6,200.4z"/>
	<path class="st0" d="M173.2,190.1l-4.8,15.5h-3.1l4.7-15.5H173.2z"/>
	<path class="st0" d="M177.4,190.4v15h-3.9v-15H177.4z"/>
	<path class="st0" d="M188,190.4v3.2h-5v2.6h4.7v3.1H183v3h5.2v3.2h-9.1v-15h8.9V190.4z"/>
	<path class="st0" d="M195.3,193.2c-0.2-0.3-0.4-0.5-0.8-0.5c-0.3,0-0.5,0.1-0.7,0.2c-0.2,0.2-0.3,0.4-0.4,0.8s-0.2,0.9-0.2,1.6
		c0,0.7,0,1.5,0,2.5s0,1.8,0,2.5s0.1,1.2,0.2,1.6c0.1,0.4,0.2,0.7,0.4,0.8s0.4,0.2,0.7,0.2c0.2,0,0.4-0.1,0.6-0.2
		c0.2-0.1,0.3-0.3,0.4-0.6s0.1-0.7,0.2-1.1c0-0.5,0.1-1.1,0.1-1.8h3.8v1.1c0,1-0.1,1.9-0.4,2.6s-0.7,1.2-1.1,1.6
		c-0.5,0.4-1,0.6-1.6,0.8c-0.6,0.1-1.2,0.2-1.8,0.2c-1.1,0-2-0.1-2.7-0.4s-1.2-0.7-1.6-1.3c-0.4-0.6-0.7-1.4-0.8-2.4
		s-0.2-2.2-0.2-3.6c0-1.4,0.1-2.6,0.3-3.6s0.5-1.8,0.9-2.4c0.4-0.6,1-1.1,1.7-1.3c0.7-0.3,1.5-0.4,2.5-0.4c0.9,0,1.6,0.1,2.2,0.3
		c0.6,0.2,1.1,0.5,1.5,1c0.4,0.4,0.7,0.9,0.8,1.5c0.2,0.6,0.3,1.2,0.3,2v0.9h-3.8V195C195.6,194.1,195.5,193.5,195.3,193.2z"/>
	<path class="st0" d="M206.1,193.5c0.1-0.6,0.4-1.2,0.7-1.6c0.3-0.4,0.8-0.8,1.5-1s1.5-0.4,2.5-0.4s1.8,0.1,2.4,0.3s1.1,0.5,1.5,0.9
		s0.6,0.8,0.7,1.3s0.2,1,0.2,1.6c0,1-0.2,1.9-0.5,2.5c-0.3,0.7-0.8,1.3-1.3,1.9l-2.3,2.2c-0.2,0.2-0.4,0.4-0.6,0.6s-0.3,0.4-0.4,0.7
		h5.1v2.9h-9.8c0-1,0.2-2,0.5-3c0.3-0.9,0.9-1.8,1.8-2.7l2.6-2.6c0.4-0.4,0.6-0.7,0.8-1.1c0.2-0.3,0.2-0.8,0.2-1.4
		c0-0.6-0.1-1.1-0.3-1.3s-0.4-0.4-0.7-0.4c-0.1,0-0.3,0-0.4,0.1s-0.2,0.1-0.3,0.3c-0.1,0.1-0.2,0.3-0.3,0.6s-0.1,0.6-0.1,1v0.6h-3.7
		C205.9,194.8,206,194.1,206.1,193.5z"/>
	<path class="st0" d="M226.5,190.8v2.9c-0.5,0.8-1,1.7-1.4,2.7s-0.8,1.9-1.2,3c-0.3,1-0.6,2-0.8,3.1c-0.2,1-0.4,2-0.4,3h-4
		c0.1-1,0.3-1.9,0.5-2.9s0.5-2,0.9-3c0.3-1,0.8-1.9,1.2-2.9c0.5-0.9,1-1.8,1.6-2.7h-6v-3.2L226.5,190.8L226.5,190.8z"/>
	<path class="st0" d="M227.9,194.4c0.2-1,0.5-1.8,0.9-2.3c0.4-0.6,0.9-1,1.6-1.2c0.6-0.2,1.4-0.3,2.3-0.3s1.6,0.1,2.3,0.3
		c0.6,0.2,1.2,0.6,1.6,1.2c0.4,0.6,0.7,1.4,0.9,2.3c0.2,1,0.3,2.2,0.3,3.7s-0.1,2.8-0.3,3.7c-0.2,1-0.5,1.7-0.9,2.3s-0.9,1-1.6,1.2
		c-0.6,0.2-1.4,0.3-2.3,0.3s-1.6-0.1-2.3-0.3c-0.6-0.2-1.2-0.6-1.6-1.2c-0.4-0.6-0.7-1.3-0.9-2.3s-0.3-2.2-0.3-3.7
		C227.6,196.6,227.7,195.3,227.9,194.4z M231.8,202.7c0.2,0.4,0.5,0.6,0.9,0.6s0.7-0.2,0.9-0.6s0.3-1.1,0.3-2.1v-4.9
		c0-1-0.1-1.8-0.3-2.1c-0.2-0.4-0.5-0.6-0.9-0.6s-0.7,0.2-0.9,0.6c-0.2,0.4-0.3,1.1-0.3,2.1v4.9
		C231.5,201.6,231.6,202.3,231.8,202.7z"/>
	<path class="st0" d="M238.9,194.4c0.2-1,0.5-1.8,0.9-2.3c0.4-0.6,0.9-1,1.6-1.2c0.6-0.2,1.4-0.3,2.3-0.3s1.6,0.1,2.3,0.3
		c0.6,0.2,1.2,0.6,1.6,1.2c0.4,0.6,0.7,1.4,0.9,2.3c0.2,1,0.3,2.2,0.3,3.7s-0.1,2.8-0.3,3.7c-0.2,1-0.5,1.7-0.9,2.3s-0.9,1-1.6,1.2
		c-0.6,0.2-1.4,0.3-2.3,0.3s-1.6-0.1-2.3-0.3c-0.6-0.2-1.2-0.6-1.6-1.2c-0.4-0.6-0.7-1.3-0.9-2.3s-0.3-2.2-0.3-3.7
		C238.6,196.6,238.7,195.3,238.9,194.4z M242.7,202.7c0.2,0.4,0.5,0.6,0.9,0.6s0.7-0.2,0.9-0.6s0.3-1.1,0.3-2.1v-4.9
		c0-1-0.1-1.8-0.3-2.1c-0.2-0.4-0.5-0.6-0.9-0.6s-0.7,0.2-0.9,0.6c-0.2,0.4-0.3,1.1-0.3,2.1v4.9
		C242.5,201.6,242.6,202.3,242.7,202.7z"/>
	<path class="st0" d="M252.9,195.3h-2.8v-2.4c0.6,0,1.1,0,1.6-0.1c0.4-0.1,0.8-0.2,1.1-0.4s0.6-0.4,0.8-0.7s0.4-0.7,0.5-1.1h2.8
		v14.9H253v-10.2H252.9z"/>
	<path class="st0" d="M264.5,194v4.2H261V194H264.5z M264.5,201.2v4.2H261v-4.2H264.5z"/>
	<path class="st0" d="M270.9,193.5c0.1-0.6,0.4-1.2,0.7-1.6c0.3-0.4,0.8-0.8,1.5-1s1.5-0.4,2.5-0.4s1.8,0.1,2.4,0.3s1.1,0.5,1.5,0.9
		s0.6,0.8,0.7,1.3s0.2,1,0.2,1.6c0,1-0.2,1.9-0.5,2.5c-0.3,0.7-0.8,1.3-1.3,1.9l-2.3,2.2c-0.2,0.2-0.4,0.4-0.6,0.6
		c-0.2,0.2-0.3,0.4-0.4,0.7h5.1v2.9h-9.8c0-1,0.2-2,0.5-3c0.3-0.9,0.9-1.8,1.8-2.7l2.6-2.6c0.4-0.4,0.6-0.7,0.8-1.1
		c0.2-0.3,0.2-0.8,0.2-1.4c0-0.6-0.1-1.1-0.3-1.3c-0.2-0.2-0.4-0.4-0.7-0.4c-0.1,0-0.3,0-0.4,0.1s-0.2,0.1-0.3,0.3
		c-0.1,0.1-0.2,0.3-0.3,0.6c-0.1,0.3-0.1,0.6-0.1,1v0.6h-3.7C270.7,194.8,270.7,194.1,270.9,193.5z"/>
	<path class="st0" d="M281.8,194.4c0.2-1,0.5-1.8,0.9-2.3c0.4-0.6,0.9-1,1.6-1.2c0.6-0.2,1.4-0.3,2.3-0.3s1.6,0.1,2.3,0.3
		c0.6,0.2,1.2,0.6,1.6,1.2c0.4,0.6,0.7,1.4,0.9,2.3c0.2,1,0.3,2.2,0.3,3.7s-0.1,2.8-0.3,3.7c-0.2,1-0.5,1.7-0.9,2.3s-0.9,1-1.6,1.2
		c-0.6,0.2-1.4,0.3-2.3,0.3s-1.6-0.1-2.3-0.3c-0.6-0.2-1.2-0.6-1.6-1.2c-0.4-0.6-0.7-1.3-0.9-2.3c-0.2-1-0.3-2.2-0.3-3.7
		C281.5,196.6,281.6,195.3,281.8,194.4z M285.6,202.7c0.2,0.4,0.5,0.6,0.9,0.6s0.7-0.2,0.9-0.6s0.3-1.1,0.3-2.1v-4.9
		c0-1-0.1-1.8-0.3-2.1c-0.2-0.4-0.5-0.6-0.9-0.6s-0.7,0.2-0.9,0.6c-0.2,0.4-0.3,1.1-0.3,2.1v4.9
		C285.4,201.6,285.5,202.3,285.6,202.7z"/>
	<path class="st0" d="M295.8,195.3H293v-2.4c0.6,0,1.1,0,1.6-0.1c0.4-0.1,0.8-0.2,1.1-0.4c0.3-0.2,0.6-0.4,0.8-0.7
		c0.2-0.3,0.4-0.7,0.5-1.1h2.8v14.9h-3.9v-10.2H295.8z"/>
	<path class="st0" d="M304.7,191.6c0.8-0.7,1.9-1.1,3.4-1.1c0.9,0,1.7,0.1,2.3,0.3c0.6,0.2,1.1,0.4,1.4,0.8s0.6,0.8,0.8,1.3
		c0.1,0.5,0.2,1.1,0.2,1.8c0,0.3,0,0.6-0.1,0.9c-0.1,0.3-0.2,0.6-0.3,0.9c-0.2,0.3-0.4,0.5-0.6,0.7c-0.3,0.2-0.6,0.4-1,0.4l0,0
		c0.9,0.2,1.5,0.5,1.8,1.1s0.5,1.3,0.5,2.1c0,1.7-0.4,2.9-1.2,3.6c-0.8,0.7-2,1.1-3.6,1.1c-0.8,0-1.6-0.1-2.2-0.2
		c-0.6-0.1-1.1-0.4-1.5-0.8c-0.4-0.4-0.7-0.9-0.9-1.5c-0.2-0.6-0.3-1.4-0.3-2.3h3.7c0,0.4,0,0.8,0.1,1c0,0.3,0.1,0.5,0.2,0.7
		c0.2,0.4,0.5,0.5,0.9,0.5c0.2,0,0.4,0,0.5-0.1s0.2-0.2,0.3-0.4c0.1-0.2,0.1-0.4,0.2-0.7c0-0.3,0-0.7,0-1.1c0-0.7-0.1-1.2-0.3-1.5
		c-0.2-0.3-0.6-0.4-1.1-0.4h-1v-2.4h0.6c0.3,0,0.5,0,0.8-0.1c0.2-0.1,0.4-0.2,0.5-0.3s0.2-0.4,0.3-0.6c0.1-0.3,0.1-0.6,0.1-1.1
		c0-0.6-0.1-1.1-0.2-1.3s-0.4-0.3-0.7-0.3c-0.4,0-0.6,0.1-0.8,0.4c-0.2,0.3-0.2,0.8-0.2,1.6h-3.5
		C303.5,193.4,303.9,192.3,304.7,191.6z"/>
	<path class="st0" d="M81.5,220.5h-2.8V218c0.6,0,1.1,0,1.6-0.1c0.4-0.1,0.8-0.2,1.1-0.4c0.3-0.2,0.6-0.4,0.8-0.7
		c0.2-0.3,0.4-0.7,0.5-1.1h2.8v14.9h-3.9L81.5,220.5L81.5,220.5z"/>
	<path class="st0" d="M89.2,219.6c0.2-1,0.5-1.8,0.9-2.3c0.4-0.6,0.9-1,1.6-1.2c0.6-0.2,1.4-0.3,2.3-0.3s1.6,0.1,2.3,0.3
		c0.6,0.2,1.2,0.6,1.6,1.2c0.4,0.6,0.7,1.4,0.9,2.3c0.2,1,0.3,2.2,0.3,3.7s-0.1,2.8-0.3,3.7c-0.2,1-0.5,1.7-0.9,2.3s-0.9,1-1.6,1.2
		s-1.4,0.3-2.3,0.3s-1.6-0.1-2.3-0.3c-0.6-0.2-1.2-0.6-1.6-1.2c-0.4-0.6-0.7-1.3-0.9-2.3c-0.2-1-0.3-2.2-0.3-3.7
		C88.9,221.8,89,220.5,89.2,219.6z M93.1,227.9c0.2,0.4,0.5,0.6,0.9,0.6s0.7-0.2,0.9-0.6s0.3-1.1,0.3-2.1v-4.9c0-1-0.1-1.8-0.3-2.1
		c-0.2-0.4-0.5-0.6-0.9-0.6s-0.7,0.2-0.9,0.6c-0.2,0.4-0.3,1.1-0.3,2.1v4.9C92.8,226.8,92.9,227.5,93.1,227.9z"/>
	<path class="st0" d="M100.2,219.6c0.2-1,0.5-1.8,0.9-2.3c0.4-0.6,0.9-1,1.6-1.2c0.6-0.2,1.4-0.3,2.3-0.3s1.6,0.1,2.3,0.3
		c0.6,0.2,1.2,0.6,1.6,1.2c0.4,0.6,0.7,1.4,0.9,2.3c0.2,1,0.3,2.2,0.3,3.7s-0.1,2.8-0.3,3.7c-0.2,1-0.5,1.7-0.9,2.3s-0.9,1-1.6,1.2
		s-1.4,0.3-2.3,0.3s-1.6-0.1-2.3-0.3c-0.6-0.2-1.2-0.6-1.6-1.2c-0.4-0.6-0.7-1.3-0.9-2.3c-0.2-1-0.3-2.2-0.3-3.7
		C99.9,221.8,100,220.5,100.2,219.6z M104,227.9c0.2,0.4,0.5,0.6,0.9,0.6s0.7-0.2,0.9-0.6s0.3-1.1,0.3-2.1v-4.9c0-1-0.1-1.8-0.3-2.1
		c-0.2-0.4-0.5-0.6-0.9-0.6s-0.7,0.2-0.9,0.6c-0.2,0.4-0.3,1.1-0.3,2.1v4.9C103.8,226.8,103.9,227.5,104,227.9z"/>
	<path class="st0" d="M114.2,220.5h-2.8V218c0.6,0,1.1,0,1.6-0.1c0.4-0.1,0.8-0.2,1.1-0.4c0.3-0.2,0.6-0.4,0.8-0.7
		c0.2-0.3,0.4-0.7,0.5-1.1h2.8v14.9h-3.9L114.2,220.5L114.2,220.5z"/>
	<path class="st0" d="M130.8,216v2.9h-5.6l-0.2,2.5c0.4-0.3,0.8-0.6,1.2-0.8s1-0.3,1.5-0.3c1.2,0,2.1,0.4,2.8,1.2
		c0.6,0.8,0.9,2,0.9,3.6c0,1-0.1,1.8-0.2,2.6c-0.2,0.7-0.4,1.3-0.8,1.8c-0.4,0.5-0.9,0.8-1.5,1s-1.4,0.3-2.3,0.3
		c-1.7,0-3-0.4-3.7-1.1c-0.8-0.7-1.1-1.8-1.1-3.1v-0.5h3.7v0.5c0,0.7,0.1,1.2,0.3,1.4c0.2,0.3,0.5,0.4,0.8,0.4c0.2,0,0.4,0,0.5-0.1
		s0.2-0.2,0.3-0.4s0.2-0.5,0.2-1s0.1-1,0.1-1.7c0-0.8-0.1-1.4-0.3-1.8c-0.2-0.3-0.5-0.5-0.8-0.5s-0.6,0.1-0.8,0.3
		c-0.2,0.2-0.3,0.5-0.3,1H122l0.3-8.3h8.5V216z"/>
	<path class="st0" d="M134,216.8c0.8-0.7,1.9-1.1,3.4-1.1c0.9,0,1.7,0.1,2.3,0.3s1.1,0.4,1.4,0.8s0.6,0.8,0.8,1.3
		c0.1,0.5,0.2,1.1,0.2,1.8c0,0.3,0,0.6-0.1,0.9c-0.1,0.3-0.2,0.6-0.3,0.9c-0.2,0.3-0.4,0.5-0.6,0.7s-0.6,0.4-1,0.4l0,0
		c0.9,0.2,1.5,0.5,1.8,1.1s0.5,1.3,0.5,2.1c0,1.7-0.4,2.9-1.2,3.6c-0.8,0.7-2,1.1-3.6,1.1c-0.8,0-1.6-0.1-2.2-0.2
		c-0.6-0.1-1.1-0.4-1.5-0.8c-0.4-0.4-0.7-0.9-0.9-1.5s-0.3-1.4-0.3-2.3h3.7c0,0.4,0,0.8,0.1,1c0,0.3,0.1,0.5,0.2,0.7
		c0.2,0.4,0.5,0.5,0.9,0.5c0.2,0,0.4,0,0.5-0.1s0.2-0.2,0.3-0.4s0.1-0.4,0.2-0.7c0-0.3,0-0.7,0-1.1c0-0.7-0.1-1.2-0.3-1.5
		s-0.6-0.4-1.1-0.4h-1v-2.4h0.6c0.3,0,0.5,0,0.8-0.1c0.2-0.1,0.4-0.2,0.5-0.3c0.1-0.2,0.2-0.4,0.3-0.6c0.1-0.3,0.1-0.6,0.1-1.1
		c0-0.6-0.1-1.1-0.2-1.3c-0.2-0.2-0.4-0.3-0.7-0.3c-0.4,0-0.6,0.1-0.8,0.4c-0.2,0.3-0.2,0.8-0.2,1.6h-3.5
		C132.8,218.6,133.2,217.5,134,216.8z"/>
	<path class="st0" d="M149.4,218.4c-0.2-0.2-0.4-0.3-0.8-0.3c-0.3,0-0.5,0.1-0.7,0.3s-0.3,0.6-0.3,1.1v2.4l0,0
		c0.2-0.4,0.5-0.7,0.9-0.9c0.5-0.2,1-0.3,1.6-0.3c0.5,0,1,0.1,1.4,0.2c0.4,0.1,0.8,0.4,1.1,0.7s0.6,0.8,0.7,1.4s0.3,1.3,0.3,2.2
		c0,1-0.1,1.9-0.3,2.6c-0.2,0.7-0.5,1.3-1,1.7c-0.4,0.4-0.9,0.8-1.6,0.9c-0.6,0.2-1.3,0.3-2.1,0.3c-0.9,0-1.6-0.1-2.2-0.3
		c-0.6-0.2-1.2-0.5-1.6-1c-0.4-0.5-0.7-1.1-1-1.9c-0.2-0.8-0.3-1.8-0.3-3v-1.7c0-1.1,0.1-2.2,0.2-3.1c0.1-0.9,0.4-1.6,0.7-2.2
		c0.4-0.6,0.9-1.1,1.6-1.4s1.6-0.5,2.7-0.5c1,0,1.7,0.1,2.3,0.3s1.1,0.5,1.4,0.9c0.3,0.4,0.6,0.8,0.7,1.2c0.1,0.5,0.2,0.9,0.2,1.4
		h-3.7C149.7,219,149.6,218.7,149.4,218.4z M147.8,227.9c0.2,0.3,0.4,0.5,0.9,0.5c0.4,0,0.6-0.2,0.8-0.5s0.3-1,0.3-1.9
		s-0.1-1.6-0.2-1.9c-0.2-0.3-0.4-0.5-0.9-0.5c-0.4,0-0.6,0.2-0.8,0.5s-0.3,1-0.3,1.9S147.6,227.6,147.8,227.9z"/>
	<path class="st0" d="M157.4,230.6c-0.6-0.1-1.2-0.4-1.6-0.7c-0.4-0.4-0.8-0.8-1-1.4c-0.2-0.6-0.3-1.4-0.3-2.3
		c0-0.9,0.2-1.7,0.6-2.3c0.4-0.6,1-1,1.9-1.1l0,0c-0.4-0.1-0.8-0.2-1.1-0.5s-0.5-0.4-0.7-0.7s-0.3-0.6-0.3-0.9
		c-0.1-0.3-0.1-0.6-0.1-1c0-0.6,0.1-1.1,0.3-1.6s0.5-0.9,0.8-1.3c0.4-0.3,0.9-0.6,1.5-0.8s1.3-0.3,2.2-0.3s1.6,0.1,2.2,0.3
		c0.6,0.2,1.1,0.5,1.5,0.8s0.7,0.8,0.8,1.3c0.2,0.5,0.3,1,0.3,1.6c0,0.3,0,0.6-0.1,1c-0.1,0.3-0.2,0.6-0.3,0.9
		c-0.2,0.3-0.4,0.5-0.7,0.7s-0.6,0.4-1.1,0.5l0,0c0.4,0.1,0.8,0.2,1.1,0.4s0.6,0.5,0.8,0.8s0.3,0.6,0.4,1c0.1,0.4,0.1,0.8,0.1,1.2
		c0,0.9-0.1,1.7-0.3,2.3s-0.6,1.1-1,1.4c-0.4,0.4-1,0.6-1.6,0.7s-1.3,0.2-2.1,0.2S158,230.7,157.4,230.6z M158.7,228
		c0.2,0.3,0.5,0.4,0.9,0.4s0.6-0.1,0.9-0.4c0.2-0.3,0.3-0.9,0.3-1.8c0-0.9-0.1-1.4-0.3-1.7s-0.5-0.4-0.9-0.4s-0.6,0.1-0.9,0.4
		s-0.3,0.9-0.3,1.7C158.4,227.1,158.5,227.7,158.7,228z M158.6,220.8c0.1,0.2,0.1,0.4,0.2,0.6c0.1,0.1,0.2,0.2,0.3,0.3
		c0.1,0,0.2,0.1,0.4,0.1c0.3,0,0.5-0.1,0.7-0.4c0.2-0.2,0.3-0.7,0.3-1.4c0-0.4,0-0.7-0.1-0.9s-0.1-0.4-0.2-0.5
		c-0.1-0.1-0.2-0.2-0.3-0.3c-0.1,0-0.2-0.1-0.4-0.1c-0.1,0-0.3,0-0.4,0.1s-0.2,0.1-0.3,0.3c-0.1,0.1-0.2,0.3-0.2,0.5
		c-0.1,0.2-0.1,0.5-0.1,0.9C158.5,220.3,158.5,220.6,158.6,220.8z"/>
	<path class="st0" d="M175.1,215.6v15h-3.9v-15H175.1z"/>
	<path class="st0" d="M182.7,219.5c0-0.4-0.1-0.8-0.3-1.1s-0.5-0.5-0.8-0.5c-0.4,0-0.7,0.1-0.9,0.4c-0.2,0.3-0.3,0.6-0.3,0.9
		c0,0.5,0.2,0.9,0.5,1.2s0.7,0.5,1.2,0.7s1,0.4,1.5,0.6c0.5,0.2,1.1,0.5,1.5,0.9c0.5,0.4,0.9,0.8,1.2,1.4c0.3,0.6,0.5,1.3,0.5,2.2
		c0,1.6-0.5,2.8-1.4,3.5s-2.2,1.1-3.9,1.1c-0.8,0-1.5-0.1-2.2-0.2c-0.6-0.1-1.1-0.4-1.6-0.7c-0.4-0.3-0.8-0.8-1-1.3s-0.3-1.2-0.3-2
		v-0.5h3.8v0.4c0,0.6,0.1,1.1,0.4,1.4s0.5,0.4,0.9,0.4s0.7-0.1,0.9-0.4c0.2-0.3,0.3-0.6,0.3-1c0-0.5-0.2-0.9-0.5-1.2
		s-0.7-0.5-1.1-0.7s-0.9-0.4-1.5-0.6s-1-0.5-1.5-0.8s-0.8-0.8-1.1-1.3s-0.5-1.3-0.5-2.1c0-1.5,0.4-2.7,1.2-3.5s2-1.2,3.7-1.2
		s2.9,0.4,3.7,1.1c0.8,0.7,1.1,1.9,1.1,3.5h-3.7v-0.6H182.7z"/>
	<path class="st0" d="M193.5,215.6l1.6,8.9l0,0l1.6-8.9h5.6v15h-3.7v-11.2l0,0l-2.1,11.2h-2.8l-2.1-11.2l0,0v11.2h-3.7v-15H193.5z"
		/>
	<path class="st0" d="M209.9,219.5c0-0.4-0.1-0.8-0.3-1.1s-0.5-0.5-0.8-0.5c-0.4,0-0.7,0.1-0.9,0.4c-0.2,0.3-0.3,0.6-0.3,0.9
		c0,0.5,0.2,0.9,0.5,1.2s0.7,0.5,1.2,0.7s1,0.4,1.5,0.6c0.5,0.2,1.1,0.5,1.5,0.9c0.5,0.4,0.9,0.8,1.2,1.4c0.3,0.6,0.5,1.3,0.5,2.2
		c0,1.6-0.5,2.8-1.4,3.5s-2.2,1.1-3.9,1.1c-0.8,0-1.5-0.1-2.2-0.2s-1.1-0.4-1.6-0.7s-0.8-0.8-1-1.3s-0.3-1.2-0.3-2v-0.5h3.8v0.4
		c0,0.6,0.1,1.1,0.4,1.4c0.2,0.3,0.5,0.4,0.9,0.4s0.7-0.1,0.9-0.4c0.2-0.3,0.3-0.6,0.3-1c0-0.5-0.2-0.9-0.5-1.2s-0.7-0.5-1.1-0.7
		s-0.9-0.4-1.5-0.6s-1-0.5-1.5-0.8s-0.8-0.8-1.1-1.3s-0.5-1.3-0.5-2.1c0-1.5,0.4-2.7,1.2-3.5s2-1.2,3.7-1.2s2.9,0.4,3.7,1.1
		s1.1,1.9,1.1,3.5h-3.7v-0.6H209.9z"/>
	<path class="st0" d="M218.2,220.5h-2.8V218c0.6,0,1.1,0,1.6-0.1c0.4-0.1,0.8-0.2,1.1-0.4s0.6-0.4,0.8-0.7s0.4-0.7,0.5-1.1h2.8v14.9
		h-3.9v-10.1H218.2z"/>
	<path class="st0" d="M227.1,216.8c0.8-0.7,1.9-1.1,3.4-1.1c0.9,0,1.7,0.1,2.3,0.3s1.1,0.4,1.4,0.8s0.6,0.8,0.8,1.3
		c0.1,0.5,0.2,1.1,0.2,1.8c0,0.3,0,0.6-0.1,0.9c-0.1,0.3-0.2,0.6-0.3,0.9c-0.2,0.3-0.4,0.5-0.6,0.7c-0.3,0.2-0.6,0.4-1,0.4l0,0
		c0.9,0.2,1.5,0.5,1.8,1.1s0.5,1.3,0.5,2.1c0,1.7-0.4,2.9-1.2,3.6c-0.8,0.7-2,1.1-3.6,1.1c-0.8,0-1.6-0.1-2.2-0.2
		c-0.6-0.1-1.1-0.4-1.5-0.8c-0.4-0.4-0.7-0.9-0.9-1.5s-0.3-1.4-0.3-2.3h3.7c0,0.4,0,0.8,0.1,1c0,0.3,0.1,0.5,0.2,0.7
		c0.2,0.4,0.5,0.5,0.9,0.5c0.2,0,0.4,0,0.5-0.1s0.2-0.2,0.3-0.4s0.1-0.4,0.2-0.7c0-0.3,0-0.7,0-1.1c0-0.7-0.1-1.2-0.3-1.5
		s-0.6-0.4-1.1-0.4h-1v-2.4h0.6c0.3,0,0.5,0,0.8-0.1c0.2-0.1,0.4-0.2,0.5-0.3s0.2-0.4,0.3-0.6c0.1-0.3,0.1-0.6,0.1-1.1
		c0-0.6-0.1-1.1-0.2-1.3s-0.4-0.3-0.7-0.3c-0.4,0-0.6,0.1-0.8,0.4c-0.2,0.3-0.2,0.8-0.2,1.6h-3.5
		C225.9,218.6,226.3,217.5,227.1,216.8z"/>
</g>
</svg>
